<svg xmlns="http://www.w3.org/2000/svg" version="1.0" preserveAspectRatio="xMidYMid meet" viewBox="-0.1 70 431.2 70">

<g transform="translate(0.000000,187.000000) scale(0.100000,-0.100000)" fill="#fd990e" stroke="none">
<path d="M1528 1143 c-1 -16 -1 -37 0 -48 0 -11 -2 -27 -5 -35 -3 -8 -5 -38 -4 -66 2 -29 -2 -55 -8 -58 -7 -5 -7 -12 1 -25 7 -12 8 -46 4 -103 -7 -81 -9 -87 -33 -93 -29 -7 -63 2 -63 17 0 6 -9 8 -20 5 -11 -3 -20 -2 -20 1 0 9 -50 32 -67 32 -7 0 -13 -11 -13 -25 0 -14 -4 -25 -10 -25 -5 0 -10 16 -10 36 0 31 -3 35 -20 29 -11 -4 -20 -2 -20 4 0 6 -16 11 -35 11 -19 0 -35 -4 -35 -10 0 -5 -6 -10 -14 -10 -8 0 -17 -6 -19 -12 -3 -7 -6 18 -6 55 l-1 69 -31 -26 c-17 -14 -35 -24 -40 -20 -5 3 -10 -39 -11 -98 -1 -80 -3 -88 -5 -35 -3 50 -8 67 -18 67 -8 0 -15 7 -15 15 0 33 -20 12 -22 -22 -1 -30 -2 -27 -7 17 -5 48 -9 55 -29 58 -17 3 -25 -2 -29 -17 -4 -17 -13 -21 -49 -21 l-44 0 0 -55 c0 -30 -4 -55 -10 -55 -5 0 -10 22 -10 48 0 39 -5 53 -25 72 l-25 23 0 -45 c0 -49 -5 -59 -26 -51 -11 4 -14 31 -14 120 0 121 -11 162 -50 183 -32 17 -40 4 -40 -61 l0 -61 -26 31 c-14 17 -30 31 -35 31 -5 0 -9 -29 -9 -64 0 -63 0 -64 -31 -70 -51 -10 -76 -7 -83 9 -3 8 -12 15 -21 15 -8 0 -15 -7 -15 -15 0 -8 -9 -15 -20 -15 -19 0 -20 -4 -14 -52 l7 -51 -33 6 c-18 4 -41 7 -51 7 -13 0 -17 7 -17 30 1 38 -19 65 -38 49 -8 -6 -14 -18 -14 -27 0 -13 -2 -13 -18 1 -24 22 -41 5 -43 -42 -2 -34 -2 -34 -6 -6 -5 39 -30 60 -51 42 -8 -6 -26 -12 -40 -12 -19 0 -26 -6 -29 -24 -2 -14 -10 -32 -17 -40 -9 -11 -16 -59 -20 -138 l-7 -123 2156 0 2156 0 -3 78 c-3 76 -3 77 -30 77 -15 1 -30 3 -33 6 -5 6 -25 92 -27 119 -1 15 -26 39 -42 40 -8 0 -5 -49 10 -132 9 -52 -19 -53 -32 -1 -14 56 -63 54 -64 -2 0 -15 -7 -21 -25 -23 -23 -2 -24 1 -27 60 -3 65 -21 87 -37 46 -9 -22 -10 -21 -10 9 -1 17 -5 35 -11 38 -5 3 -10 17 -10 31 0 15 -6 24 -15 24 -8 0 -15 -6 -15 -14 0 -19 -25 -27 -39 -13 -17 17 -27 -4 -35 -74 l-7 -59 -25 17 c-21 13 -29 14 -52 3 -15 -7 -37 -14 -49 -16 -23 -3 -23 -2 -23 127 0 140 -3 148 -55 135 l-25 -6 0 -151 0 -151 -22 6 c-13 3 -31 6 -40 6 -16 0 -18 13 -18 129 0 102 -3 131 -15 141 -22 19 -43 5 -47 -31 -3 -33 -28 -54 -28 -24 0 14 -6 16 -27 10 -16 -3 -31 -9 -35 -13 -5 -6 -14 -114 -17 -219 -1 -38 -21 -26 -21 13 0 61 -25 94 -72 94 -37 0 -61 -38 -60 -96 0 -49 -3 -51 -37 -28 -21 15 -23 22 -18 75 5 53 3 59 -13 59 -22 0 -35 -16 -20 -25 13 -8 13 -81 0 -106 -10 -19 -12 -19 -39 -3 -26 15 -30 15 -54 0 -21 -14 -30 -15 -47 -6 -12 6 -24 9 -27 6 -3 -3 -11 1 -18 10 -6 9 -25 17 -42 18 -16 1 -38 7 -46 15 -10 8 -31 12 -52 9 -22 -2 -36 1 -39 9 -3 7 -9 13 -13 12 -4 -1 -20 -1 -35 0 -23 1 -28 6 -28 26 0 29 -29 35 -32 8 -1 -10 -4 14 -7 52 -6 67 -7 70 -33 73 l-28 3 0 -74 c0 -68 -2 -75 -22 -80 -12 -3 -30 -1 -41 5 -11 5 -33 7 -49 4 -17 -3 -40 -3 -53 0 -21 5 -24 13 -31 92 -5 61 -3 91 6 105 9 15 9 21 0 27 -7 4 -11 27 -10 56 2 27 0 56 -3 64 -3 8 -5 24 -5 35 1 11 1 33 0 49 -3 48 -24 16 -27 -41 -1 -26 -3 -50 -5 -53 -1 -3 -1 -28 0 -56 1 -29 -4 -55 -10 -59 -8 -5 -8 -11 1 -21 19 -23 3 -180 -21 -204 -12 -12 -22 -15 -25 -9 -4 5 -9 68 -12 140 -3 71 -8 142 -13 157 l-8 27 -2 -25 c-2 -14 -2 -51 -1 -82 0 -32 -3 -58 -7 -58 -4 0 -6 -31 -4 -69 l4 -69 -33 2 c-29 2 -34 5 -31 24 7 51 -44 88 -79 56 -10 -9 -19 -25 -19 -36 0 -10 -4 -18 -9 -18 -5 0 -13 -10 -16 -21 -4 -12 -10 -17 -14 -12 -3 5 -14 13 -25 16 -14 6 -17 13 -11 34 14 56 -41 116 -86 93 -33 -18 -51 -56 -44 -90 5 -24 3 -31 -12 -37 -10 -3 -21 -11 -25 -17 -5 -7 -8 -4 -8 7 0 10 -7 20 -15 23 -8 4 -15 14 -15 24 0 9 -9 25 -19 34 -35 32 -84 -3 -78 -55 2 -19 -3 -23 -30 -25 l-33 -2 3 69 c1 38 -1 69 -5 69 -4 0 -6 26 -5 58 2 31 0 68 -3 82 -6 21 -8 18 -14 -20 -3 -25 -8 -95 -10 -157 -2 -61 -7 -116 -10 -122 -4 -6 -14 -3 -26 9 -25 25 -40 181 -20 206 11 12 11 17 1 23 -8 5 -12 26 -11 57 2 27 0 56 -3 64 -3 8 -5 24 -5 35 3 43 -2 75 -12 75 -5 0 -11 -12 -12 -27z m2170 -230 c-2 -11 -14 -19 -31 -21 -22 -3 -27 1 -27 17 0 17 6 21 31 21 24 0 30 -4 27 -17z m-218 -178 c0 -57 -4 -95 -10 -95 -6 0 -10 38 -10 95 0 57 4 95 10 95 6 0 10 -38 10 -95z m238 -122 c-14 -2 -32 -11 -38 -19 -11 -12 -2 -14 56 -14 52 0 65 3 54 11 -12 9 -11 9 5 3 11 -4 102 -9 203 -11 101 -1 190 -6 198 -11 8 -4 -135 -7 -317 -6 -182 1 -333 5 -336 8 -4 3 21 6 54 6 47 0 64 4 78 20 10 11 29 19 44 19 l26 -2 -27 -4z m-198 -43 c11 -7 -3 -9 -45 -9 -48 1 -54 3 -30 9 43 11 58 11 75 0z"/>
</g>
</svg>