<svg xmlns="http://www.w3.org/2000/svg" version="1.0" preserveAspectRatio="xMidYMid meet" viewBox="0 121 450 72">

<g transform="translate(0.000000,270.000000) scale(0.100000,-0.100000)" fill="#fd990e" stroke="none">
<path d="M300 1415 c0 -76 -4 -86 -24 -61 -6 8 -21 17 -33 21 -22 6 -23 3 -23 -39 0 -40 -3 -46 -21 -46 -19 0 -20 -4 -14 -77 7 -78 7 -78 -29 -130 -20 -29 -36 -64 -36 -78 0 -23 -4 -25 -40 -25 l-40 0 0 -60 c0 -53 -2 -60 -20 -60 -17 0 -20 -7 -20 -45 l0 -45 2250 0 2250 0 0 45 c0 38 -3 45 -20 45 -16 0 -20 7 -20 30 0 17 -4 30 -10 30 -6 0 -10 88 -10 245 0 211 -2 245 -15 245 -8 0 -15 6 -15 14 0 24 -22 30 -37 11 -12 -17 -13 -17 -13 -2 0 9 -7 17 -15 17 -8 0 -15 -9 -15 -20 0 -11 -7 -20 -15 -20 -13 0 -15 -29 -15 -205 0 -141 -3 -205 -11 -205 -7 0 -10 28 -8 83 2 45 0 87 -4 94 -4 6 -6 42 -5 79 2 84 -11 194 -22 194 -5 0 -9 -8 -9 -17 0 -10 -4 -47 -9 -83 -5 -36 -7 -84 -4 -107 2 -23 1 -50 -3 -60 -4 -10 -7 -48 -6 -85 2 -40 -1 -68 -7 -68 -6 0 -10 33 -11 76 -1 81 -4 94 -27 94 -14 0 -21 -67 -15 -143 2 -26 0 -28 -25 -25 -22 2 -30 10 -36 38 -9 34 -40 70 -60 70 -6 0 -23 -14 -39 -31 -16 -17 -29 -26 -29 -20 0 6 -13 11 -30 11 -29 0 -30 2 -30 44 0 45 -14 66 -31 49 -5 -5 -10 -49 -10 -96 -1 -89 -13 -117 -22 -49 -3 20 -5 104 -6 185 0 82 -5 154 -10 161 -5 6 -11 29 -14 51 -4 40 -4 40 -5 -7 -1 -27 -6 -48 -11 -48 -4 0 -8 -21 -8 -47 0 -27 -1 -112 -2 -190 l-2 -143 -83 0 -83 0 -6 61 c-3 33 -8 63 -11 67 -8 7 -75 6 -83 -1 -2 -3 -7 -32 -10 -64 -5 -50 -8 -59 -26 -60 -11 -1 -23 -7 -27 -13 -4 -7 -27 -10 -56 -8 -47 3 -49 4 -49 33 -1 29 -3 30 -47 33 -35 2 -48 8 -53 22 -11 36 -65 31 -65 -6 0 -9 -12 -14 -34 -14 l-34 0 -6 58 c-3 31 -5 66 -4 77 3 53 -3 116 -10 111 -5 -3 -10 -60 -11 -126 -2 -132 -6 -150 -27 -150 -10 0 -14 15 -15 53 -3 74 -6 178 -8 206 0 13 -4 22 -7 19 -3 -3 -7 -66 -10 -139 -3 -105 -7 -135 -19 -142 -8 -4 -15 -19 -15 -32 0 -16 -6 -25 -15 -25 -10 0 -15 10 -15 30 0 19 -7 33 -20 40 -15 8 -20 21 -20 50 0 63 -57 99 -109 67 -22 -13 -26 -24 -29 -69 -3 -58 -27 -87 -69 -88 -21 0 -22 4 -20 73 l2 73 -52 -4 c-34 -3 -58 0 -68 8 -13 11 -15 6 -15 -34 l0 -46 -50 0 -50 0 0 34 c0 37 -9 44 -50 38 -21 -3 -26 -8 -23 -23 4 -14 0 -19 -16 -19 -16 0 -21 6 -21 28 0 15 -5 34 -10 42 -8 12 -10 12 -10 1 0 -10 -3 -11 -14 -2 -11 9 -19 9 -36 -1 -17 -11 -22 -11 -29 0 -12 19 -21 -8 -21 -61 0 -62 -9 -87 -32 -87 -11 0 -26 6 -34 14 -16 16 -19 46 -5 46 5 0 11 7 15 15 4 12 -3 15 -35 15 -37 0 -39 -1 -29 -21 6 -11 9 -30 7 -42 l-4 -22 -2 23 c-1 15 -7 22 -20 22 -14 0 -21 8 -23 27 -2 22 -8 28 -28 28 -20 0 -26 -6 -28 -28 -2 -19 -9 -27 -23 -27 -14 0 -19 -7 -19 -30 0 -23 -5 -30 -19 -30 -10 0 -21 -7 -25 -15 -3 -8 -15 -15 -26 -15 -11 0 -20 -7 -20 -15 0 -11 -13 -15 -54 -15 -54 0 -54 0 -60 35 l-7 35 -64 0 c-35 0 -72 3 -82 6 -17 5 -17 5 0 -9 9 -8 17 -26 17 -41 0 -25 -2 -26 -60 -26 -47 0 -60 3 -60 15 0 8 -9 15 -20 15 -11 0 -23 7 -26 15 -4 8 -15 15 -25 15 -14 0 -19 7 -19 30 0 23 -4 30 -20 30 -15 0 -20 7 -20 28 0 22 -4 27 -26 27 -19 0 -27 -6 -30 -25 -5 -24 -9 -25 -61 -22 l-55 4 7 -40 c8 -48 -15 -66 -34 -26 -11 25 -47 44 -83 44 -11 0 -35 -16 -53 -34 -18 -19 -35 -32 -39 -29 -3 4 -6 24 -6 45 l0 38 -51 0 -51 0 7 -40 7 -40 -51 0 c-44 0 -51 3 -51 20 0 13 -7 20 -18 20 -16 0 -19 9 -20 63 -2 100 -13 178 -24 171 -5 -4 -8 -15 -5 -25 3 -10 2 -21 -3 -24 -4 -2 -6 -34 -3 -70 2 -41 0 -65 -7 -65 -6 0 -8 -10 -4 -25 8 -32 -21 -36 -31 -4 -17 51 -114 53 -137 3 -22 -48 -35 -27 -37 63 -1 48 -6 92 -10 96 -19 19 -27 -4 -24 -67 2 -36 -1 -66 -5 -66 -5 0 -7 -11 -4 -25 2 -15 0 -25 -7 -25 -8 0 -11 66 -11 225 l0 225 -80 0 -80 0 0 -75z m3530 -91 c0 -8 -4 -14 -10 -14 -5 0 -10 9 -10 21 0 11 5 17 10 14 6 -3 10 -13 10 -21z m430 6 c0 -11 -4 -20 -10 -20 -5 0 -10 9 -10 20 0 11 5 20 10 20 6 0 10 -9 10 -20z m-1376 -191 c19 -15 26 -30 26 -54 l0 -34 -29 17 c-36 20 -77 6 -84 -30 -2 -13 -5 0 -6 29 -1 45 3 54 25 72 15 12 30 21 34 21 4 0 19 -9 34 -21z m-747 -96 c-3 -10 -5 -4 -5 12 0 17 2 24 5 18 2 -7 2 -21 0 -30z m731 15 c7 -7 12 -38 12 -70 0 -58 0 -58 -30 -58 l-30 0 0 64 c0 59 5 72 31 75 3 1 10 -4 17 -11z m72 -84 c0 -24 -4 -44 -10 -44 -5 0 -10 23 -10 51 0 31 4 48 10 44 6 -3 10 -26 10 -51z m-33 -21 c-2 -16 -4 -5 -4 22 0 28 2 40 4 28 2 -13 2 -35 0 -50z m-127 12 c0 -24 -5 -35 -15 -35 -15 0 -22 50 -8 63 15 15 23 5 23 -28z m17 -17 c-2 -13 -4 -5 -4 17 -1 22 1 32 4 23 2 -10 2 -28 0 -40z"/>
<path d="M3881 1285 c-1 -11 -4 -30 -7 -42 -5 -17 -2 -23 9 -23 21 0 31 18 19 33 -5 7 -12 21 -15 32 l-5 20 -1 -20z"/>
<path d="M4171 1285 c-1 -11 -4 -30 -7 -42 -5 -17 -2 -23 9 -23 18 0 29 24 17 36 -4 5 -10 18 -13 29 l-5 20 -1 -20z"/>
<path d="M494 1269 c-3 -6 -1 -16 5 -22 8 -8 11 -5 11 11 0 24 -5 28 -16 11z"/>
<path d="M3570 1226 c0 -16 7 -25 23 -29 12 -2 30 -8 40 -12 14 -6 17 -2 17 19 0 19 -5 26 -19 26 -11 0 -23 5 -26 10 -12 19 -35 10 -35 -14z"/>
<path d="M1790 1026 c0 -2 7 -6 15 -10 8 -3 15 -1 15 4 0 6 -7 10 -15 10 -8 0 -15 -2 -15 -4z"/>
</g>
</svg>