<?xml version="1.0" encoding="utf-8"?>
<!-- Generator: Adobe Illustrator 27.5.0, SVG Export Plug-In . SVG Version: 6.00 Build 0)  -->
<svg version="1.1" xmlns="http://www.w3.org/2000/svg" xmlns:xlink="http://www.w3.org/1999/xlink" x="0px" y="0px"
	 viewBox="0 0 500 500" style="enable-background:new 0 0 500 500;" xml:space="preserve">
<g id="Background_Simple">
	<g>
		<path style="fill:#C6FF00;" d="M408,128c0,0-24-54-77-62c-53-8-90,31-129,51c-20.424,10.474-43.752,6.406-65.433,11.475
			C67.238,144.685,41.122,246.244,70,304c25,50,69,76,136,82c67,6,114,13,174-36S436,199,408,128z"/>
		<path style="opacity:0.7;fill:#FFFFFF;" d="M408,128c0,0-24-54-77-62c-53-8-90,31-129,51
			c-20.424,10.474-43.752,6.406-65.433,11.475C67.238,144.685,41.122,246.244,70,304c25,50,69,76,136,82c67,6,114,13,174-36
			S436,199,408,128z"/>
	</g>
</g>
<g id="Wall">
	<g>
		<polyline style="fill:none;stroke:#263238;stroke-linecap:round;stroke-linejoin:round;stroke-miterlimit:10;" points="
			393,197.333 393,206 428.333,206 		"/>
		<polyline style="fill:none;stroke:#263238;stroke-linecap:round;stroke-linejoin:round;stroke-miterlimit:10;" points="
			410.333,208 410.333,218 388.333,218 		"/>
		<polyline style="fill:none;stroke:#263238;stroke-linecap:round;stroke-linejoin:round;stroke-miterlimit:10;" points="
			393.667,221.333 393.667,229.333 422.333,229.333 		"/>
		
			<line style="fill:none;stroke:#263238;stroke-linecap:round;stroke-linejoin:round;stroke-miterlimit:10;" x1="419.667" y1="218.667" x2="435.667" y2="218.667"/>
		
			<line style="fill:none;stroke:#263238;stroke-linecap:round;stroke-linejoin:round;stroke-miterlimit:10;" x1="410.333" y1="233.333" x2="410.333" y2="244.667"/>
		
			<line style="fill:none;stroke:#263238;stroke-linecap:round;stroke-linejoin:round;stroke-miterlimit:10;" x1="432.333" y1="204.667" x2="432.333" y2="196"/>
		
			<line style="fill:none;stroke:#263238;stroke-linecap:round;stroke-linejoin:round;stroke-miterlimit:10;" x1="411.667" y1="193.333" x2="411.667" y2="184"/>
		
			<line style="fill:none;stroke:#263238;stroke-linecap:round;stroke-linejoin:round;stroke-miterlimit:10;" x1="423.667" y1="194.667" x2="444.333" y2="194.667"/>
		<polyline style="fill:none;stroke:#263238;stroke-linecap:round;stroke-linejoin:round;stroke-miterlimit:10;" points="
			355.667,102.667 355.667,111.333 391,111.333 		"/>
		<polyline style="fill:none;stroke:#263238;stroke-linecap:round;stroke-linejoin:round;stroke-miterlimit:10;" points="
			373,113.333 373,123.333 351,123.333 		"/>
		<polyline style="fill:none;stroke:#263238;stroke-linecap:round;stroke-linejoin:round;stroke-miterlimit:10;" points="
			356.333,126.667 356.333,134.667 385,134.667 		"/>
		
			<line style="fill:none;stroke:#263238;stroke-linecap:round;stroke-linejoin:round;stroke-miterlimit:10;" x1="382.333" y1="124" x2="398.333" y2="124"/>
		
			<line style="fill:none;stroke:#263238;stroke-linecap:round;stroke-linejoin:round;stroke-miterlimit:10;" x1="373" y1="138.667" x2="373" y2="150"/>
		
			<line style="fill:none;stroke:#263238;stroke-linecap:round;stroke-linejoin:round;stroke-miterlimit:10;" x1="395" y1="110" x2="395" y2="101.333"/>
		
			<line style="fill:none;stroke:#263238;stroke-linecap:round;stroke-linejoin:round;stroke-miterlimit:10;" x1="374.333" y1="98.667" x2="374.333" y2="89.333"/>
		
			<line style="fill:none;stroke:#263238;stroke-linecap:round;stroke-linejoin:round;stroke-miterlimit:10;" x1="386.333" y1="100" x2="407" y2="100"/>
		<polyline style="fill:none;stroke:#263238;stroke-linecap:round;stroke-linejoin:round;stroke-miterlimit:10;" points="
			251.667,322 251.667,330.667 287,330.667 		"/>
		<polyline style="fill:none;stroke:#263238;stroke-linecap:round;stroke-linejoin:round;stroke-miterlimit:10;" points="
			269,332.667 269,342.667 247,342.667 		"/>
		<polyline style="fill:none;stroke:#263238;stroke-linecap:round;stroke-linejoin:round;stroke-miterlimit:10;" points="
			252.333,346 252.333,354 281,354 		"/>
		
			<line style="fill:none;stroke:#263238;stroke-linecap:round;stroke-linejoin:round;stroke-miterlimit:10;" x1="278.333" y1="343.333" x2="294.333" y2="343.333"/>
		
			<line style="fill:none;stroke:#263238;stroke-linecap:round;stroke-linejoin:round;stroke-miterlimit:10;" x1="269" y1="358" x2="269" y2="369.333"/>
		
			<line style="fill:none;stroke:#263238;stroke-linecap:round;stroke-linejoin:round;stroke-miterlimit:10;" x1="291" y1="329.333" x2="291" y2="320.667"/>
		
			<line style="fill:none;stroke:#263238;stroke-linecap:round;stroke-linejoin:round;stroke-miterlimit:10;" x1="270.333" y1="318" x2="270.333" y2="308.667"/>
		
			<line style="fill:none;stroke:#263238;stroke-linecap:round;stroke-linejoin:round;stroke-miterlimit:10;" x1="282.333" y1="319.333" x2="303" y2="319.333"/>
		<polyline style="fill:none;stroke:#263238;stroke-linecap:round;stroke-linejoin:round;stroke-miterlimit:10;" points="
			95.667,284.667 95.667,293.333 131,293.333 		"/>
		<polyline style="fill:none;stroke:#263238;stroke-linecap:round;stroke-linejoin:round;stroke-miterlimit:10;" points="
			113,295.333 113,305.333 91,305.333 		"/>
		<polyline style="fill:none;stroke:#263238;stroke-linecap:round;stroke-linejoin:round;stroke-miterlimit:10;" points="
			96.333,308.667 96.333,316.667 125,316.667 		"/>
		
			<line style="fill:none;stroke:#263238;stroke-linecap:round;stroke-linejoin:round;stroke-miterlimit:10;" x1="122.333" y1="306" x2="138.333" y2="306"/>
		
			<line style="fill:none;stroke:#263238;stroke-linecap:round;stroke-linejoin:round;stroke-miterlimit:10;" x1="113" y1="320.667" x2="113" y2="332"/>
		
			<line style="fill:none;stroke:#263238;stroke-linecap:round;stroke-linejoin:round;stroke-miterlimit:10;" x1="135" y1="292" x2="135" y2="283.333"/>
		
			<line style="fill:none;stroke:#263238;stroke-linecap:round;stroke-linejoin:round;stroke-miterlimit:10;" x1="114.333" y1="280.667" x2="114.333" y2="271.333"/>
		
			<line style="fill:none;stroke:#263238;stroke-linecap:round;stroke-linejoin:round;stroke-miterlimit:10;" x1="126.333" y1="282" x2="147" y2="282"/>
		<polyline style="fill:none;stroke:#263238;stroke-linecap:round;stroke-linejoin:round;stroke-miterlimit:10;" points="293,346 
			293,354.667 328.333,354.667 		"/>
		<polyline style="fill:none;stroke:#263238;stroke-linecap:round;stroke-linejoin:round;stroke-miterlimit:10;" points="
			310.333,356.667 310.333,366.667 288.333,366.667 		"/>
		<polyline style="fill:none;stroke:#263238;stroke-linecap:round;stroke-linejoin:round;stroke-miterlimit:10;" points="
			293.667,370 293.667,378 322.333,378 		"/>
		
			<line style="fill:none;stroke:#263238;stroke-linecap:round;stroke-linejoin:round;stroke-miterlimit:10;" x1="319.667" y1="367.333" x2="335.667" y2="367.333"/>
		
			<line style="fill:none;stroke:#263238;stroke-linecap:round;stroke-linejoin:round;stroke-miterlimit:10;" x1="310.333" y1="382" x2="310.333" y2="393.333"/>
		
			<line style="fill:none;stroke:#263238;stroke-linecap:round;stroke-linejoin:round;stroke-miterlimit:10;" x1="332.333" y1="353.333" x2="332.333" y2="344.667"/>
		
			<line style="fill:none;stroke:#263238;stroke-linecap:round;stroke-linejoin:round;stroke-miterlimit:10;" x1="311.667" y1="342" x2="311.667" y2="332.667"/>
		
			<line style="fill:none;stroke:#263238;stroke-linecap:round;stroke-linejoin:round;stroke-miterlimit:10;" x1="323.667" y1="343.333" x2="344.333" y2="343.333"/>
		<polyline style="fill:none;stroke:#263238;stroke-linecap:round;stroke-linejoin:round;stroke-miterlimit:10;" points="
			163.667,346 163.667,354.667 199,354.667 		"/>
		<polyline style="fill:none;stroke:#263238;stroke-linecap:round;stroke-linejoin:round;stroke-miterlimit:10;" points="
			181,356.667 181,366.667 159,366.667 		"/>
		<polyline style="fill:none;stroke:#263238;stroke-linecap:round;stroke-linejoin:round;stroke-miterlimit:10;" points="
			164.333,370 164.333,378 193,378 		"/>
		
			<line style="fill:none;stroke:#263238;stroke-linecap:round;stroke-linejoin:round;stroke-miterlimit:10;" x1="190.333" y1="367.333" x2="206.333" y2="367.333"/>
		
			<line style="fill:none;stroke:#263238;stroke-linecap:round;stroke-linejoin:round;stroke-miterlimit:10;" x1="181" y1="382" x2="181" y2="393.333"/>
		
			<line style="fill:none;stroke:#263238;stroke-linecap:round;stroke-linejoin:round;stroke-miterlimit:10;" x1="203" y1="353.333" x2="203" y2="344.667"/>
		
			<line style="fill:none;stroke:#263238;stroke-linecap:round;stroke-linejoin:round;stroke-miterlimit:10;" x1="182.333" y1="342" x2="182.333" y2="332.667"/>
		
			<line style="fill:none;stroke:#263238;stroke-linecap:round;stroke-linejoin:round;stroke-miterlimit:10;" x1="194.333" y1="343.333" x2="215" y2="343.333"/>
		<polyline style="fill:none;stroke:#263238;stroke-linecap:round;stroke-linejoin:round;stroke-miterlimit:10;" points="
			71.667,197.333 71.667,206 107,206 		"/>
		<polyline style="fill:none;stroke:#263238;stroke-linecap:round;stroke-linejoin:round;stroke-miterlimit:10;" points="89,208 
			89,218 67,218 		"/>
		<polyline style="fill:none;stroke:#263238;stroke-linecap:round;stroke-linejoin:round;stroke-miterlimit:10;" points="
			72.333,221.333 72.333,229.333 101,229.333 		"/>
		
			<line style="fill:none;stroke:#263238;stroke-linecap:round;stroke-linejoin:round;stroke-miterlimit:10;" x1="98.333" y1="218.667" x2="114.333" y2="218.667"/>
		
			<line style="fill:none;stroke:#263238;stroke-linecap:round;stroke-linejoin:round;stroke-miterlimit:10;" x1="89" y1="233.333" x2="89" y2="244.667"/>
		
			<line style="fill:none;stroke:#263238;stroke-linecap:round;stroke-linejoin:round;stroke-miterlimit:10;" x1="111" y1="204.667" x2="111" y2="196"/>
		
			<line style="fill:none;stroke:#263238;stroke-linecap:round;stroke-linejoin:round;stroke-miterlimit:10;" x1="90.333" y1="193.333" x2="90.333" y2="184"/>
		
			<line style="fill:none;stroke:#263238;stroke-linecap:round;stroke-linejoin:round;stroke-miterlimit:10;" x1="102.333" y1="194.667" x2="123" y2="194.667"/>
		<polyline style="fill:none;stroke:#263238;stroke-linecap:round;stroke-linejoin:round;stroke-miterlimit:10;" points="
			129.667,118 129.667,126.667 165,126.667 		"/>
		<polyline style="fill:none;stroke:#263238;stroke-linecap:round;stroke-linejoin:round;stroke-miterlimit:10;" points="
			147,128.667 147,138.667 125,138.667 		"/>
		<polyline style="fill:none;stroke:#263238;stroke-linecap:round;stroke-linejoin:round;stroke-miterlimit:10;" points="
			130.333,142 130.333,150 159,150 		"/>
		
			<line style="fill:none;stroke:#263238;stroke-linecap:round;stroke-linejoin:round;stroke-miterlimit:10;" x1="156.333" y1="139.333" x2="172.333" y2="139.333"/>
		
			<line style="fill:none;stroke:#263238;stroke-linecap:round;stroke-linejoin:round;stroke-miterlimit:10;" x1="147" y1="154" x2="147" y2="165.333"/>
		
			<line style="fill:none;stroke:#263238;stroke-linecap:round;stroke-linejoin:round;stroke-miterlimit:10;" x1="169" y1="125.333" x2="169" y2="116.667"/>
		
			<line style="fill:none;stroke:#263238;stroke-linecap:round;stroke-linejoin:round;stroke-miterlimit:10;" x1="148.333" y1="114" x2="148.333" y2="104.667"/>
		
			<line style="fill:none;stroke:#263238;stroke-linecap:round;stroke-linejoin:round;stroke-miterlimit:10;" x1="160.333" y1="115.333" x2="181" y2="115.333"/>
		<polyline style="fill:none;stroke:#263238;stroke-linecap:round;stroke-linejoin:round;stroke-miterlimit:10;" points="
			351,264.667 351,273.333 386.333,273.333 		"/>
		<polyline style="fill:none;stroke:#263238;stroke-linecap:round;stroke-linejoin:round;stroke-miterlimit:10;" points="
			368.333,275.333 368.333,285.333 346.333,285.333 		"/>
		<polyline style="fill:none;stroke:#263238;stroke-linecap:round;stroke-linejoin:round;stroke-miterlimit:10;" points="
			351.667,288.667 351.667,296.667 380.333,296.667 		"/>
		
			<line style="fill:none;stroke:#263238;stroke-linecap:round;stroke-linejoin:round;stroke-miterlimit:10;" x1="377.667" y1="286" x2="393.667" y2="286"/>
		
			<line style="fill:none;stroke:#263238;stroke-linecap:round;stroke-linejoin:round;stroke-miterlimit:10;" x1="368.333" y1="300.667" x2="368.333" y2="312"/>
		
			<line style="fill:none;stroke:#263238;stroke-linecap:round;stroke-linejoin:round;stroke-miterlimit:10;" x1="390.333" y1="272" x2="390.333" y2="263.333"/>
		
			<line style="fill:none;stroke:#263238;stroke-linecap:round;stroke-linejoin:round;stroke-miterlimit:10;" x1="369.667" y1="260.667" x2="369.667" y2="251.333"/>
		
			<line style="fill:none;stroke:#263238;stroke-linecap:round;stroke-linejoin:round;stroke-miterlimit:10;" x1="381.667" y1="262" x2="402.333" y2="262"/>
		
			<line style="fill:none;stroke:#263238;stroke-linecap:round;stroke-linejoin:round;stroke-miterlimit:10;" x1="88" y1="400" x2="428" y2="400"/>
	</g>
</g>
<g id="Shadow">
	<g>
		<ellipse style="fill:#C6FF00;" cx="155.333" cy="417" rx="54.333" ry="17"/>
		<ellipse style="opacity:0.5;fill:#FFFFFF;" cx="155.333" cy="417" rx="54.333" ry="17"/>
	</g>
</g>
<g id="Character">
	<g>
		<polygon style="fill:#C6FF00;stroke:#263238;stroke-miterlimit:10;" points="167.96,89.333 167.96,313.333 363.96,313.333 
			363.96,82 213.293,82 		"/>
		<path style="fill:#FFFFFF;stroke:#263238;stroke-width:5;stroke-linecap:round;stroke-linejoin:round;stroke-miterlimit:10;" d="
			M341.228,226.983c0-4.218-3.346-7.646-7.527-7.797c-0.165,0.052-0.337,0.088-0.519,0.088c-0.199,0-0.387-0.04-0.565-0.103h-0.138
			v-0.051c-0.599-0.269-1.018-0.868-1.018-1.568c0-0.699,0.419-1.299,1.018-1.568v-0.034h0.085c0.192-0.074,0.399-0.119,0.618-0.119
			c0.183,0,0.355,0.036,0.521,0.089c4.184-0.307,7.485-3.791,7.485-8.053v-1.859c0-4.464-3.619-8.083-8.083-8.083v-0.009
			c-0.913-0.042-1.643-0.789-1.643-1.713s0.73-1.672,1.643-1.713v-0.001c0.008,0,0.015-0.001,0.022-0.001
			c0.019-0.001,0.037-0.006,0.056-0.006c0.006,0,0.012,0.002,0.019,0.002c4.096-0.052,7.402-3.385,7.402-7.494v-3.437
			c0-4.141-3.357-7.499-7.499-7.499h-46.555c0,0,0.937-6.874,2.187-11.561c1.25-4.687,6.874-11.561,7.811-19.997
			c0.937-8.436-5.312-24.684-12.811-26.246c-7.499-1.562-9.061,4.374-8.749,12.81c0.312,8.436-11.248,23.434-19.06,31.245
			s-17.408,20.476-17.408,20.476l0.535,59.825c0,0,0,0,9.686,4.687c9.686,4.687,20.934,4.999,20.934,4.999h58.324
			c3.451,0,6.249-2.798,6.249-6.249v-1.562c0-3.451-1.186-5.371-3.645-6.249v-0.02c-0.864-0.092-1.539-0.815-1.539-1.703
			c0-0.888,0.675-1.61,1.539-1.703v-0.012h0.115c0.023-0.001,0.044-0.007,0.067-0.007c0.023,0,0.044,0.006,0.067,0.007h2.563
			C337.731,234.795,341.228,231.298,341.228,226.983z"/>
		<g>
			<path style="fill:#263238;" d="M233.889,255h-29.66c-3.544,0-6.417-2.873-6.417-6.417v-66.842c0-3.544,2.873-6.417,6.417-6.417
				h29.66c3.544,0,6.417,2.873,6.417,6.417v66.842C240.306,252.127,237.433,255,233.889,255z"/>
		</g>
		<path style="fill:#FFFFFF;stroke:#263238;stroke-linecap:round;stroke-linejoin:round;stroke-miterlimit:10;" d="M200.96,192
			l-10.667-31.667c0,0-1-4-1-5.333s5.31-8.989,5.31-8.989s-1.245-3.579,0.778-4.201c2.023-0.622,6.69,3.89,7.157,4.668
			c0.467,0.778,0.311,2.334-0.311,3.734c-0.622,1.4-4.823,10.113-5.446,10.58c-0.622,0.467,7.313,13.848,12.603,21.316
			c5.29,7.468,9.958,14.314,8.869,17.271c-1.089,2.956-6.068,0.622-9.802-1.089c-3.734-1.711-7.468-5.601-7.468-5.601L200.96,192z"
			/>
		
			<line style="fill:none;stroke:#263238;stroke-linecap:round;stroke-linejoin:round;stroke-miterlimit:10;" x1="196.315" y1="145.389" x2="198.46" y2="147"/>
		<path style="fill:#FFFFFF;stroke:#263238;stroke-linecap:round;stroke-linejoin:round;stroke-miterlimit:10;" d="M120.346,262.869
			c0,0,1.951,6.03,7.618,7.364C133.63,271.565,148.627,253,148.627,253l0.667-5.667L126.627,250
			C126.627,250,119.346,254.202,120.346,262.869z"/>
		<path style="fill:#FFFFFF;stroke:#263238;stroke-miterlimit:10;" d="M205.293,84.667c0,0-4.667,10.333-4.667,11.333
			s0.124,1.581,2.089,1.952c2.075,0.392,20.438,3.933,23.911,3.048c2.541-0.648,4.667-13.333,4.667-13.333s-4-1-6.333-1
			c-2.333,0-8.667-0.667-8.667-0.667l-2.667,2.333l1-3l-4-0.667l-1,2.333l-0.667-2.667L205.293,84.667z"/>
		<path style="fill:#263238;stroke:#263238;stroke-miterlimit:10;" d="M226.627,101c1.037-0.264,2.005-2.535,2.787-5.129
			l-27.581-3.245c-0.689,1.674-1.206,3.041-1.206,3.374c0,1,0.124,1.581,2.089,1.952C204.79,98.344,223.153,101.885,226.627,101z"/>
		<g>
			<path style="fill:#263238;stroke:#263238;stroke-miterlimit:10;" d="M125.543,310.417c-0.194,0-0.392-0.038-0.582-0.118
				c-0.763-0.321-1.121-1.201-0.799-1.965l89-211c0.322-0.763,1.202-1.12,1.965-0.799c0.763,0.322,1.121,1.202,0.799,1.965l-89,211
				C126.684,310.073,126.127,310.417,125.543,310.417z"/>
		</g>
		<path style="fill:#FFFFFF;stroke:#263238;stroke-linecap:round;stroke-linejoin:round;stroke-miterlimit:10;" d="M191.21,163
			c0,0-2-4.75-1.119-12.321c0.262-2.25,2.645-5.29,2.801-6.379c0.156-1.089-0.778-2.334,0.622-2.334s2.801,1.867,2.801,3.423
			c0,1.556-1.089,4.045-0.934,4.668c0.156,0.622-0.156,2.956-0.156,2.956"/>
		<path style="fill:#FFFFFF;stroke:#263238;stroke-linecap:round;stroke-linejoin:round;stroke-miterlimit:10;" d="M167.509,159.21
			c0,0,4.499,4.859,5.038,6.118c0.54,1.26,0.36,3.959,0.36,4.499s1.44,1.26,1.799,2.339c0.36,1.08,2.879,8.457,2.879,9.537
			c0,1.08-1.619,2.519-3.239,3.239c-1.62,0.72-3.599,1.62-3.599,1.62l-0.54,5.758l-14.036,2.159l-1.62-6.118
			c0,0,4.499-1.26,5.038-5.218c0.54-3.959-5.578-9.537-4.139-15.835C156.892,161.009,163.37,157.77,167.509,159.21z"/>
		<g>
			<path style="fill:#263238;stroke:#263238;stroke-linecap:round;stroke-linejoin:round;stroke-miterlimit:10;" d="M166.429,159.57
				c0,0-1.26,3.599-1.26,5.218c0,1.62,3.779,1.26,3.779,3.239c0,1.979-1.439,4.678-1.439,4.678s1.979,1.979,1.62,3.059
				c-0.36,1.08-1.979,2.159-2.519,0.9c-0.54-1.26-2.879-0.72-1.979,1.799c0.9,2.519,2.699,4.319,2.699,4.319
				s-0.72,2.519-3.419,5.218c-2.699,2.699-6.838,3.599-7.918,2.879c-1.08-0.72-7.018-5.398-10.077-9.717
				c-3.059-4.319-5.758-10.977-3.059-17.814c2.699-6.838,8.997-8.637,10.797-8.997c1.799-0.36-3.059-0.9-1.26-3.419
				c1.799-2.519,6.838-4.319,9.717-2.879c2.879,1.44,1.979,3.239,3.599,3.779c1.619,0.54,3.239-2.159,4.858,0.18
				C172.188,154.352,173.987,161.729,166.429,159.57z"/>
			<path style="fill:none;stroke:#FFFFFF;stroke-linecap:round;stroke-linejoin:round;stroke-miterlimit:10;" d="M165.17,164.788
				c0,0-0.667,7.845-4.904,12.611c-4.237,4.767-11.652,5.826-11.652,5.826"/>
			<path style="fill:none;stroke:#FFFFFF;stroke-linecap:round;stroke-linejoin:round;stroke-miterlimit:10;" d="M154.553,188.361
				c0,0,4.124,0.161,8.89-4.076"/>
		</g>
		<path style="fill:#FFFFFF;stroke:#263238;stroke-linecap:round;stroke-linejoin:round;stroke-miterlimit:10;" d="M168.589,178.104
			c0,0-2.699-4.319-4.139-2.699c-1.44,1.619,0.36,6.478,2.879,7.378c2.519,0.9,3.419-0.72,3.419-0.72"/>
		<path style="fill:#FFFFFF;stroke:#263238;stroke-linecap:round;stroke-linejoin:round;stroke-miterlimit:10;" d="M148.435,198.258
			c0,0,0.9-3.959,2.699-5.218c1.799-1.26,15.115-2.699,18.714-3.059c3.599-0.36,7.378,1.799,7.378,1.799l1.799,3.059
			L148.435,198.258z"/>
		<path style="fill:#FFFFFF;stroke:#263238;stroke-linecap:round;stroke-linejoin:round;stroke-miterlimit:10;" d="M121.96,248.667
			c0,0-3.667,4-4.333,6c-0.667,2-1,6.333,2.667,9c3.667,2.667,9.333,3.333,12,2c2.667-1.333,4.333-4,4.333-8.333
			c0-4.333-1.333-7-1.333-7S126.627,245,121.96,248.667z"/>
		<path style="fill:#FFFFFF;stroke:#263238;stroke-linecap:round;stroke-linejoin:round;stroke-miterlimit:10;" d="M196.627,194.667
			c0,0,2.667-4.667,7.667-5c5-0.333,7.667,0.333,11.333,3.667c3.667,3.333,6.333,8.333,4.333,11.667s-4,5-8,5.333
			c-4,0.333-8-4.333-8-4.333L196.627,194.667z"/>
		<path style="fill:#FFFFFF;stroke:#263238;stroke-linecap:round;stroke-linejoin:round;stroke-miterlimit:10;" d="M172.293,404.333
			c0,0,10.667-0.667,12.667,2c2,2.667,0.828,6.595-6.325,10.569c-6.236,3.464-20.486,6.968-25.275,6.041
			c-5.602-1.085-2.4-11.276-2.4-11.276S166.293,412.333,172.293,404.333z"/>
		<path style="fill:#263238;stroke:#263238;stroke-linecap:round;stroke-linejoin:round;stroke-miterlimit:10;" d="M184.842,406.2
			c-0.654,2.013-1.951,4.807-4.459,7.046c-4.451,3.974-14.783,6.517-21.301,7.471c-4.07,0.596-7.086-0.235-8.777-0.942
			c0.388,1.561,1.278,2.823,3.055,3.168c4.789,0.928,19.039-2.576,25.275-6.041c7.153-3.974,8.325-7.902,6.325-10.569
			C184.925,406.287,184.882,406.244,184.842,406.2z"/>
		<path style="fill:#FFFFFF;stroke:#263238;stroke-linecap:round;stroke-linejoin:round;stroke-miterlimit:10;" d="M121.293,407.333
			c0,0-1.333,6,0.333,8.667c1.667,2.667,10.667,4,14,2.333c3.333-1.667,4.333-6,4.333-10S134.293,412.667,121.293,407.333z"/>
		<path style="fill:#263238;stroke:#263238;stroke-linecap:round;stroke-linejoin:round;stroke-miterlimit:10;" d="M120.842,413.176
			c0.091,1.066,0.317,2.077,0.785,2.824c1.667,2.667,10.667,4,14,2.333c1.423-0.712,2.418-1.911,3.094-3.362
			C128.975,418.388,123.183,415.103,120.842,413.176z"/>
		<g>
			<path style="fill:#263238;stroke:#263238;stroke-linecap:round;stroke-linejoin:round;stroke-miterlimit:10;" d="
				M140.293,265.667c0,0-2.333,12.333-2,14.667c0.333,2.333,1.333,8,1.333,8s-8,47.667-8.667,59.333
				c-0.667,11.667-5.333,32.333-6.667,40c-1.333,7.667-2,15-4,18s2.667,5.333,5,6.667c2.333,1.333,11.667-0.333,13-1
				c1.333-0.667,2.333-4.667,2.667-7.667s7.667-21.667,9-33.667s9.667-56,10.333-59.333c0.667-3.333,2.333-13,2.333-13
				s-2.333,40.333-2.667,51c-0.333,10.667-6,24.333-7,33.667c-1,9.333-2.333,17.667-2.333,21.333c0,3.667-1,10.333,1,11.667
				c2,1.333,5.667,0.333,11.333-1.333s9.333-5.333,9.667-8c0.333-2.667,1-4,1-5.667c0-1.667,6.333-36.667,10.333-55
				c4-18.333,6.667-42.667,4.333-56.667c-2.333-14-2.333-25-2.333-25S155.293,272,140.293,265.667z"/>
			
				<line style="fill:none;stroke:#FFFFFF;stroke-linecap:round;stroke-linejoin:round;stroke-miterlimit:10;" x1="162.627" y1="297.667" x2="152.96" y2="291.333"/>
		</g>
		<g>
			<path style="fill:#FFFFFF;stroke:#263238;stroke-linecap:round;stroke-linejoin:round;stroke-miterlimit:10;" d="M149.96,197.333
				c0,0-21.333,6-22,11.667s-5,28.667-6,35.333c-1,6.667-3.667,12.333,0.667,15.667c4.333,3.333,10.333,1,11.667-1.667
				c1.333-2.667,4-9,4-9s0.667,13,0.667,15s0.333,5,7,5.667s20,1.333,26.333-0.333c6.333-1.667,13-2,13.667-6s-1.333-17.333,0-25
				c1.333-7.667,2.333-20,2.333-20s23.667-9.667,27.333-11c3.667-1.333-0.333-10.667-4.333-13c-4-2.333-8.333-2.333-13.667-1.333
				c-5.333,1-12-0.333-15.333-0.333C178.96,193,149.96,197.333,149.96,197.333z"/>
			<polyline style="fill:none;stroke:#263238;stroke-linecap:round;stroke-linejoin:round;stroke-miterlimit:10;" points="
				190.293,202.333 188.293,218.667 194.627,204.333 			"/>
			
				<line style="fill:none;stroke:#263238;stroke-linecap:round;stroke-linejoin:round;stroke-miterlimit:10;" x1="138.293" y1="249.333" x2="135.293" y2="219.667"/>
			
				<line style="fill:none;stroke:#263238;stroke-linecap:round;stroke-linejoin:round;stroke-miterlimit:10;" x1="135.627" y1="228" x2="130.293" y2="215.333"/>
			<path style="fill:none;stroke:#263238;stroke-linecap:round;stroke-linejoin:round;stroke-miterlimit:10;" d="M184.96,236.333
				c0,0-4.667,16.333-15,22.667"/>
			<path style="fill:none;stroke:#263238;stroke-linecap:round;stroke-linejoin:round;stroke-miterlimit:10;" d="M174.96,251
				c0,0-4.667,5-14.667,10"/>
		</g>
		<path style="fill:#FFFFFF;stroke:#263238;stroke-miterlimit:10;" d="M167.96,89.333l4,19.333c0,0,20-14,44-21.333
			c24-7.333,47.757-5.412,47.757-5.412S217.96,76,197.96,80.667C177.96,85.333,167.96,89.333,167.96,89.333z"/>
	</g>
</g>
<g id="Plants">
	<path style="fill:#263238;" d="M339.236,265.703c-0.492-2.05,0.719-4.23,2.897-4.525c3.023-0.408,6.738,3.65,7.914,6.107
		c0.101,0.213,1.308,3.716,1.252,3.718c-0.004,0-5.359,0.121-7.548-0.836C341.886,269.353,339.738,267.797,339.236,265.703z
		 M416.915,256.385c-0.445,2.107-2.551,3.72-4.393,4.585c-1.887,0.886-6.204,1.017-7.275,1.036
		c-0.583,0.689-1.198,1.432-1.859,2.268c-1.152,1.48-2.439,3.161-3.715,5.083c-0.341,0.511-0.687,1.075-1.033,1.615
		c0.771-0.79,1.845-1.859,1.961-1.951c2.13-1.698,7.245-3.726,9.786-2.039c1.831,1.216,1.969,3.706,0.631,5.336
		c-1.366,1.664-3.979,2.126-6.012,2.045c-2.121-0.085-6.102-2.018-6.968-2.45c-0.747,1.208-1.486,2.467-2.18,3.825
		c-1.203,2.341-2.361,4.9-3.2,7.65c0.085,0.044,0.07,0.036,0.155,0.08c0.623-0.816,1.97-2.498,2.097-2.624
		c1.931-1.922,6.791-4.499,9.503-3.101c1.954,1.007,2.364,3.467,1.213,5.234c-1.175,1.805-3.721,2.551-5.751,2.693
		c-2.339,0.164-7.177-1.662-7.359-1.731c-0.752,2.576-1.328,5.279-1.758,8.057c-0.315,2.013-0.551,4.065-0.769,6.125
		c0.422-0.584,2.189-2.795,2.335-2.94c1.931-1.922,6.792-4.499,9.503-3.101c1.954,1.007,2.364,3.467,1.213,5.234
		c-1.175,1.805-3.721,2.551-5.751,2.693c-2.284,0.16-6.927-1.568-7.318-1.715c-0.099,0.936-0.201,1.87-0.292,2.809
		c-0.299,3.065-0.585,6.138-0.96,9.163c-0.13,1.048-0.297,2.076-0.459,3.106c0.66-0.856,1.89-2.391,2.011-2.51
		c1.931-1.922,6.792-4.499,9.503-3.101c1.953,1.008,2.364,3.467,1.213,5.234c-1.175,1.805-3.721,2.55-5.751,2.693
		c-2.039,0.143-5.975-1.226-7.078-1.627c-0.283,1.712-0.601,3.405-0.994,5.056c-0.185,0.708-0.328,1.443-0.544,2.113
		c-0.203,0.68-0.404,1.353-0.604,2.019c-0.461,1.364-0.884,2.633-1.346,3.891c-0.229,0.638-0.459,1.234-0.689,1.851
		c0.539-0.967,1.417-2.486,1.512-2.615c1.617-2.192,6.032-5.476,8.923-4.505c2.084,0.7,2.862,3.069,1.992,4.99
		c-0.888,1.962-3.292,3.085-5.277,3.533c-2.188,0.494-6.884-0.46-7.458-0.58c-0.571,1.506-1.141,2.968-1.7,4.325
		c-1.758,4.3-3.385,7.814-4.559,10.259c-0.066,0.138-0.126,0.261-0.19,0.392h8.554l-2.952,57.602
		c-0.224,4.378-3.839,7.812-8.223,7.812l0,0c-4.383,0-7.999-3.434-8.223-7.812l-2.952-57.602h9.181
		c-0.043-0.398-0.089-0.821-0.144-1.293c-0.307-2.662-0.8-6.466-1.599-10.996c-0.227-1.307-0.49-2.689-0.774-4.106
		c-0.592,0.079-5.335,0.677-7.478,0.022c-1.946-0.595-4.259-1.894-4.999-3.917c-0.724-1.98,0.229-4.285,2.358-4.827
		c2.957-0.753,7.114,2.851,8.563,5.157c0.093,0.148,0.993,2.016,1.433,2.98c-0.175-0.856-0.345-1.706-0.543-2.594
		c-0.273-1.279-0.604-2.622-0.916-3.926c-0.187-0.67-0.376-1.346-0.567-2.03c-0.178-0.694-0.432-1.333-0.647-2.012
		c-0.337-0.987-0.734-1.988-1.129-2.987c-1.286,0.357-5.077,1.338-7.027,1.054c-2.013-0.293-4.497-1.227-5.534-3.114
		c-1.016-1.848-0.423-4.27,1.6-5.129c2.808-1.192,7.463,1.741,9.245,3.801c0.058,0.067,0.389,0.541,0.777,1.108
		c-0.415-0.964-0.825-1.929-1.278-2.892c-1.283-2.733-2.676-5.477-4.06-8.232c-0.289-0.574-0.568-1.152-0.854-1.727
		c-1.081,0.306-5.179,1.405-7.222,1.108c-2.013-0.293-4.497-1.227-5.534-3.114c-1.016-1.848-0.423-4.27,1.6-5.129
		c2.808-1.192,7.463,1.74,9.246,3.801c0.064,0.074,0.458,0.641,0.894,1.28c-0.731-1.507-1.44-3.02-2.097-4.542
		c-1.153-2.661-2.144-5.344-2.898-8.02c-0.38,0.112-5.159,1.498-7.43,1.167c-2.013-0.294-4.497-1.227-5.534-3.114
		c-1.016-1.848-0.423-4.27,1.6-5.129c2.808-1.192,7.463,1.741,9.245,3.801c0.126,0.146,1.539,2.209,2.019,2.963
		c-0.009-0.032-0.022-0.064-0.031-0.096c-0.766-2.816-1.15-5.598-1.385-8.255c-0.239-2.65-0.238-5.166-0.178-7.48
		c0.054-2.316,0.247-4.431,0.432-6.301c0.108-1.012,0.226-1.936,0.345-2.796c-0.01,0.007-0.053,0.037-0.053,0.037
		c-0.047,0.031-1.07-3.531-1.109-3.763c-0.448-2.687,0.264-8.143,2.975-9.544c1.952-1.009,4.195,0.081,4.97,2.042
		c0.791,2.003-0.076,4.511-1.135,6.248c-1.085,1.78-4.613,4.271-5.497,4.878c-0.106,0.896-0.209,1.855-0.3,2.918
		c-0.144,1.87-0.29,3.982-0.294,6.289c-0.003,0.615,0.02,1.276,0.029,1.917c0.208-1.084,0.514-2.568,0.559-2.709
		c0.84-2.591,3.987-7.104,7.037-7.099c2.198,0.004,3.686,2.005,3.47,4.102c-0.221,2.142-2.146,3.968-3.886,5.022
		c-1.816,1.1-6.202,1.684-7.163,1.801c0.044,1.42,0.122,2.878,0.292,4.393c0.289,2.617,0.734,5.39,1.552,8.147
		c0.095-0.01,0.078-0.008,0.173-0.018c0.069-1.023,0.265-3.172,0.302-3.347c0.551-2.668,3.182-7.499,6.215-7.829
		c2.185-0.237,3.884,1.588,3.899,3.696c0.016,2.154-1.697,4.18-3.311,5.419c-1.86,1.427-6.903,2.573-7.093,2.616
		c0.794,2.564,1.804,5.135,2.978,7.69c0.848,1.853,1.783,3.694,2.738,5.533c0.03-0.72,0.284-3.539,0.326-3.74
		c0.551-2.668,3.183-7.499,6.216-7.829c2.185-0.237,3.884,1.588,3.899,3.696c0.015,2.154-1.697,4.18-3.311,5.419
		c-1.816,1.394-6.642,2.513-7.05,2.606c0.434,0.835,0.864,1.67,1.307,2.504c1.442,2.721,2.899,5.442,4.254,8.172
		c0.47,0.946,0.897,1.895,1.331,2.844c0.078-1.078,0.258-3.037,0.292-3.203c0.55-2.668,3.182-7.5,6.215-7.829
		c2.185-0.237,3.884,1.588,3.899,3.696c0.015,2.153-1.697,4.18-3.311,5.419c-1.622,1.244-5.66,2.273-6.801,2.547
		c0.709,1.584,1.377,3.171,1.96,4.765c0.236,0.693,0.523,1.385,0.712,2.062c0.206,0.679,0.409,1.351,0.61,2.017
		c0.368,1.392,0.715,2.684,1.024,3.988c0.161,0.658,0.298,1.282,0.446,1.924c-0.084-1.104-0.19-2.855-0.181-3.016
		c0.14-2.721,2.01-7.895,4.957-8.68c2.124-0.566,4.08,0.981,4.414,3.063c0.042,0.265,0.058,0.531,0.05,0.798
		c1.279,2.068,1.922,5.01,1.88,6.82c-0.004,0.174-0.284,2.229-0.449,3.276c0.326-0.81,0.653-1.613,0.979-2.463
		c0.478-1.218,0.943-2.52,1.401-3.78c0.214-0.662,0.429-1.33,0.647-2.005c0.234-0.677,0.375-1.35,0.57-2.035
		c0.263-1.009,0.484-2.063,0.707-3.114c-1.269-0.412-4.973-1.685-6.442-2.998c-1.517-1.355-3.074-3.504-2.898-5.65
		c0.172-2.102,2.003-3.795,4.164-3.396c3,0.555,5.265,5.569,5.615,8.27c0.011,0.088,0.026,0.666,0.037,1.353
		c0.186-1.033,0.376-2.064,0.529-3.117c0.437-2.988,0.789-6.045,1.155-9.106c0.076-0.638,0.162-1.274,0.24-1.912
		c-1.07-0.341-5.094-1.685-6.634-3.06c-1.518-1.356-3.074-3.504-2.898-5.65c0.172-2.102,2.003-3.795,4.164-3.395
		c3,0.555,5.264,5.569,5.615,8.27c0.013,0.096,0.028,0.788,0.04,1.561c0.222-1.66,0.465-3.313,0.756-4.945
		c0.507-2.855,1.16-5.641,2.007-8.288c-0.379-0.117-5.129-1.597-6.84-3.125c-1.518-1.356-3.074-3.504-2.898-5.65
		c0.172-2.102,2.003-3.795,4.164-3.396c3,0.555,5.264,5.569,5.615,8.271c0.025,0.192,0.064,2.692,0.049,3.585
		c0.01-0.031,0.017-0.065,0.027-0.097c0.914-2.771,2.129-5.304,3.398-7.65c1.263-2.342,2.651-4.441,3.978-6.337
		c1.323-1.902,2.65-3.56,3.837-5.017c0.649-0.784,1.257-1.49,1.831-2.141c-0.013,0-0.065,0.001-0.065,0.001
		c-0.056,0,1.056-3.535,1.151-3.75c1.108-2.489,4.713-6.645,7.746-6.319C416.081,252.176,417.351,254.322,416.915,256.385z
		 M381.931,329.582c-0.518-0.252-4.519-2.231-6.081-3.922c-1.792,1.002-3.815,1.82-4.172,1.961c0.355,1.571,0.686,3.105,0.968,4.545
		c0.906,4.556,1.487,8.385,1.857,11.072c0.079,0.573,0.145,1.083,0.205,1.55h0.203c0.204-0.393,0.423-0.819,0.668-1.301
		c1.212-2.39,2.899-5.835,4.732-10.054C380.843,332.218,381.386,330.921,381.931,329.582z M397.913,271.345
		c0.047,0.03,0.974-3.559,1.006-3.792c0.375-2.698-0.484-8.133-3.232-9.46c-1.979-0.956-4.191,0.194-4.912,2.175
		c-0.737,2.024,0.197,4.507,1.303,6.215C393.377,268.49,397.91,271.343,397.913,271.345z"/>
</g>
</svg>
