<svg xmlns="http://www.w3.org/2000/svg" version="1.0" preserveAspectRatio="xMidYMid meet" viewBox="0 27.5 430 81.5">

<g transform="translate(0.000000,131.000000) scale(0.100000,-0.100000)" fill="#fd990e" stroke="none">
<path d="M917 990 c-4 -25 -9 -107 -10 -183 -2 -75 -7 -140 -10 -144 -4 -3 -14 0 -22 7 -12 10 -19 10 -27 2 -7 -7 -20 -12 -30 -12 -26 0 -64 -44 -72 -80 -5 -26 -9 -30 -30 -24 -17 4 -27 1 -34 -12 -7 -12 -10 35 -11 156 0 106 -4 177 -11 184 -11 11 -14 -46 -12 -251 l1 -122 -29 -15 c-22 -11 -32 -11 -37 -3 -5 7 -8 62 -9 122 -2 229 -4 262 -15 235 -6 -14 -11 -126 -12 -250 -2 -218 -3 -225 -22 -225 -19 0 -20 8 -23 203 -3 219 -7 237 -54 230 -40 -6 -48 -40 -48 -228 0 -119 -3 -170 -10 -160 -6 9 -10 89 -9 187 1 172 -2 195 -24 192 -26 -3 -34 2 -46 29 l-13 27 -19 -35 c-14 -27 -18 -57 -19 -132 0 -95 -12 -128 -26 -72 -5 19 -9 22 -15 12 -7 -10 -9 -10 -9 0 0 9 -12 12 -37 10 -33 -3 -38 -6 -36 -26 2 -13 -4 -25 -12 -28 -12 -5 -15 -27 -15 -110 l0 -104 -40 0 c-38 0 -40 -2 -40 -30 0 -20 -5 -30 -15 -30 -11 0 -15 -12 -15 -45 l0 -45 2150 0 2150 0 0 45 c0 42 -2 45 -26 45 -20 0 -25 4 -21 17 30 104 31 112 18 127 -19 22 -76 30 -130 19 -57 -13 -211 -5 -211 11 0 6 -11 11 -25 11 -14 0 -25 -3 -25 -6 0 -4 -9 -9 -21 -12 -11 -3 -19 -11 -18 -19 1 -7 1 -23 0 -35 -1 -20 -5 -22 -33 -17 -18 3 -46 10 -61 16 l-28 11 2 174 c1 116 -2 177 -9 182 -6 3 -14 19 -17 34 -5 17 -16 29 -31 33 -36 9 -74 -4 -74 -24 0 -10 -6 -24 -12 -30 -9 -9 -14 -67 -16 -187 -4 -141 -7 -175 -18 -175 -11 0 -14 28 -14 145 0 122 -2 145 -15 145 -8 0 -15 5 -15 10 0 6 -8 10 -19 10 -10 0 -21 9 -24 20 -3 10 -17 22 -33 26 -22 6 -32 2 -50 -19 -13 -15 -28 -27 -33 -27 -6 0 -20 -8 -31 -17 -16 -14 -20 -30 -20 -81 0 -61 -1 -64 -22 -59 -13 3 -41 2 -63 -2 -35 -6 -40 -10 -40 -34 0 -14 -3 -27 -7 -27 -5 0 -12 0 -18 0 -6 0 -11 64 -12 158 -3 156 -3 157 -25 156 -13 0 -23 5 -23 11 0 6 -10 21 -23 33 l-23 22 -22 -23 c-12 -13 -22 -29 -22 -36 0 -10 -3 -11 -14 -2 -29 24 -36 -12 -37 -183 -1 -179 -15 -229 -19 -68 -3 96 -5 132 -10 175 -5 37 -18 -92 -19 -184 -1 -104 -15 -153 -39 -140 -10 4 -23 6 -29 4 -7 -3 -13 2 -13 10 0 8 -10 26 -21 41 -29 37 -58 31 -85 -17 -21 -39 -21 -39 -28 -13 -5 19 -13 26 -31 26 -30 0 -32 8 -39 165 -3 66 -6 122 -7 125 -5 14 -17 -115 -18 -186 -1 -94 -8 -105 -70 -102 -37 1 -41 4 -41 28 0 23 -4 27 -31 28 -17 0 -39 8 -48 16 -10 9 -34 16 -54 16 l-37 0 0 -45 0 -45 -49 0 c-27 0 -51 -4 -53 -8 -1 -5 -32 -6 -68 -2 -36 4 -68 5 -71 4 -4 -2 -10 -44 -14 -94 -5 -67 -11 -90 -21 -90 -8 0 -14 6 -14 14 0 8 -5 16 -12 18 -7 3 -9 11 -3 24 15 35 14 103 -1 141 -12 28 -18 33 -25 22 -5 -8 -9 -28 -9 -46 0 -64 -27 -41 -44 38 -7 31 -22 40 -53 28 -19 -7 -23 -16 -23 -51 0 -24 6 -68 14 -100 13 -58 7 -88 -19 -88 -13 0 -15 48 -15 329 l0 329 -25 16 c-31 20 -84 21 -113 0 -22 -15 -22 -16 -22 -339 0 -308 -4 -354 -28 -330 -4 3 -8 145 -9 313 -1 169 -5 327 -9 352 l-7 45 -9 -40 c-4 -22 -8 -160 -8 -307 0 -220 -3 -268 -14 -268 -21 0 -26 34 -26 195 l0 150 -21 -35 -21 -34 -19 23 c-27 33 -85 36 -112 5 -19 -22 -22 -23 -39 -7 -10 9 -18 23 -18 32 0 12 -2 13 -8 4 -4 -7 -9 -72 -10 -145 -1 -73 -2 -134 -2 -136 0 -1 -11 4 -24 13 -13 8 -30 13 -39 9 -14 -5 -16 16 -16 192 0 126 -4 201 -10 207 -13 13 -15 -46 -12 -272 l1 -143 -22 5 c-13 4 -29 2 -37 -2 -22 -14 -81 26 -81 55 0 15 -6 24 -15 24 -11 0 -15 13 -16 55 -2 76 -6 188 -9 233 l-2 37 -8 -35 c-5 -19 -10 -92 -10 -162 -1 -71 -6 -128 -11 -128 -5 0 -9 8 -9 18 0 9 -8 31 -18 47 -15 24 -18 56 -20 170 -2 77 -6 165 -11 195 l-7 55 -7 -45z m3303 -580 c9 -32 -5 -70 -25 -70 -11 0 -15 12 -15 51 0 42 3 50 17 47 9 -2 20 -14 23 -28z m-476 -36 c3 -9 6 -27 6 -41 0 -39 -25 -22 -28 20 -3 37 11 50 22 21z m84 -16 c7 -7 12 -20 12 -30 0 -14 -8 -18 -35 -18 -27 0 -35 4 -35 18 0 20 18 42 35 42 6 0 16 -5 23 -12z"/>
<path d="M2390 680 c0 -5 7 -10 16 -10 8 0 12 5 9 10 -3 6 -10 10 -16 10 -5 0 -9 -4 -9 -10z"/>
</g>
</svg>