<svg xmlns="http://www.w3.org/2000/svg" version="1.0" preserveAspectRatio="xMidYMid meet" viewBox="0 23.08 324 52.92">

<g transform="translate(0.000000,100.000000) scale(0.100000,-0.100000)" fill="#fd990e" stroke="none">
<path d="M3093 763 c-10 -3 -13 -40 -13 -134 0 -79 -4 -129 -10 -129 -6 0 -10 45 -10 114 0 120 -4 132 -43 122 -21 -5 -22 -8 -19 -137 2 -83 -1 -136 -7 -142 -8 -8 -11 -6 -11 4 0 24 -44 42 -83 35 -19 -4 -54 -4 -76 0 l-41 7 0 58 0 59 -40 0 -39 0 -3 -72 c-3 -67 -5 -73 -25 -76 -19 -3 -23 1 -23 22 0 24 -3 26 -45 26 l-45 0 0 -77 0 -76 -25 23 -25 23 -23 -21 c-13 -12 -26 -22 -30 -22 -4 0 -7 20 -7 45 0 45 0 45 -34 45 -34 0 -35 1 -41 52 -3 29 -5 71 -4 93 3 78 -7 93 -50 74 l-31 -14 0 -102 c0 -57 -4 -105 -10 -108 -6 -4 -10 40 -10 124 l0 131 -27 6 c-52 14 -58 0 -61 -155 -2 -133 -4 -141 -22 -141 -18 0 -20 7 -20 83 0 79 -1 84 -25 97 -27 14 -31 25 -15 35 19 12 11 54 -14 70 -46 30 -93 -22 -63 -69 14 -21 13 -23 -14 -35 -29 -13 -29 -13 -29 -102 0 -71 -3 -89 -14 -89 -8 0 -17 8 -20 18 -6 18 -14 103 -16 162 -1 31 -2 33 -10 12 -5 -12 -10 -48 -10 -80 -2 -74 -9 -114 -21 -106 -5 3 -9 14 -9 24 0 47 -75 45 -82 -2 -3 -21 -9 -23 -66 -26 -60 -3 -63 -2 -61 20 5 62 -1 108 -16 108 -12 0 -15 -15 -15 -77 0 -120 -8 -82 -15 72 -3 77 -9 156 -14 175 -8 34 -8 34 -16 -25 -5 -33 -9 -80 -10 -105 -5 -191 -3 -180 -29 -180 -24 0 -36 16 -36 50 0 10 -10 26 -22 35 -22 15 -24 14 -45 -10 -13 -14 -23 -37 -23 -51 0 -21 -5 -24 -35 -24 -29 0 -35 -4 -35 -21 0 -14 -5 -19 -17 -17 -15 3 -18 16 -20 88 -1 47 -5 105 -9 130 -6 39 -8 42 -14 20 -4 -14 -2 -31 4 -39 8 -11 8 -15 -1 -18 -9 -3 -13 -32 -13 -94 0 -58 -4 -88 -10 -84 -6 4 -9 57 -8 133 1 109 -1 127 -14 130 -25 5 -29 -11 -29 -118 0 -57 -4 -100 -9 -100 -6 0 -10 9 -10 20 0 11 -6 20 -12 20 -8 0 -9 3 -3 8 21 15 14 42 -11 42 -19 0 -24 -5 -24 -25 0 -40 -17 -29 -24 16 -4 24 -16 50 -32 64 l-26 24 -25 -24 c-15 -13 -28 -39 -32 -62 -5 -30 -11 -39 -30 -41 -22 -3 -23 -1 -20 41 l4 45 -42 4 -43 3 0 -47 c0 -35 -4 -48 -14 -48 -10 0 -17 16 -21 48 -19 140 -18 136 -50 139 -41 3 -53 -11 -61 -73 -7 -57 -5 -56 -74 -56 -69 0 -67 -1 -74 56 -8 61 -18 72 -61 72 -29 -1 -30 -2 -39 -68 l-9 -68 -59 0 -58 0 0 60 c0 53 -2 60 -20 60 -11 0 -20 -7 -20 -15 0 -9 -9 -15 -25 -15 -22 0 -25 4 -25 40 l0 40 -50 0 -50 0 0 -114 0 -113 -25 5 c-22 4 -25 10 -25 43 0 37 -2 39 -30 39 -29 0 -30 -2 -30 -45 0 -33 -4 -45 -15 -45 -12 0 -15 -14 -15 -65 0 -58 -2 -65 -20 -65 -16 0 -20 -7 -20 -35 l0 -35 1620 0 1620 0 0 35 c0 32 -3 35 -29 35 -38 0 -41 17 -41 242 0 104 -4 187 -10 199 -10 18 -40 24 -67 12z m-2833 -123 c0 -16 -7 -20 -30 -20 -23 0 -30 4 -30 20 0 16 7 20 30 20 23 0 30 -4 30 -20z m2508 -83 c3 -35 1 -37 -25 -37 -25 0 -29 4 -31 31 -3 39 2 46 30 44 19 -1 24 -8 26 -38z m-1673 -38 c0 -7 -8 -15 -17 -17 -18 -3 -25 18 -11 32 10 10 28 1 28 -15z m-178 -51 c-2 -13 -4 -5 -4 17 -1 22 1 32 4 23 2 -10 2 -28 0 -40z m20 0 c-2 -13 -4 -5 -4 17 -1 22 1 32 4 23 2 -10 2 -28 0 -40z m20 0 c-2 -13 -4 -5 -4 17 -1 22 1 32 4 23 2 -10 2 -28 0 -40z m-870 5 c-3 -10 -5 -4 -5 12 0 17 2 24 5 18 2 -7 2 -21 0 -30z m30 0 c-3 -10 -5 -4 -5 12 0 17 2 24 5 18 2 -7 2 -21 0 -30z m2433 -135 c0 -26 -3 -28 -40 -28 -38 0 -40 2 -40 29 0 19 8 35 22 45 20 14 24 14 40 -1 10 -9 18 -29 18 -45z"/>
<path d="M180 750 c0 -6 7 -10 15 -10 8 0 15 2 15 4 0 2 -7 6 -15 10 -8 3 -15 1 -15 -4z"/>
<path d="M1251 720 c-1 -15 -6 -31 -12 -37 -7 -7 -5 -16 8 -28 23 -23 28 -7 14 50 -7 30 -9 33 -10 15z"/>
<path d="M1647 584 c-8 -8 1 -24 14 -24 5 0 9 7 9 15 0 15 -12 20 -23 9z"/>
<path d="M670 570 c0 -5 7 -10 15 -10 8 0 15 5 15 10 0 6 -7 10 -15 10 -8 0 -15 -4 -15 -10z"/>
</g>
</svg>