<svg xmlns="http://www.w3.org/2000/svg" version="1.1" viewBox="0 113 600 149">
<path xmlns="http://www.w3.org/2000/svg" d="M0 0 C0 0.66 0 1.32 0 2 C0.83144531 1.76603516 0.83144531 1.76603516 1.6796875 1.52734375 C2.76636719 1.23537109 2.76636719 1.23537109 3.875 0.9375 C4.59429687 0.74027344 5.31359375 0.54304688 6.0546875 0.33984375 C8 0 8 0 10 1 C10 1.66 10 2.32 10 3 C12.64 2.67 15.28 2.34 18 2 C18.33 3.32 18.66 4.64 19 6 C20.2375 5.9175 21.475 5.835 22.75 5.75 C26.69426285 5.72920424 26.69426285 5.72920424 29.1875 7.9375 C29.785625 8.618125 30.38375 9.29875 31 10 C33.64184541 10.79681318 33.64184541 10.79681318 36 11 C36 12.32 36 13.64 36 15 C37.11375 15.226875 38.2275 15.45375 39.375 15.6875 C40.57125 16.120625 41.7675 16.55375 43 17 C44.1875 19.5625 44.1875 19.5625 45 22 C47.04105639 22.88693303 47.04105639 22.88693303 49 23 C49.2475 24.11375 49.495 25.2275 49.75 26.375 C50.61005339 30.04615198 50.61005339 30.04615198 53.125 31.4375 C53.74375 31.623125 54.3625 31.80875 55 32 C55 34.31 55 36.62 55 39 C56.32 39.66 57.64 40.32 59 41 C58.67 43.64 58.34 46.28 58 49 C58.99 49 59.98 49 61 49 C60.67 51.97 60.34 54.94 60 58 C60.66 58 61.32 58 62 58 C62 59.65 62 61.3 62 63 C61.34 63 60.68 63 60 63 C60.350625 63.721875 60.70125 64.44375 61.0625 65.1875 C62.10409017 68.3122705 61.89096572 69.88161996 61 73 C60.34 73 59.68 73 59 73 C59.33 75.64 59.66 78.28 60 81 C58.515 81.99 58.515 81.99 57 83 C57.0309375 84.4540625 57.0309375 84.4540625 57.0625 85.9375 C57.041875 86.948125 57.02125 87.95875 57 89 C55.67732273 90.01405257 54.34275169 91.01268258 53 92 C51.71157463 95.59067962 51.71157463 95.59067962 51 99 C49.68 99 48.36 99 47 99 C46.67 100.98 46.34 102.96 46 105 C46.68707031 105.03738281 47.37414062 105.07476562 48.08203125 105.11328125 C48.98308594 105.17902344 49.88414062 105.24476563 50.8125 105.3125 C51.70582031 105.37050781 52.59914063 105.42851562 53.51953125 105.48828125 C56.35975538 106.07421725 57.27512941 106.70924126 59 109 C59.33 109.99 59.66 110.98 60 112 C60 108.04 60 104.08 60 100 C64.62 100 69.24 100 74 100 C73.81566406 98.56914062 73.63132812 97.13828125 73.44140625 95.6640625 C72.88592157 90.10921574 73.2784512 84.90118559 73.9375 79.375 C74.03740234 78.46621094 74.13730469 77.55742187 74.24023438 76.62109375 C74.48430294 74.41285438 74.737641 72.20612766 75 70 C75.99 70 76.98 70 78 70 C79.9679704 80.10341946 80.22102569 89.7468639 80 100 C84.62 100 89.24 100 94 100 C94 101.98 94 103.96 94 106 C94.66 106 95.32 106 96 106 C96 103.69 96 101.38 96 99 C96.99 99 97.98 99 99 99 C99 101.31 99 103.62 99 106 C101.85778033 106.68493373 101.85778033 106.68493373 105 107 C106.485 106.01 106.485 106.01 108 105 C111.1875 104.875 111.1875 104.875 114 105 C113.97679687 104.13761719 113.95359375 103.27523437 113.9296875 102.38671875 C113.77320714 91.80194002 114.73381234 81.50257445 116 71 C117.485 70.505 117.485 70.505 119 70 C120.81922018 81.37173891 122.57850927 92.45124086 122 104 C123.98 104.33 125.96 104.66 128 105 C127.67 99.06 127.34 93.12 127 87 C131.95 87 136.9 87 142 87 C142 92.94 142 98.88 142 105 C142.66 105 143.32 105 144 105 C143.67 99.06 143.34 93.12 143 87 C147.95 87 152.9 87 158 87 C158 92.94 158 98.88 158 105 C160.64 105 163.28 105 166 105 C168.00875442 105.27571139 170.01178687 105.60235737 172 106 C172.94875 106.185625 173.8975 106.37125 174.875 106.5625 C175.57625 106.706875 176.2775 106.85125 177 107 C176.9690625 105.329375 176.9690625 105.329375 176.9375 103.625 C177 100 177 100 178 98 C178.06197032 96.01787464 178.05973011 94.03361064 178.02734375 92.05078125 C178.00704102 90.20444092 178.00704102 90.20444092 177.98632812 88.32080078 C177.97388062 87.33904877 177.97388062 87.33904877 177.96118164 86.33746338 C177.79881803 72.45411971 178.44955114 58.80971606 180 45 C180.99 45.33 181.98 45.66 183 46 C184.33282543 60.44662247 185.25708453 74.73648418 184.92578125 89.25170898 C184.90902344 90.24114502 184.89226562 91.23058105 184.875 92.25 C184.84019531 93.55710938 184.84019531 93.55710938 184.8046875 94.890625 C184.79380706 97.21974106 184.79380706 97.21974106 187 99 C188.65 96.69 190.3 94.38 192 92 C193.32 92.99 194.64 93.98 196 95 C198.03241727 94.36020151 198.03241727 94.36020151 200 93 C200.12375 92.236875 200.2475 91.47375 200.375 90.6875 C201.32667661 86.59529058 203.62355654 85.41174533 207 83 C207.66 83 208.32 83 209 83 C209 80.69 209 78.38 209 76 C209.66 76 210.32 76 211 76 C211.061875 77.36125 211.061875 77.36125 211.125 78.75 C212.28919443 83.07415076 214.27425505 83.71893167 218 86 C219.78229676 88.67344514 220 89.73770359 220 93 C221.98 93.66 223.96 94.32 226 95 C226.66 94.01 227.32 93.02 228 92 C229.98 94.64 231.96 97.28 234 100 C235.37522158 97.24955684 235.07729801 95.09173186 235.02734375 92.015625 C235.00704102 90.16155029 235.00704102 90.16155029 234.98632812 88.27001953 C234.97388062 87.28512543 234.97388062 87.28512543 234.96118164 86.28033447 C234.80333685 72.74758447 235.43385546 59.45206292 237 46 C237.99 46 238.98 46 240 46 C240.33630329 49.5830611 240.66852525 53.16648924 241 56.75 C241.09539062 57.76578125 241.19078125 58.7815625 241.2890625 59.828125 C241.37929688 60.8078125 241.46953125 61.7875 241.5625 62.796875 C241.68818359 64.14797363 241.68818359 64.14797363 241.81640625 65.52636719 C242.26876612 71.62119463 242.01935347 77.83026095 241.96484375 83.94140625 C241.95555646 85.4817698 241.94644818 87.02213444 241.9375 88.5625 C241.92912109 89.34302734 241.92074219 90.12355469 241.91210938 90.92773438 C241.77923701 95.09591509 241.77923701 95.09591509 243 99 C243.13415472 101.6723621 243.04318541 104.32250488 243 107 C245.31 107 247.62 107 250 107 C250 109.64 250 112.28 250 115 C250.639375 115.12375 251.27875 115.2475 251.9375 115.375 C252.618125 115.58125 253.29875 115.7875 254 116 C254.33 116.66 254.66 117.32 255 118 C257.31 118 259.62 118 262 118 C262 114.7 262 111.4 262 108 C262.93392578 108.23009766 262.93392578 108.23009766 263.88671875 108.46484375 C268.18274772 109.20330795 272.46241952 109.36462162 276.8125 109.5625 C277.69615234 109.60568359 278.57980469 109.64886719 279.49023438 109.69335938 C281.65999623 109.79891536 283.8299791 109.89991071 286 110 C286 109.34 286 108.68 286 108 C286.66 108 287.32 108 288 108 C288 84.24 288 60.48 288 36 C289.32 36.66 290.64 37.32 292 38 C292.66 38 293.32 38 294 38 C300 38 306 38 312 38 C313.34882408 37.36525925 314.6846659 36.70151152 316 36 C315.98839844 35.16855469 315.97679687 34.33710938 315.96484375 33.48046875 C315.95130859 31.85044922 315.95130859 31.85044922 315.9375 30.1875 C315.92589844 29.10855469 315.91429687 28.02960938 315.90234375 26.91796875 C316 24 316 24 317 21 C318.32 21 319.64 21 321 21 C320.67 19.68 320.34 18.36 320 17 C323.1749094 15.0921416 325.10585211 14.8390959 328.75 15.375 C329.54921875 15.48585937 330.3484375 15.59671875 331.171875 15.7109375 C331.77515625 15.80632812 332.3784375 15.90171875 333 16 C333.33 16.99 333.66 17.98 334 19 C333.67 19.66 333.34 20.32 333 21 C335.475 21.495 335.475 21.495 338 22 C338 36.52 338 51.04 338 66 C339.32 65.34 340.64 64.68 342 64 C345.234375 63.8046875 345.234375 63.8046875 348.75 63.875 C349.92046875 63.89304688 351.0909375 63.91109375 352.296875 63.9296875 C353.18890625 63.95289063 354.0809375 63.97609375 355 64 C355 64.66 355 65.32 355 66 C355.99 66 356.98 66 358 66 C358 88.77 358 111.54 358 135 C359.32 135 360.64 135 362 135 C362 139.62 362 144.24 362 149 C164 149 -34 149 -238 149 C-238 144.38 -238 139.76 -238 135 C-236.68 135 -235.36 135 -234 135 C-234.00523682 134.40985107 -234.01047363 133.81970215 -234.01586914 133.21166992 C-234.03666047 130.53695745 -234.04966701 127.86226199 -234.0625 125.1875 C-234.07087891 124.25873047 -234.07925781 123.32996094 -234.08789062 122.37304688 C-234.09111328 121.48037109 -234.09433594 120.58769531 -234.09765625 119.66796875 C-234.10289307 118.84578857 -234.10812988 118.0236084 -234.11352539 117.17651367 C-234 115 -234 115 -233 112 C-230.69 112 -228.38 112 -226 112 C-226.01332367 111.37439178 -226.02664734 110.74878357 -226.04037476 110.10421753 C-226.17328805 103.5830342 -226.26368243 97.06223657 -226.32958984 90.54003906 C-226.35973215 88.10726285 -226.40065382 85.67459504 -226.45263672 83.2421875 C-226.52555906 79.74191529 -226.55948333 76.24308164 -226.5859375 72.7421875 C-226.61690521 71.65759247 -226.64787292 70.57299744 -226.67977905 69.45553589 C-226.68352734 61.0141495 -226.68352734 61.0141495 -222.96337891 57.26611328 C-221.98546387 56.5182959 -221.00754883 55.77047852 -220 55 C-216.08803298 56.59376434 -213.609585 58.67907411 -211 62 C-210.31418554 65.30614286 -210.41681058 68.53030037 -210.51171875 71.89453125 C-210.51879349 72.84188644 -210.52586823 73.78924164 -210.53315735 74.76530457 C-210.56107666 77.78185021 -210.62381085 80.7965184 -210.6875 83.8125 C-210.71258604 85.86130126 -210.73539867 87.9101317 -210.75585938 89.95898438 C-210.81089541 94.97337621 -210.89715144 99.98637014 -211 105 C-205.06 105 -199.12 105 -193 105 C-192.34 106.98 -191.68 108.96 -191 111 C-188.69 111 -186.38 111 -184 111 C-184 109.68 -184 108.36 -184 107 C-183.34 107 -182.68 107 -182 107 C-182 105.02 -182 103.04 -182 101 C-181.01 101.33 -180.02 101.66 -179 102 C-178.67 100.35 -178.34 98.7 -178 97 C-177.34 97 -176.68 97 -176 97 C-175.4740625 95.14375 -175.4740625 95.14375 -174.9375 93.25 C-174.74027344 92.55390625 -174.54304688 91.8578125 -174.33984375 91.140625 C-173.96350306 88.77011123 -174.38885788 87.29057992 -175 85 C-174.67 84.34 -174.34 83.68 -174 83 C-173.34 83 -172.68 83 -172 83 C-172 80.36 -172 77.72 -172 75 C-171.01 75 -170.02 75 -169 75 C-168.87625 76.11375 -168.7525 77.2275 -168.625 78.375 C-168.3534187 82.03103677 -168.3534187 82.03103677 -166 84 C-165.96759908 86.0088571 -165.94089237 88.01878433 -165.98828125 90.02734375 C-166.00114689 92.19306037 -165.80736429 93.98158927 -165 96 C-164.34 96.33 -163.68 96.66 -163 97 C-162.375 99.5625 -162.375 99.5625 -162 102 C-161.01 101.67 -160.02 101.34 -159 101 C-158.67 102.32 -158.34 103.64 -158 105 C-156.98063354 104.51104248 -156.98063354 104.51104248 -155.94067383 104.01220703 C-152.4472835 102.80974989 -149.6411443 102.77326686 -145.94921875 102.8046875 C-145.29041214 102.8075174 -144.63160553 102.81034729 -143.95283508 102.81326294 C-141.86419938 102.82439076 -139.77600444 102.84948052 -137.6875 102.875 C-136.26498018 102.88503941 -134.8424536 102.89416358 -133.41992188 102.90234375 C-129.94631127 102.92259804 -126.47364461 102.96175804 -123 103 C-122.67 98.05 -122.34 93.1 -122 88 C-118.7 88 -115.4 88 -112 88 C-111.505 94.435 -111.505 94.435 -111 101 C-106.71 101 -102.42 101 -98 101 C-97.67 95.06 -97.34 89.12 -97 83 C-93.37 83 -89.74 83 -86 83 C-86.03255208 85.79947917 -86.06510417 88.59895833 -86.09765625 91.3984375 C-86.18006602 93.98432453 -86.18006602 93.98432453 -85 96 C-85.28241883 98.3400417 -85.61250787 100.67504723 -86 103 C-84.68 103 -83.36 103 -82 103 C-82.00888245 102.22992111 -82.01776489 101.45984222 -82.0269165 100.66642761 C-82.10703487 93.4123386 -82.16794983 86.15846381 -82.20724869 78.90404797 C-82.22813192 75.17436552 -82.25646182 71.44504836 -82.30175781 67.71557617 C-82.34519111 64.11698628 -82.36913156 60.51874791 -82.37950897 56.91991615 C-82.38690503 55.54633359 -82.401348 54.17277046 -82.42292023 52.79933739 C-82.45191442 50.87707629 -82.45363355 48.95446212 -82.45410156 47.03198242 C-82.46298401 45.93722092 -82.47186646 44.84245941 -82.48101807 43.71452332 C-82 41 -82 41 -80.11468506 39.14350891 C-77.65706038 37.81455654 -76.15082751 37.65716296 -73.375 37.75 C-72.21097656 37.77320313 -72.21097656 37.77320313 -71.0234375 37.796875 C-69 38 -69 38 -67 39 C-66.01 36.03 -66.01 36.03 -65 33 C-64.34 33 -63.68 33 -63 33 C-63 32.01 -63 31.02 -63 30 C-59.7 30 -56.4 30 -53 30 C-52.67 28.68 -52.34 27.36 -52 26 C-51.175 25.690625 -50.35 25.38125 -49.5 25.0625 C-48.675 24.711875 -47.85 24.36125 -47 24 C-46.835 23.175 -46.67 22.35 -46.5 21.5 C-46.335 20.675 -46.17 19.85 -46 19 C-44.34561387 18.30341637 -42.67745682 17.63903117 -41 17 C-40.505 16.154375 -40.01 15.30875 -39.5 14.4375 C-38 12 -38 12 -35.3125 11.1875 C-34.549375 11.125625 -33.78625 11.06375 -33 11 C-32.67 10.01 -32.34 9.02 -32 8 C-25.25 7 -25.25 7 -23 7 C-23 6.01 -23 5.02 -23 4 C-19.67465243 2.89155081 -17.37817425 3.15545644 -14 4 C-14 3.01 -14 2.02 -14 1 C-12.35 1 -10.7 1 -9 1 C-9 1.66 -9 2.32 -9 3 C-7.88625 2.2575 -7.88625 2.2575 -6.75 1.5 C-4 0 -4 0 0 0 Z M1 5 C1 20.51 1 36.02 1 52 C3.36307512 48.45538731 4.55975615 44.79634586 5.890625 40.7890625 C6.15889099 39.98391205 6.42715698 39.1787616 6.70355225 38.34921265 C7.26764206 36.64711521 7.82895726 34.9440961 8.38769531 33.24023438 C9.24614799 30.63668255 10.12673852 28.04128131 11.0078125 25.4453125 C11.55347468 23.78952037 12.09779079 22.13328391 12.640625 20.4765625 C12.90715881 19.70245026 13.17369263 18.92833801 13.44830322 18.13076782 C14.56836639 14.63234237 15.15838114 12.65555178 14.28027344 9.02099609 C13.16952394 6.82209205 13.16952394 6.82209205 10.875 6.1875 C9.946875 6.0946875 9.946875 6.0946875 9 6 C9 6.66 9 7.32 9 8 C6.36 7.01 3.72 6.02 1 5 Z M-10 7 C-12 8 -12 8 -16 8 C-14.78280485 13.89667127 -13.28620491 19.60072335 -11.3984375 25.31640625 C-11.1571109 26.05833725 -10.9157843 26.80026825 -10.66714478 27.56468201 C-9.90701594 29.89858894 -9.1411242 32.23055512 -8.375 34.5625 C-7.85378162 36.15937958 -7.33294496 37.75638381 -6.8125 39.35351562 C-5.54606675 43.23712935 -4.27446703 47.11901564 -3 51 C-2.67 51 -2.34 51 -2 51 C-1.95065846 44.91277254 -1.91430833 38.8256608 -1.89013672 32.73828125 C-1.88006288 30.66632053 -1.86640334 28.59437407 -1.84912109 26.52246094 C-1.82493336 23.54879236 -1.81353092 20.5753113 -1.8046875 17.6015625 C-1.79436493 16.67131256 -1.78404236 15.74106262 -1.77340698 14.78262329 C-1.77325592 13.92188202 -1.77310486 13.06114075 -1.77294922 12.17431641 C-1.768508 11.41486725 -1.76406677 10.65541809 -1.75949097 9.87295532 C-1.83749845 7.75497701 -1.83749845 7.75497701 -4 6 C-7.7763932 5.7018576 -7.7763932 5.7018576 -10 7 Z M19 9 C15.68822441 16.81950277 12.97719289 24.8143103 10.37084961 32.88916016 C9.67894658 35.02642119 8.97537426 37.15962972 8.27148438 39.29296875 C7.83001688 40.6534149 7.38923544 42.01408391 6.94921875 43.375 C6.55049561 44.59960938 6.15177246 45.82421875 5.7409668 47.0859375 C4.68404759 49.91295879 4.68404759 49.91295879 6 52 C6.3309668 51.53851563 6.66193359 51.07703125 7.00292969 50.6015625 C8.0061943 49.20403491 9.01044075 47.80721192 10.01538086 46.41088867 C11.17965736 44.79270001 12.34190434 43.17304934 13.50219727 41.55200195 C16.45864986 37.44057847 19.45470315 33.38300628 22.60546875 29.41796875 C23.16588867 28.70447266 23.72630859 27.99097656 24.30371094 27.25585938 C25.37663546 25.89754847 26.46420666 24.55065516 27.56738281 23.21679688 C29.22790211 21.18490912 29.22790211 21.18490912 31 18 C30.71373651 15.08496898 30.71373651 15.08496898 29 13 C25.86650268 11.95550089 25.01031744 12.06576355 22 13 C21.67 11.68 21.34 10.36 21 9 C20.34 9 19.68 9 19 9 Z M-24 10 C-24.391875 10.639375 -24.78375 11.27875 -25.1875 11.9375 C-27.38472296 14.43778819 -28.75791433 14.64950425 -32 15 C-30.42870888 19.85333706 -27.64102198 23.39558895 -24.5625 27.375 C-23.4849065 28.78847536 -22.40810366 30.2025538 -21.33203125 31.6171875 C-20.78240723 32.33745117 -20.2327832 33.05771484 -19.66650391 33.79980469 C-16.98731634 37.33699166 -14.36737707 40.91695925 -11.75 44.5 C-11.27248291 45.15274902 -10.79496582 45.80549805 -10.30297852 46.47802734 C-9.20118052 47.98476313 -8.1004583 49.49228548 -7 51 C-5.58884678 46.76654034 -7.15607062 43.68050835 -8.52734375 39.61328125 C-8.79511124 38.79627243 -9.06287872 37.97926361 -9.33876038 37.13749695 C-10.19667637 34.52633227 -11.06691268 31.91946402 -11.9375 29.3125 C-12.52099778 27.54388863 -13.10369026 25.77501135 -13.68554688 24.00585938 C-15.11436866 19.66743121 -16.55425387 15.33281618 -18 11 C-20.97 10.505 -20.97 10.505 -24 10 Z M34 17 C33.42894531 17.80179688 32.85789062 18.60359375 32.26953125 19.4296875 C31.45059944 20.57818106 30.63158143 21.72661314 29.8125 22.875 C29.37486328 23.48907715 28.93722656 24.1031543 28.48632812 24.73583984 C25.84536168 28.43558039 23.18783813 32.1224679 20.51171875 35.796875 C19.92865967 36.59883301 19.34560059 37.40079102 18.74487305 38.22705078 C17.59643614 39.805328 16.44561818 41.38187583 15.29223633 42.95654297 C14.76267334 43.68502441 14.23311035 44.41350586 13.6875 45.1640625 C13.21699219 45.80811035 12.74648437 46.4521582 12.26171875 47.11572266 C10.99058973 49.01405349 9.97541159 50.93640917 9 53 C13.32626551 51.53938926 16.37878019 49.33620545 19.9375 46.5 C23.52820239 43.65942979 27.13150061 40.87342703 30.890625 38.2578125 C31.52492432 37.81630859 32.15922363 37.37480469 32.81274414 36.91992188 C34.03885969 36.07302555 35.26966886 35.23287444 36.50561523 34.40039062 C39.55297444 32.2882812 41.91515842 30.64691424 43 27 C42.21690533 24.76529595 42.21690533 24.76529595 41 23 C39.68 23 38.36 23 37 23 C36.87625 22.195625 36.7525 21.39125 36.625 20.5625 C36.41875 19.716875 36.2125 18.87125 36 18 C35.34 17.67 34.68 17.34 34 17 Z M-40 21 C-40.6425235 23.06874034 -40.6425235 23.06874034 -41 25 C-42.32 25.33 -43.64 25.66 -45 26 C-43.63098462 29.21996906 -42.25025342 30.84882822 -39.39453125 32.84765625 C-38.66476074 33.36561768 -37.93499023 33.8835791 -37.18310547 34.41723633 C-36.00965576 35.23164185 -36.00965576 35.23164185 -34.8125 36.0625 C-33.18578736 37.21296138 -31.55949261 38.36401383 -29.93359375 39.515625 C-28.70165283 40.3828418 -28.70165283 40.3828418 -27.44482422 41.26757812 C-23.72246473 43.90527165 -20.04759939 46.60616165 -16.375 49.3125 C-15.1328413 50.22529961 -13.89065675 51.13806404 -12.6484375 52.05078125 C-11.33746094 53.01564453 -11.33746094 53.01564453 -10 54 C-10 50.46298234 -10.65626731 49.7622222 -12.74609375 47.0078125 C-13.62503296 45.83472534 -13.62503296 45.83472534 -14.52172852 44.63793945 C-15.15393311 43.80866943 -15.7861377 42.97939941 -16.4375 42.125 C-23.91201484 32.22096108 -23.91201484 32.22096108 -26.7578125 27.85546875 C-27.15427979 27.25009277 -27.55074707 26.6447168 -27.95922852 26.02099609 C-28.99701264 24.41391194 -30.01672004 22.79519566 -31.03515625 21.17578125 C-32.8158528 18.75482439 -32.8158528 18.75482439 -35.62109375 18.54296875 C-38.17745472 18.80345512 -38.17745472 18.80345512 -40 21 Z M46 30 C45.22398437 30.60585937 44.44796875 31.21171875 43.6484375 31.8359375 C37.16784934 36.87109787 30.61014049 41.76324254 23.91308594 46.50683594 C19.54991302 49.59793235 15.25699489 52.76468388 11 56 C14.37857644 57.68928822 17.78923421 55.71688598 21.21875 54.61328125 C22.43927063 54.22586006 22.43927063 54.22586006 23.68444824 53.83061218 C25.40727943 53.28045148 27.12880868 52.72619973 28.84912109 52.16821289 C31.48429719 51.31756892 34.1263235 50.49130956 36.76953125 49.66601562 C38.44058092 49.12908566 40.11117045 48.59072113 41.78125 48.05078125 C42.57398315 47.80580399 43.36671631 47.56082672 44.18347168 47.3084259 C48.41127531 45.95371997 48.41127531 45.95371997 51.52539062 42.94604492 C52.10975096 40.5499872 52.00937657 39.25168619 51 37 C50.01 36.67 49.02 36.34 48 36 C48 34.35 48 32.7 48 31 C47.34 30.67 46.68 30.34 46 30 Z M-46 32 C-46 36.62 -46 41.24 -46 46 C-41.50164435 47.59648493 -36.9993326 49.18103973 -32.49291992 50.75463867 C-30.96019474 51.29173362 -29.42860584 51.83208264 -27.89819336 52.37573242 C-25.69935403 53.15619565 -23.49670623 53.92490048 -21.29296875 54.69140625 C-20.60849167 54.93717911 -19.92401459 55.18295197 -19.21879578 55.43617249 C-15.16039355 56.86302528 -15.16039355 56.86302528 -11 56 C-11.46672119 55.66379639 -11.93344238 55.32759277 -12.41430664 54.98120117 C-14.63083576 53.38394453 -16.84666322 51.78571695 -19.0625 50.1875 C-20.27486328 49.31411987 -20.27486328 49.31411987 -21.51171875 48.4230957 C-25.51435298 45.53522334 -29.50572171 42.63481675 -33.46484375 39.6875 C-34.14732178 39.18065674 -34.8297998 38.67381348 -35.53295898 38.15161133 C-36.82582338 37.18930429 -38.11579932 36.22310213 -39.40258789 35.25268555 C-42.38011332 32.79713747 -42.38011332 32.79713747 -46 32 Z M-67 44 C-67 45.98 -67 47.96 -67 50 C-66.01 49.67 -65.02 49.34 -64 49 C-64 48.34 -64 47.68 -64 47 C-64.66 47 -65.32 47 -66 47 C-66.33 46.01 -66.66 45.02 -67 44 Z M49.93920898 47.28515625 C49.07839218 47.56544678 48.21757538 47.8457373 47.33067322 48.13452148 C46.39526199 48.44075439 45.45985077 48.7469873 44.49609375 49.0625 C43.06657127 49.52861694 43.06657127 49.52861694 41.60816956 50.00415039 C38.55082923 51.00139256 35.4941601 52.00067503 32.4375 53 C30.37048645 53.6746132 28.30342973 54.34909414 26.23632812 55.0234375 C21.1570493 56.68075471 16.07832073 58.33974951 11 60 C11 60.33 11 60.66 11 61 C25.52 61 40.04 61 55 61 C55 60.01 55 59.02 55 58 C55.66 57.67 56.32 57.34 57 57 C56.505 55.515 56.505 55.515 56 54 C55.34 54 54.68 54 54 54 C54.33 51.36 54.66 48.72 55 46 C53.23431521 46 51.60576458 46.74097483 49.93920898 47.28515625 Z M-46 49 C-46 52.96 -46 56.92 -46 61 C-34.45 61 -22.9 61 -11 61 C-14.67331623 59.16334189 -18.27834845 57.85147156 -22.171875 56.6171875 C-22.8542926 56.39805695 -23.53671021 56.17892639 -24.23980713 55.95315552 C-26.4089127 55.25740057 -28.57942065 54.56614171 -30.75 53.875 C-32.22535537 53.40264023 -33.70061689 52.92998721 -35.17578125 52.45703125 C-38.78277595 51.30128818 -42.39103464 50.14957391 -46 49 Z M-6 51 C-5 53 -5 53 -5 53 Z M-46 64 C-47.90353174 72.34149382 -47.90353174 72.34149382 -45 76 C-33.78 72.37 -22.56 68.74 -11 65 C-11 64.67 -11 64.34 -11 64 C-22.55 64 -34.1 64 -46 64 Z M11 64 C14.5752215 66.383481 18.26322312 67.52257452 22.31640625 68.8203125 C23.12867172 69.08383514 23.94093719 69.34735779 24.77781677 69.61886597 C26.49267931 70.17407945 28.20828088 70.72701478 29.92456055 71.27783203 C32.55772721 72.12346723 35.18817287 72.97717762 37.81835938 73.83203125 C39.48421982 74.3702722 41.15023044 74.90804859 42.81640625 75.4453125 C43.60600235 75.70152374 44.39559845 75.95773499 45.2091217 76.22171021 C49.02744058 77.52984818 49.02744058 77.52984818 53 78 C53 77.34 53 76.68 53 76 C53.99 75.67 54.98 75.34 56 75 C55.505 71.535 55.505 71.535 55 68 C55.66 67.67 56.32 67.34 57 67 C57 66.01 57 65.02 57 64 C41.82 64 26.64 64 11 64 Z M-21.29296875 70.30859375 C-22.35201164 70.67695091 -22.35201164 70.67695091 -23.43244934 71.05274963 C-25.68720422 71.83919339 -27.93729014 72.63815596 -30.1875 73.4375 C-31.7152041 73.97283547 -33.24319582 74.50735095 -34.77148438 75.04101562 C-38.51835937 76.3496743 -42.25865855 77.67516237 -46 79 C-46 83.95 -46 88.9 -46 94 C-40.73276325 90.60754243 -35.68720973 87.04288649 -30.75 83.1875 C-24.34430845 78.18728468 -17.72694637 73.55802913 -11 69 C-14.98353235 67.67215588 -17.50827496 68.94963662 -21.29296875 70.30859375 Z M11 68 C15.27433464 72.62184152 20.11991313 76.12636721 25.25 79.75 C26.88068757 80.91078539 28.51092104 82.07220906 30.140625 83.234375 C30.85766602 83.74194336 31.57470703 84.24951172 32.31347656 84.77246094 C34 86 34 86 35 87 C37.67058851 87.14115161 40.32432238 87.04247107 43 87 C43 88.65 43 90.3 43 92 C46 93.33333333 46 93.33333333 49 92 C49.73334429 88.02245872 49.73334429 88.02245872 50 84 C50.99 84 51.98 84 53 84 C53 83.01 53 82.02 53 81 C47.34122261 79.14486225 41.68121529 77.29354546 36.02001953 75.44580078 C34.09324163 74.81632384 32.16680759 74.18579335 30.24072266 73.55419922 C27.47647817 72.64795952 24.7110301 71.74548239 21.9453125 70.84375 C21.0806839 70.55939087 20.2160553 70.27503174 19.32522583 69.98205566 C18.52454681 69.72178589 17.7238678 69.46151611 16.89892578 69.19335938 C16.1927713 68.96241577 15.48661682 68.73147217 14.75906372 68.49353027 C12.98355669 67.90995547 12.98355669 67.90995547 11 68 Z M-66 71 C-66 71.66 -66 72.32 -66 73 C-65.34 72.67 -64.68 72.34 -64 72 C-64.66 71.67 -65.32 71.34 -66 71 Z M-10 71 C-11.13680062 71.81889677 -12.27349552 72.63794032 -13.41015625 73.45703125 C-14.1462915 73.98748047 -14.88242676 74.51792969 -15.64086914 75.06445312 C-17.26518063 76.23695743 -18.88804982 77.41146222 -20.50952148 78.58789062 C-24.48402335 81.4710701 -28.46703756 84.33575085 -32.5 87.13671875 C-33.18698975 87.62100342 -33.87397949 88.10528809 -34.58178711 88.60424805 C-35.87677126 89.51678649 -37.17945652 90.41851793 -38.49047852 91.30786133 C-41.19864064 93.234657 -42.82497808 94.54214799 -44.02734375 97.6875 C-44.26697614 100.19882178 -44.26697614 100.19882178 -42 102 C-39.93125966 102.6425235 -39.93125966 102.6425235 -38 103 C-37.67 104.32 -37.34 105.64 -37 107 C-34.63350732 106.61805412 -33.32045931 106.33335333 -31.63476562 104.57983398 C-31.22935547 103.97469971 -30.82394531 103.36956543 -30.40625 102.74609375 C-29.70483887 101.72213501 -29.70483887 101.72213501 -28.98925781 100.67749023 C-28.49780273 99.93829346 -28.00634766 99.19909668 -27.5 98.4375 C-26.44490333 96.89433028 -25.38754652 95.35270382 -24.328125 93.8125 C-23.78478516 93.01972656 -23.24144531 92.22695312 -22.68164062 91.41015625 C-19.96439884 87.51575861 -17.11354956 83.72498364 -14.25 79.9375 C-13.72470703 79.24132568 -13.19941406 78.54515137 -12.65820312 77.82788086 C-11.44090148 76.21699863 -10.22079044 74.60823989 -9 73 C-9.495 72.01 -9.495 72.01 -10 71 Z M9 72 C10.2856286 74.37346818 11.60884505 76.68860902 13 79 C13.43570313 79.74121094 13.87140625 80.48242188 14.3203125 81.24609375 C16.91444803 85.44659125 16.91444803 85.44659125 21.1640625 87.50390625 C23.61985163 87.549272 23.61985163 87.549272 27 87 C26.89300781 87.60328125 26.78601563 88.2065625 26.67578125 88.828125 C25.79093221 93.8808034 25.79093221 93.8808034 27.4375 98.5625 C27.953125 99.036875 28.46875 99.51125 29 100 C29.0272415 98.58344207 29.04650467 97.16672955 29.0625 95.75 C29.07410156 94.96109375 29.08570313 94.1721875 29.09765625 93.359375 C29.00385306 91.09308998 28.63241063 89.1711105 28 87 C28.66 86.67 29.32 86.34 30 86 C26.88069958 83.65896815 23.7536553 81.3285107 20.625 79 C19.73554688 78.33226562 18.84609375 77.66453125 17.9296875 76.9765625 C17.07890625 76.34492188 16.228125 75.71328125 15.3515625 75.0625 C14.56604004 74.47597656 13.78051758 73.88945312 12.97119141 73.28515625 C11.11295871 71.81795083 11.11295871 71.81795083 9 72 Z M1 73 C1 83.56 1 94.12 1 105 C4.63 105 8.26 105 12 105 C10.76115933 100.92294261 9.51588466 96.84792373 8.26464844 92.7746582 C7.84002798 91.38913137 7.41716056 90.00306601 6.99609375 88.61645508 C6.39003849 86.62176141 5.77767459 84.62909883 5.1640625 82.63671875 C4.79748535 81.43748779 4.4309082 80.23825684 4.05322266 79.00268555 C3.09528009 75.87421625 3.09528009 75.87421625 1 73 Z M-3 74 C-7.29 87.53 -11.58 101.06 -16 115 C-15.01 115.99 -14.02 116.98 -13 118 C-12.81824219 117.30132812 -12.63648438 116.60265625 -12.44921875 115.8828125 C-12.19785156 114.97273438 -11.94648438 114.06265625 -11.6875 113.125 C-11.44386719 112.22007812 -11.20023438 111.31515625 -10.94921875 110.3828125 C-10 108 -10 108 -7 106 C-5.35 105.67 -3.7 105.34 -2 105 C-2 94.77 -2 84.54 -2 74 C-2.33 74 -2.66 74 -3 74 Z M-15 85 C-16.92351166 87.51567458 -18.837501 90.03844609 -20.75 92.5625 C-21.55824219 93.61920898 -21.55824219 93.61920898 -22.3828125 94.69726562 C-28.37697994 101.88148839 -28.37697994 101.88148839 -30.9375 110.375 C-30.03325133 112.35764383 -30.03325133 112.35764383 -27 113 C-23.82265545 112.32234967 -23.82265545 112.32234967 -22.72558594 109.62329102 C-22.31598633 108.59389404 -21.90638672 107.56449707 -21.484375 106.50390625 C-21.03835937 105.38822266 -20.59234375 104.27253906 -20.1328125 103.12304688 C-19.67648438 101.94806641 -19.22015625 100.77308594 -18.75 99.5625 C-18.27820313 98.39138672 -17.80640625 97.22027344 -17.3203125 96.01367188 C-15.53464353 91.55064071 -15.53464353 91.55064071 -14 87 C-14.33 86.34 -14.66 85.68 -15 85 Z M14 85 C15 87 15 87 15 87 Z M43 96 C43.33 96.99 43.66 97.98 44 99 C44 98.01 44 97.02 44 96 C43.67 96 43.34 96 43 96 Z M338 100 C338.33 100.66 338.66 101.32 339 102 C339.33 101.34 339.66 100.68 340 100 C339.34 100 338.68 100 338 100 Z M-46 102 C-46 107.61 -46 113.22 -46 119 C-42.7 118.34 -39.4 117.68 -36 117 C-36.33 114.69 -36.66 112.38 -37 110 C-37.94875 109.79375 -38.8975 109.5875 -39.875 109.375 C-43 108 -43 108 -44.375 104.875 C-44.58125 103.92625 -44.7875 102.9775 -45 102 C-45.33 102 -45.66 102 -46 102 Z M26 102 C26 102.99 26 103.98 26 105 C26.66 105 27.32 105 28 105 C27.67 104.01 27.34 103.02 27 102 C26.67 102 26.34 102 26 102 Z M82 102 C82 105.3 82 108.6 82 112 C82.33 112 82.66 112 83 112 C83 108.7 83 105.4 83 102 C82.67 102 82.34 102 82 102 Z M-32 114 C-32.66 114.66 -33.32 115.32 -34 116 C-31.525 116.495 -31.525 116.495 -29 117 C-29 116.34 -29 115.68 -29 115 C-29.99 114.67 -30.98 114.34 -32 114 Z M-15 121 C-15 121.66 -15 122.32 -15 123 C-14.34 123 -13.68 123 -13 123 C-13 122.34 -13 121.68 -13 121 C-13.66 121 -14.32 121 -15 121 Z " fill="#fd990e" transform="translate(238,113)"/>
<path xmlns="http://www.w3.org/2000/svg" d="M0 0 C0 0.66 0 1.32 0 2 C0.55429688 1.84402344 1.10859375 1.68804687 1.6796875 1.52734375 C2.40414062 1.33269531 3.12859375 1.13804688 3.875 0.9375 C4.95394531 0.64166016 4.95394531 0.64166016 6.0546875 0.33984375 C8 0 8 0 10 1 C10 1.66 10 2.32 10 3 C12.64 2.67 15.28 2.34 18 2 C18.33 3.32 18.66 4.64 19 6 C20.2375 5.9175 21.475 5.835 22.75 5.75 C26.69426285 5.72920424 26.69426285 5.72920424 29.1875 7.9375 C29.785625 8.618125 30.38375 9.29875 31 10 C33.64184541 10.79681318 33.64184541 10.79681318 36 11 C36 12.32 36 13.64 36 15 C36.66 15.33 37.32 15.66 38 16 C37.34 16.99 36.68 17.98 36 19 C35.34 19 34.68 19 34 19 C32.14258798 21.25345524 30.40552161 23.51793139 28.6875 25.875 C27.90149414 26.93485107 27.90149414 26.93485107 27.09960938 28.01611328 C24.17230056 31.97837299 21.29979987 35.97672647 18.45703125 40 C17.87928955 40.81355957 17.30154785 41.62711914 16.70629883 42.46533203 C15.58477963 44.04916297 14.4710718 45.63855958 13.3659668 47.23388672 C12.59700073 48.32080811 12.59700073 48.32080811 11.8125 49.4296875 C11.14154297 50.39237549 11.14154297 50.39237549 10.45703125 51.37451172 C8.79589973 53.22769766 7.24115911 53.96307092 5 55 C4.34 55.66 3.68 56.32 3 57 C0.375 56.625 0.375 56.625 -2 56 C-3.29666891 51.06009526 -3.12624049 46.17162871 -3.09765625 41.10546875 C-3.0962413 40.15811356 -3.09482635 39.21075836 -3.09336853 38.23469543 C-3.08778611 35.21893105 -3.07523682 32.20324182 -3.0625 29.1875 C-3.05748273 27.13867295 -3.05292022 25.08984473 -3.04882812 23.04101562 C-3.03782243 18.02731494 -3.02056988 13.0136702 -3 8 C-6.69920857 7.03876714 -6.69920857 7.03876714 -10.3125 7.9375 C-10.869375 8.288125 -11.42625 8.63875 -12 9 C-6.4 0 -6.4 0 0 0 Z M1 5 C1 20.51 1 36.02 1 52 C3.36307512 48.45538731 4.55975615 44.79634586 5.890625 40.7890625 C6.15889099 39.98391205 6.42715698 39.1787616 6.70355225 38.34921265 C7.26764206 36.64711521 7.82895726 34.9440961 8.38769531 33.24023438 C9.24614799 30.63668255 10.12673852 28.04128131 11.0078125 25.4453125 C11.55347468 23.78952037 12.09779079 22.13328391 12.640625 20.4765625 C12.90715881 19.70245026 13.17369263 18.92833801 13.44830322 18.13076782 C14.56836639 14.63234237 15.15838114 12.65555178 14.28027344 9.02099609 C13.16952394 6.82209205 13.16952394 6.82209205 10.875 6.1875 C9.946875 6.0946875 9.946875 6.0946875 9 6 C9 6.66 9 7.32 9 8 C6.36 7.01 3.72 6.02 1 5 Z M19 9 C15.68822441 16.81950277 12.97719289 24.8143103 10.37084961 32.88916016 C9.67894658 35.02642119 8.97537426 37.15962972 8.27148438 39.29296875 C7.83001688 40.6534149 7.38923544 42.01408391 6.94921875 43.375 C6.55049561 44.59960938 6.15177246 45.82421875 5.7409668 47.0859375 C4.68404759 49.91295879 4.68404759 49.91295879 6 52 C6.3309668 51.53851563 6.66193359 51.07703125 7.00292969 50.6015625 C8.0061943 49.20403491 9.01044075 47.80721192 10.01538086 46.41088867 C11.17965736 44.79270001 12.34190434 43.17304934 13.50219727 41.55200195 C16.45864986 37.44057847 19.45470315 33.38300628 22.60546875 29.41796875 C23.16588867 28.70447266 23.72630859 27.99097656 24.30371094 27.25585938 C25.37663546 25.89754847 26.46420666 24.55065516 27.56738281 23.21679688 C29.22790211 21.18490912 29.22790211 21.18490912 31 18 C30.71373651 15.08496898 30.71373651 15.08496898 29 13 C25.86650268 11.95550089 25.01031744 12.06576355 22 13 C21.67 11.68 21.34 10.36 21 9 C20.34 9 19.68 9 19 9 Z M-1 54 C0 56 0 56 0 56 Z " fill="#fd990e" transform="translate(238,113)"/>
<path d="M0 0 C1.39783214 0.91361578 2.79316393 1.83105746 4.1875 2.75 C5.01507813 3.29527344 5.84265625 3.84054688 6.6953125 4.40234375 C9 6 9 6 11.5625 8.3125 C15.01618248 10.70351094 17.83704521 10.71776578 22 11 C22.33 12.65 22.66 14.3 23 16 C24.65 16 26.3 16 28 16 C27.67 16.66 27.34 17.32 27 18 C26.01 18 25.02 18 24 18 C24 18.66 24 19.32 24 20 C23.34 20 22.68 20 22 20 C22.33 21.65 22.66 23.3 23 25 C22.34 24.67 21.68 24.34 21 24 C21 22.35 21 20.7 21 19 C20.34 19 19.68 19 19 19 C19 19.94875 19 20.8975 19 21.875 C19 24.25 19 26.625 19 29 C16.03 29 13.06 29 10 29 C10.14076315 27.0412957 10.2877676 25.08303907 10.4375 23.125 C10.51871094 22.03445312 10.59992188 20.94390625 10.68359375 19.8203125 C11 17 11 17 12 15 C10.35 15 8.7 15 7 15 C7.33 13.35 7.66 11.7 8 10 C5.03 8.02 2.06 6.04 -1 4 C-0.67 2.68 -0.34 1.36 0 0 Z " fill="#fd990e" transform="translate(259,189)"/>
<path d="M0 0 C4.95 0 9.9 0 15 0 C14.67 1.32 14.34 2.64 14 4 C13.34 4 12.68 4 12 4 C12 8.62 12 13.24 12 18 C9.03 18 6.06 18 3 18 C2.97294271 16.22925083 2.95357805 14.45838289 2.9375 12.6875 C2.92589844 11.70136719 2.91429687 10.71523437 2.90234375 9.69921875 C3 7 3 7 4 4 C2.68 4 1.36 4 0 4 C0 2.68 0 1.36 0 0 Z " fill="#fd990e" transform="translate(381,200)"/>
<path d="M0 0 C2.31 0 4.62 0 7 0 C6.96519531 0.59167969 6.93039062 1.18335938 6.89453125 1.79296875 C6.71928307 6.90854658 7.06511302 9.66147142 10 14 C9.67 14.99 9.34 15.98 9 17 C8.34 16.67 7.68 16.34 7 16 C7 16.99 7 17.98 7 19 C3.8125 19.1875 3.8125 19.1875 0 18 C-2.44266017 14.21508598 -5 9.59499994 -5 5 C-3.35 4.67 -1.7 4.34 0 4 C0 2.68 0 1.36 0 0 Z " fill="#fd990e" transform="translate(258,200)"/>
<path d="M0 0 C3.63 0 7.26 0 11 0 C11 3.96 11 7.92 11 12 C11.66 11.67 12.32 11.34 13 11 C13.65772428 7.97065509 13.65772428 7.97065509 14 5 C14.33 5 14.66 5 15 5 C15 7.64 15 10.28 15 13 C10.74500059 14.16045439 7.31104861 13.82904781 3 13 C1.18701995 11.18701995 1.32444995 8.38818302 0.9375 5.9375 C0.76089844 4.83277344 0.58429688 3.72804687 0.40234375 2.58984375 C0.26957031 1.73519531 0.13679688 0.88054687 0 0 Z " fill="#fd990e" transform="translate(298,213)"/>
<path d="M0 0 C4.95 0 9.9 0 15 0 C15 0.99 15 1.98 15 3 C14.34 3 13.68 3 13 3 C13 5.31 13 7.62 13 10 C12.34 10 11.68 10 11 10 C10.67 10.99 10.34 11.98 10 13 C8.68 13 7.36 13 6 13 C6 9.7 6 6.4 6 3 C4.35 3 2.7 3 1 3 C1 5.97 1 8.94 1 12 C0.67 12 0.34 12 0 12 C0 8.04 0 4.08 0 0 Z " fill="#fd990e" transform="translate(317,213)"/>
<path d="M0 0 C3.88297717 1.73108095 7.20434438 4.19966616 10.625 6.6875 C11.86951099 7.58502473 13.11430485 8.48215736 14.359375 9.37890625 C14.97232422 9.82121582 15.58527344 10.26352539 16.21679688 10.71923828 C20.11604831 13.51982331 24.05946515 16.25796884 28 19 C27.67 19.99 27.34 20.98 27 22 C21.96397758 20.40297344 18.24644143 17.37295052 14.125 14.1875 C12.75319542 13.13854924 11.38080416 12.09036525 10.0078125 11.04296875 C9.34426758 10.53556152 8.68072266 10.0281543 7.99707031 9.50537109 C5.03990805 7.27629255 2.02473813 5.13627067 -1 3 C-0.67 2.01 -0.34 1.02 0 0 Z " fill="#fd990e" transform="translate(199,146)"/>
<path d="M0 0 C8.4825462 5.54414784 8.4825462 5.54414784 11.625 8.3125 C14.69060465 10.49069278 17.29864318 10.7096975 21 11 C21 11.99 21 12.98 21 14 C16.71 14 12.42 14 8 14 C8 12.68 8 11.36 8 10 C6.02754217 8.19964598 6.02754217 8.19964598 3.5 6.75 C2.6646875 6.22921875 1.829375 5.7084375 0.96875 5.171875 C0.3190625 4.78515625 -0.330625 4.3984375 -1 4 C-0.67 2.68 -0.34 1.36 0 0 Z " fill="#fd990e" transform="translate(259,189)"/>
<path d="M0 0 C0.99 0 1.98 0 3 0 C3.39008806 2.74862047 3.76250503 5.4977234 4.125 8.25 C4.23714844 9.02730469 4.34929687 9.80460938 4.46484375 10.60546875 C5.37751589 17.72431144 5.37751589 17.72431144 3 21 C0 19 0 19 -0.75 15.5625 C-1.24077159 10.33722606 -0.62035877 5.1919257 0 0 Z " fill="#fd990e" transform="translate(313,183)"/>
<path d="M0 0 C0.66 0 1.32 0 2 0 C3.22899346 6.06815522 4.27560214 11.79895188 4 18 C2.02 18.99 2.02 18.99 0 20 C-2 18 -2 18 -2.01171875 14.12109375 C-1.91451534 12.5591814 -1.80596634 10.99794366 -1.6875 9.4375 C-1.63916016 8.64408203 -1.59082031 7.85066406 -1.54101562 7.03320312 C-1.14368704 1.14368704 -1.14368704 1.14368704 0 0 Z " fill="#fd990e" transform="translate(355,183)"/>
<path d="M0 0 C0.66 0.33 1.32 0.66 2 1 C2 1.99 2 2.98 2 4 C0.47119141 5.41040039 0.47119141 5.41040039 -1.6484375 6.84765625 C-2.40640625 7.37037109 -3.164375 7.89308594 -3.9453125 8.43164062 C-4.74710937 8.96982422 -5.54890625 9.50800781 -6.375 10.0625 C-7.94637333 11.13516637 -9.51673268 12.20932006 -11.0859375 13.28515625 C-11.7876709 13.75832275 -12.4894043 14.23148926 -13.21240234 14.71899414 C-15.12399818 16.01540885 -15.12399818 16.01540885 -17 18 C-17.66 18 -18.32 18 -19 18 C-18.66734584 15.08866004 -18.45223009 13.45089844 -16.34179688 11.34667969 C-15.64119141 10.87649414 -14.94058594 10.40630859 -14.21875 9.921875 C-13.45949219 9.40109375 -12.70023438 8.8803125 -11.91796875 8.34375 C-11.12003906 7.8178125 -10.32210937 7.291875 -9.5 6.75 C-7.92686829 5.68260853 -6.35394066 4.6149162 -4.78125 3.546875 C-4.08064453 3.08120117 -3.38003906 2.61552734 -2.65820312 2.13574219 C-1.04240243 1.1036729 -1.04240243 1.1036729 0 0 Z " fill="#fd990e" transform="translate(265,153)"/>
<path d="M0 0 C0.33 0 0.66 0 1 0 C1 2.97 1 5.94 1 9 C1.66 9 2.32 9 3 9 C3 8.34 3 7.68 3 7 C3.66 7 4.32 7 5 7 C5.33 4.69 5.66 2.38 6 0 C6.99 0 7.98 0 9 0 C9 3.63 9 7.26 9 11 C6.03 11 3.06 11 0 11 C0 7.37 0 3.74 0 0 Z " fill="#fd990e" transform="translate(384,207)"/>
<path d="M0 0 C0 1.65 0 3.3 0 5 C0.99 4.67 1.98 4.34 3 4 C3 5.98 3 7.96 3 10 C0.69 10.33 -1.62 10.66 -4 11 C-4 7.7 -4 4.4 -4 1 C-1 0 -1 0 0 0 Z " fill="#fd990e" transform="translate(373,205)"/>
<path d="M0 0 C0 4.29 0 8.58 0 13 C-2.97 13 -5.94 13 -9 13 C-9 9.37 -9 5.74 -9 2 C-8.67 2 -8.34 2 -8 2 C-8 4.97 -8 7.94 -8 11 C-7.21625 10.649375 -6.4325 10.29875 -5.625 9.9375 C-4.75875 9.628125 -3.8925 9.31875 -3 9 C-2.34 9.33 -1.68 9.66 -1 10 C-1.58803797 6.97580475 -2.22678118 3.98241547 -3 1 C-1 0 -1 0 0 0 Z " fill="#fd990e" transform="translate(377,205)"/>
<path d="M0 0 C2.31 0 4.62 0 7 0 C6.34 2.97 5.68 5.94 5 9 C4.34 8.67 3.68 8.34 3 8 C2.67 8.99 2.34 9.98 2 11 C1.34 11 0.68 11 0 11 C0 7.37 0 3.74 0 0 Z " fill="#fd990e" transform="translate(271,205)"/>
<path d="M0 0 C1.98 0 3.96 0 6 0 C6 2.64 6 5.28 6 8 C4.02 8 2.04 8 0 8 C0 5.36 0 2.72 0 0 Z " fill="#fd990e" transform="translate(301,217)"/>
<path d="M0 0 C1.98 0 3.96 0 6 0 C6 2.64 6 5.28 6 8 C4.02 8 2.04 8 0 8 C0 5.36 0 2.72 0 0 Z " fill="#fd990e" transform="translate(118,203)"/>
<path d="M0 0 C1.65 0 3.3 0 5 0 C5 3.63 5 7.26 5 11 C4.67 10.01 4.34 9.02 4 8 C3.34 8 2.68 8 2 8 C2 8.66 2 9.32 2 10 C1.34 10 0.68 10 0 10 C0 6.7 0 3.4 0 0 Z " fill="#fd990e" transform="translate(385,206)"/>
<path d="M0 0 C1.65 0 3.3 0 5 0 C5 2.97 5 5.94 5 9 C3.02 9.99 3.02 9.99 1 11 C0.34 10.34 -0.32 9.68 -1 9 C-0.9765625 6.8359375 -0.9765625 6.8359375 -0.625 4.375 C-0.51414062 3.55773437 -0.40328125 2.74046875 -0.2890625 1.8984375 C-0.19367188 1.27195313 -0.09828125 0.64546875 0 0 Z " fill="#fd990e" transform="translate(318,216)"/>
<path d="M0 0 C1.65 0 3.3 0 5 0 C5 2.64 5 5.28 5 8 C3.35 8 1.7 8 0 8 C0 5.36 0 2.72 0 0 Z " fill="#fd990e" transform="translate(144,199)"/>
<path d="M0 0 C1.40742022 2.81484045 0.66652164 4.56936113 0.0625 7.625 C-0.13214844 8.62789062 -0.32679688 9.63078125 -0.52734375 10.6640625 C-0.76130859 11.82035156 -0.76130859 11.82035156 -1 13 C-1.66 13 -2.32 13 -3 13 C-4.63676257 14.9600281 -4.63676257 14.9600281 -6 17 C-5.45388522 11.81190963 -3.84540159 3.84540159 0 0 Z " fill="#fd990e" transform="translate(226,208)"/>
<path d="M0 0 C3.63 0 7.26 0 11 0 C11.33 0.99 11.66 1.98 12 3 C7.71 3 3.42 3 -1 3 C-0.67 2.01 -0.34 1.02 0 0 Z " fill="#fd990e" transform="translate(383,200)"/>
<path d="M0 0 C3.63 0 7.26 0 11 0 C11.33 0.99 11.66 1.98 12 3 C7.71 3 3.42 3 -1 3 C-0.67 2.01 -0.34 1.02 0 0 Z " fill="#fd990e" transform="translate(367,200)"/>
<path d="M0 0 C1.32 0 2.64 0 4 0 C3.67 3.63 3.34 7.26 3 11 C2.01 10.67 1.02 10.34 0 10 C0 6.7 0 3.4 0 0 Z " fill="#fd990e" transform="translate(267,204)"/>
<path d="M0 0 C1.71872538 2.57808807 2.48218488 4.10424011 3.25 7 C3.44078125 7.680625 3.6315625 8.36125 3.828125 9.0625 C4 11 4 11 2 14 C-0.66464729 8.77729131 -1.32854177 5.9180497 0 0 Z " fill="#fd990e" transform="translate(229,145)"/>
<path d="M0 0 C1.32 0 2.64 0 4 0 C4 2.31 4 4.62 4 7 C2.68 7 1.36 7 0 7 C0 4.69 0 2.38 0 0 Z " fill="#fd990e" transform="translate(324,218)"/>
<path d="M0 0 C0.33 0 0.66 0 1 0 C1 3.96 1 7.92 1 12 C0.67 12 0.34 12 0 12 C-0.33 9.69 -0.66 7.38 -1 5 C-3.97 4.505 -3.97 4.505 -7 4 C-7 3.34 -7 2.68 -7 2 C-4.69 2 -2.38 2 0 2 C0 1.34 0 0.68 0 0 Z " fill="#fd990e" transform="translate(308,213)"/>
<path d="M0 0 C0.99 0 1.98 0 3 0 C3 2.97 3 5.94 3 9 C2.01 9 1.02 9 0 9 C0 6.03 0 3.06 0 0 Z " fill="#fd990e" transform="translate(369,207)"/>
<path d="M0 0 C0.99 0 1.98 0 3 0 C3 2.31 3 4.62 3 7 C2.01 7.33 1.02 7.66 0 8 C0 5.36 0 2.72 0 0 Z " fill="#fd990e" transform="translate(390,207)"/>
<path d="M0 0 C0.99 0.33 1.98 0.66 3 1 C3 2.65 3 4.3 3 6 C2.01 6 1.02 6 0 6 C0 4.02 0 2.04 0 0 Z M-2 6 C-1.01 6.495 -1.01 6.495 0 7 C-0.99 7.495 -0.99 7.495 -2 8 C-2 7.34 -2 6.68 -2 6 Z " fill="#fd990e" transform="translate(56,214)"/>
<path d="M0 0 C0.66 0.33 1.32 0.66 2 1 C1.67 1.66 1.34 2.32 1 3 C1.66 3.33 2.32 3.66 3 4 C0.09399739 5.25664978 -1.79604584 6 -5 6 C-3.35 4.02 -1.7 2.04 0 0 Z " fill="#fd990e" transform="translate(231,115)"/>
<path d="M0 0 C0.99 0 1.98 0 3 0 C3 0.99 3 1.98 3 3 C2.34 3 1.68 3 1 3 C1 5.97 1 8.94 1 12 C0.67 12 0.34 12 0 12 C0 8.04 0 4.08 0 0 Z " fill="#fd990e" transform="translate(317,213)"/>
<path d="M0 0 C0 2.31 0 4.62 0 7 C-0.66 7 -1.32 7 -2 7 C-2 5.35 -2 3.7 -2 2 C-3.32 1.67 -4.64 1.34 -6 1 C-3.92446352 0.4465236 -2.15634036 0 0 0 Z " fill="#fd990e" transform="translate(126,201)"/>
<path d="M0 0 C1.98 0 3.96 0 6 0 C6 0.99 6 1.98 6 3 C4.02 3 2.04 3 0 3 C0 2.01 0 1.02 0 0 Z " fill="#fd990e" transform="translate(258,200)"/>
<path d="M0 0 C0.99 0 1.98 0 3 0 C3 1.98 3 3.96 3 6 C2.01 6.33 1.02 6.66 0 7 C0 4.69 0 2.38 0 0 Z " fill="#fd990e" transform="translate(66,188)"/>
</svg>