<?xml version="1.0" encoding="utf-8"?>
<!-- Generator: Adobe Illustrator 27.5.0, SVG Export Plug-In . SVG Version: 6.00 Build 0)  -->
<svg version="1.1" xmlns="http://www.w3.org/2000/svg" xmlns:xlink="http://www.w3.org/1999/xlink" x="0px" y="0px"
	 viewBox="0 0 750 500" style="enable-background:new 0 0 750 500;" xml:space="preserve">
<g id="BACKGROUND">
	<rect style="fill:#FAFAFC00;" width="750" height="500"/>
	<g>
		<path style="fill:#FFFFFF;" d="M200.165,0h-61.321C125.438,78.975,71.933,144.29,0,174.263v64.54
			C105.66,205.075,185.126,112.732,200.165,0z"/>
		<path style="fill:#FFFFFF;" d="M750,317.557v-97.284C624.709,199.004,521.088,114.12,473.536,0H371.144
			C424.654,167.628,571.154,293.698,750,317.557z"/>
	</g>
</g>
<g id="OBJECTS">
	<g>
		<g>
			<path style="fill:#FFFFFF;" d="M350.466,399.315c-2.727,0-5.479-0.096-8.278-0.31c-22.662-1.738-45.891-9.212-67.176-21.61
				c-27.651-16.108-52.801-40.188-76.889-73.614c-19.687-27.318-31.51-51.149-37.209-74.998c-7.108-29.747-3.582-59.774,9.676-82.38
				c16.046-27.36,47.046-45.538,80.903-47.441c31.031-1.738,63.56,9.984,89.253,32.175c12.566,10.853,23.258,23.848,33.598,36.416
				c4.128,5.018,8.397,10.206,12.715,15.171c12.871,14.799,30.596,32.791,53.604,40.636c9.345,3.186,19.397,4.611,29.12,5.989
				c5.991,0.849,12.187,1.727,18.222,3.01c13.957,2.968,32.457,9.83,41.332,25.669c8.635,15.41,6.299,36.998-6.41,59.228
				c-17.229,30.134-45.353,53.869-79.188,66.834c-15.007,5.749-29.714,7.729-45.284,9.827c-2.452,0.33-4.918,0.662-7.402,1.012
				c-2.627,0.37-5.235,0.76-7.832,1.147C372.13,397.732,361.531,399.315,350.466,399.315z M277.026,373.938
				c20.766,12.098,43.405,19.387,65.468,21.079c13.702,1.048,26.541-0.867,40.135-2.897c2.607-0.39,5.227-0.78,7.865-1.152
				c2.492-0.351,4.966-0.684,7.426-1.016c15.333-2.065,29.815-4.015,44.387-9.597c32.978-12.636,60.375-35.75,77.148-65.085
				c17.035-29.796,10.146-48.59,6.393-55.287c-8.143-14.532-25.525-20.916-38.674-23.712c-5.9-1.254-12.026-2.123-17.951-2.962
				c-9.905-1.404-20.148-2.855-29.85-6.163c-23.913-8.153-42.131-26.62-55.331-41.797c-4.354-5.006-8.641-10.216-12.786-15.255
				c-10.233-12.439-20.815-25.3-33.123-35.93c-24.917-21.519-56.417-32.893-86.414-31.209
				c-32.537,1.828-62.301,19.251-77.678,45.471c-12.74,21.724-16.106,50.674-9.235,79.427c5.574,23.324,17.192,46.707,36.564,73.589
				C225.122,334.404,249.869,358.118,277.026,373.938L277.026,373.938z"/>
		</g>
		<g>
			<path style="fill:#257B98;" d="M577.991,423.277c5.332-1.805,9.992-4.895,12.389-9.879c2.697-5.609,1.807-12.182,1.304-18.386
				c-0.408-5.03-0.726-12.269,2.709-16.484c3.129-3.839,10.219-5.577,14.749-7.624c5.331-2.409,11.015-5.132,13.859-10.245
				c3.817-6.861,1.288-15.829,4.726-22.887c4.959-10.182,20.202-12.49,24.139-23.109c2.687-7.246-1.039-15.941,2.479-22.822
				c3.968-7.763,14.069-11.634,19.586-18.329c6.088-7.389,4.877-19.157-3.469-24.402c-6.097-3.831-14.799-2.826-19.862,2.294
				c-6.632,6.706-6.667,18.417-14.166,24.137c-5.043,3.847-11.948,3.782-18.004,5.668c-7.763,2.417-14.342,8.387-17.501,15.879
				c-3.129,7.421-3.483,16.776-9.972,21.546c-6.265,4.604-15.013,2.494-22.67,3.84c-7.39,1.298-14.062,6.191-17.522,12.848
				c-2.446,4.707-3.45,10.324-7.197,14.079c-3.694,3.702-7.733,3.845-12.465,4.38c-4.462,0.505-7.776,2.245-11.191,5.322
				c-6.687,6.024-10.667,15.085-10.602,24.08c0.096,13.338,8.164,25.891,19.309,33.219c11.145,7.327,24.973,9.833,38.282,8.955
				C570.581,425.115,574.435,424.482,577.991,423.277z"/>
			<g>
				<g>
					<path style="fill:#016587;" d="M540.434,405.178c-0.231,0-0.462-0.079-0.651-0.241c-0.419-0.359-0.467-0.99-0.107-1.41
						L662.54,260.244c0.359-0.419,0.99-0.467,1.41-0.107c0.419,0.359,0.467,0.99,0.107,1.41L541.192,404.829
						C540.995,405.06,540.715,405.178,540.434,405.178z"/>
				</g>
				<g>
					<path style="fill:#016587;" d="M654.088,272.637c-0.553,0-1-0.447-1-1v-8.507c0-0.553,0.447-1,1-1c0.553,0,1,0.447,1,1v8.507
						C655.088,272.19,654.641,272.637,654.088,272.637z"/>
				</g>
				<g>
					<path style="fill:#016587;" d="M640.417,288.58c-0.428,0-0.823-0.275-0.955-0.705c-0.163-0.527,0.133-1.088,0.66-1.25
						l11.641-3.592c0.53-0.162,1.088,0.133,1.25,0.66c0.163,0.527-0.133,1.088-0.66,1.25l-11.641,3.592
						C640.613,288.565,640.515,288.58,640.417,288.58z"/>
				</g>
				<g>
					<path style="fill:#016587;" d="M620.781,311.478c-0.536,0-0.98-0.426-0.998-0.966l-0.678-19.743
						c-0.02-0.552,0.413-1.015,0.965-1.033c0.569-0.042,1.015,0.413,1.033,0.965l0.678,19.743c0.019,0.552-0.413,1.015-0.965,1.033
						C620.805,311.478,620.793,311.478,620.781,311.478z"/>
				</g>
				<g>
					<path style="fill:#016587;" d="M609.636,324.476c-0.497,0-0.929-0.37-0.991-0.877c-0.068-0.548,0.32-1.047,0.869-1.115
						l24.574-3.057c0.539-0.077,1.048,0.32,1.115,0.869c0.068,0.548-0.32,1.047-0.869,1.115l-24.574,3.057
						C609.719,324.474,609.677,324.476,609.636,324.476z"/>
				</g>
				<g>
					<path style="fill:#016587;" d="M586.844,351.056c-0.553,0-1-0.447-1-1v-20.529c0-0.553,0.447-1,1-1c0.553,0,1,0.447,1,1v20.529
						C587.844,350.608,587.396,351.056,586.844,351.056z"/>
				</g>
				<g>
					<path style="fill:#016587;" d="M576.019,363.68c-0.509,0-0.943-0.386-0.994-0.902c-0.054-0.55,0.348-1.039,0.897-1.093
						l31.907-3.131c0.555-0.046,1.039,0.349,1.093,0.897c0.054,0.55-0.348,1.039-0.897,1.093l-31.907,3.131
						C576.084,363.678,576.051,363.68,576.019,363.68z"/>
				</g>
				<g>
					<path style="fill:#016587;" d="M562.69,379.386c-0.553,0-1-0.447-1-1v-33.563c0-0.553,0.447-1,1-1c0.553,0,1,0.447,1,1v33.563
						C563.69,378.939,563.243,379.386,562.69,379.386z"/>
				</g>
			</g>
		</g>
		<g>
			<path style="fill:#75B693;" d="M564.828,424.34c19.168,0.266,38.381-5.145,54.593-15.375
				c16.212-10.23,29.365-25.243,37.375-42.66c-18.993-0.048-38.22,4.967-54.346,15.002
				C586.324,391.342,573.173,407.279,564.828,424.34z"/>
			<path style="fill:#7FC89B;" d="M656.796,366.305c-18.993-0.048-38.22,4.967-54.346,15.002
				c-16.125,10.035-29.276,25.972-37.622,43.034L656.796,366.305z"/>
		</g>
		<g>
			<path style="fill:#9ED3FF;" d="M295.851,241.764c0,0,18.78-7.193,32.1-0.345c17.138,8.81,61.564,81.562,61.564,81.562
				s36.589-63.304,40.019-69.861c3.43-6.557,10.643-9.034,14.66-8.081l5.385-10.395c0,0,15.375,14.989,29.889,15.865l-4.28,10.1
				c0,0,6.143,4.515,0.044,17.104c-6.098,12.589-48.767,87.07-59.63,100.85c-6.851,8.691-27.231,19.315-48.003-4.236
				c-20.772-23.552-43.259-58.015-43.259-58.015"/>
			<g>
				<path style="fill:#3A407E;" d="M467.411,261.107c-0.018,0-0.036-0.001-0.054-0.003c-0.16-0.017-16.111-1.842-22.979-14.455
					c-0.132-0.243-0.042-0.546,0.2-0.678c0.242-0.132,0.546-0.043,0.679,0.2c6.612,12.147,22.051,13.923,22.206,13.94
					c0.274,0.029,0.474,0.275,0.444,0.55C467.88,260.917,467.663,261.107,467.411,261.107z"/>
			</g>
			<path style="fill:#9ED3FF;" d="M330.315,264.543c0,0,8.318,49.289,8.889,85.116c0.572,35.827,1.453,76.871,1.453,76.871H212.67
				c0,0-17.581-193.358-1.342-193.358c16.606,0,41.454,7.947,41.454,7.947l43.068,0.645"/>
			<path style="fill:#3A407E;" d="M217.707,369.261l-6.616,42.649c0.957,9.126,1.579,14.619,1.579,14.619h127.988
				c0,0-0.648-30.159-1.193-61.338l-0.416-2.221L217.707,369.261z"/>
			<path style="fill:#FAFAFC;" d="M208.212,342.166c31.752,4.958,51.359,8.017,71.117,8.684c20.13,0.679,40.476-1.18,59.721-6.998
				c-0.467-12.834-1.758-26.878-3.211-39.538c-18.289,5.083-37.497,6.706-56.51,6.064c-19.973-0.674-39.784-3.791-72.15-8.845
				C207.325,314.648,207.709,328.564,208.212,342.166z"/>
			<g>
				<path style="fill:#3A407E;" d="M340.658,427.029c-0.272,0-0.494-0.217-0.5-0.489c-0.009-0.41-0.888-41.455-1.454-76.873
					c-0.564-35.378-8.799-84.548-8.882-85.041c-0.046-0.273,0.138-0.53,0.41-0.576c0.27-0.05,0.53,0.139,0.576,0.41
					c0.083,0.493,8.331,49.736,8.896,85.191c0.565,35.415,1.445,76.457,1.454,76.867c0.006,0.276-0.213,0.505-0.489,0.511
					C340.665,427.029,340.662,427.029,340.658,427.029z"/>
			</g>
			<path style="fill:#9ED3FF;" d="M219.761,235.176c7.404,4.548,6.937,9.978,6.511,26.255l-8.565,107.83
				c0,0,68.331,4.194,80.754,5.917c12.423,1.723,15.514,9.517,15.514,9.517h18.275c-11.494,21.316,0,41.128,0,41.128
				s-74.607,0-94.094,0c-19.487,0-57.454,3.964-69.319-5.683c-11.864-9.647,1.996-125.916,12.059-158.014
				C190.959,230.029,213.305,231.211,219.761,235.176z"/>
			<path style="fill:#3A407E;" d="M336.995,416.548c-0.266,1.292-0.58,2.488-0.942,3.575c-0.966,2.935-2.258,5.036-3.804,5.7
				c0,0-1.365-2.343-2.681-6.304c-0.387-1.147-0.761-2.427-1.099-3.828c-1.606-6.57-2.355-15.724,1.316-25.555
				c0.387-1.051,0.833-2.113,1.328-3.176c0.35-0.761,0.724-1.51,1.135-2.271c0.688,0.628,1.304,1.389,1.848,2.271
				c0.592,0.942,1.123,2.005,1.57,3.176C338.505,397.418,338.674,408.601,336.995,416.548z"/>
			<g>
				<path style="fill:#3A407E;" d="M312.341,420.311c-0.208,0-0.402-0.131-0.473-0.338c-0.018-0.054-1.832-5.407-2.528-12.409
					c-0.645-6.488-0.438-15.769,4.212-23.136c0.147-0.234,0.457-0.305,0.689-0.156c0.234,0.147,0.304,0.456,0.156,0.689
					c-8.627,13.67-1.654,34.479-1.583,34.688c0.089,0.262-0.05,0.546-0.311,0.635C312.45,420.303,312.395,420.311,312.341,420.311z"
					/>
			</g>
			<g>
				<path style="fill:#3A407E;" d="M333.102,385.195h-19.128c-0.204,0-0.388-0.125-0.464-0.314
					c-0.03-0.075-3.162-7.549-15.119-9.208c-12.262-1.7-80.032-5.87-80.715-5.912c-0.134-0.008-0.259-0.07-0.347-0.171
					c-0.088-0.102-0.132-0.234-0.121-0.368l8.565-107.83c0.023-0.274,0.258-0.477,0.538-0.458c0.275,0.022,0.481,0.263,0.459,0.538
					l-8.525,107.322c6.292,0.389,68.549,4.262,80.284,5.889c11.292,1.566,15.031,7.986,15.769,9.513h18.805
					c0.276,0,0.5,0.224,0.5,0.5S333.379,385.195,333.102,385.195z"/>
			</g>
			<path style="fill:#3A407E;" d="M479.466,250.503c-1.534-0.097-3.067-0.338-4.601-0.713c-8.587-2.077-16.859-8.031-21.497-11.811
				c-2.379-1.956-3.792-3.333-3.792-3.333s1.498,0.072,3.877,0.471c5.507,0.942,15.736,3.635,22.753,11.159
				C477.401,247.544,478.5,248.945,479.466,250.503z"/>
			<path style="fill:#FEC39D;" d="M483.125,228.185l-6.92,18.091l-1.341,3.514c-8.587-2.077-16.859-8.031-21.497-11.811
				c0.036-0.749,0.06-1.739,0.084-2.862c0.109-5.64,0.157-14.987-0.725-18.586c-1.28-5.314-5.121-13.635-3.563-15.724
				c1.57-2.077,11.533,6.365,13.804,12.512L483.125,228.185z"/>
			<g>
				
					<rect x="449.168" y="175.851" transform="matrix(0.7071 -0.7071 0.7071 0.7071 -7.4642 378.508)" style="fill:#257B98;" width="7.999" height="44.826"/>
				<path style="fill:#122030;" d="M453.001,202.384c1.942-1.735,3.219-3.666,4.195-5.747l-17.049-17.049l-5.656,5.656l17.77,17.77
					C452.527,202.794,452.78,202.581,453.001,202.384z"/>
				<circle style="fill:#FFC100;" cx="433.738" cy="178.835" r="27.477"/>
				<path style="fill:#122030;" d="M428.734,178.523c2.235,2.235,2.973,5.12,1.648,6.445c-1.325,1.325-4.21,0.587-6.445-1.648
					c-2.235-2.235-2.973-5.12-1.648-6.445C423.614,175.55,426.5,176.288,428.734,178.523z"/>
				<path style="fill:#122030;" d="M433.426,173.831c2.235,2.235,5.12,2.973,6.445,1.648c1.325-1.325,0.587-4.21-1.648-6.445
					c-2.235-2.235-5.12-2.973-6.445-1.648C430.453,168.711,431.191,171.596,433.426,173.831z"/>
				<path style="fill:#FFFFFF;" d="M448.7,173.823l-19.973,19.973c5.563,2.513,12.33,1.5,16.901-3.072
					C450.199,186.153,451.212,179.386,448.7,173.823z"/>
			</g>
			<path style="fill:#FEC39D;" d="M479.467,202.304c-6.699-0.775-18.541,11.56-18.462,14.535c0.078,2.975,6.846,0.504,6.846,0.504
				s-3.828,5.837-2.078,7.604c1.75,1.768,4.791-0.836,4.791-0.836s-4.664,6.134-3.267,8.17c1.397,2.035,6.988-1.569,6.988-1.569
				s-2.667,5.644-0.671,6.792c1.996,1.149,17.219-10.88,16.005-12.879c-1.215-1.998-4.751-2.186-4.751-2.186s5.59-6.747,3.611-8.882
				c-1.979-2.135-4.986,0.277-4.986,0.277s3.264-4.91,1.669-6.989c-1.595-2.079-4.944,0.469-4.944,0.469
				S481.772,202.57,479.467,202.304z"/>
			<g>
				<path style="fill:#E87555;" d="M473.905,238.059c-0.214,0-0.395-0.04-0.539-0.123c-1.697-0.976-0.83-4.146-0.12-6.037
					c-1.879,1.011-5.161,2.412-6.36,0.664c-1.069-1.559,0.575-4.712,1.934-6.826c-1.083,0.432-2.389,0.583-3.401-0.439
					c-1.514-1.528,0.225-5.164,1.311-7.072c-1.587,0.45-4.174,0.98-5.445,0.116c-0.493-0.335-0.763-0.85-0.78-1.489
					c-0.007-0.276,0.211-0.506,0.486-0.513c0.005,0,0.01,0,0.014,0c0.271,0,0.492,0.215,0.5,0.487
					c0.009,0.321,0.114,0.533,0.342,0.688c1.037,0.705,4.128-0.019,5.833-0.642c0.203-0.074,0.43-0.01,0.564,0.159
					c0.134,0.169,0.145,0.404,0.026,0.585c-1.394,2.126-3.207,5.901-2.14,6.978c1.404,1.422,4.084-0.841,4.11-0.864
					c0.194-0.166,0.483-0.158,0.668,0.016c0.187,0.175,0.21,0.463,0.056,0.667c-1.719,2.261-4.121,6.319-3.253,7.584
					c0.846,1.233,4.611-0.616,6.305-1.706c0.189-0.12,0.434-0.102,0.6,0.044c0.168,0.147,0.219,0.388,0.123,0.589
					c-0.805,1.706-2.078,5.452-0.873,6.145c0.701,0.302,5.201-2.205,10.412-6.677c4.238-3.638,4.983-5.244,4.91-5.52
					c-0.143-0.236-0.066-0.538,0.17-0.681c0.236-0.143,0.547-0.062,0.69,0.174c0.317,0.521,0.349,1.462-2.252,4.126
					C484.824,231.533,476.666,238.059,473.905,238.059z"/>
			</g>
			<path style="fill:#FEC39D;" d="M380.738,397.998c0,0,4.432,4.179-4.77,7.886c0,0,3.212,4.275-4.336,6.896
				c0,0,3.249,6.522-8.744,6.522c-7.898,0-16.412-1.643-25.893-2.754c-1.51-0.181-3.043-0.338-4.601-0.483
				c-1.618-0.157-2.947-0.278-3.925-0.374c-1.606-6.57-2.355-15.724,1.316-25.555h8.43c0,0,6.147-4.77,11.546-6.473
				c0,0,13.719-13.683,13.719-9.843c0,4.13-4.758,16.267-4.758,16.267s16.896,0,23.345,0
				C388.515,390.087,386.643,394.833,380.738,397.998z"/>
			<path style="fill:#122030;" d="M302.781,202.321c8.761-1.5,16.34-8.472,18.564-17.078c0.709-2.744,0.515-6.058-1.205-8.311
				c4.669-0.088,9.139-2.142,12.809-5.03c-3.399-0.345-6.186-3.012-7.737-6.056c-1.552-3.044-2.116-6.475-2.881-9.805
				c-0.764-3.33-1.812-6.731-4.096-9.271c-2.394-2.663-6.073-4.114-9.64-3.803c-3.567,0.311-6.939,2.376-8.837,5.413
				c-1.152-9.586-6.243-18.158-15.327-21.43c-9.083-3.272-19.925-0.996-26.925,5.652c-2.427,2.305-4.389,5.051-6.675,7.495
				c-2.286,2.444-5.024,4.648-8.283,5.411c-3.259,0.763-7.104-0.249-8.893-3.078c-1.431,2.983-1.214,6.418-0.044,9.513
				c1.169,3.095,3.646,5.671,6.692,6.962c-5.199-0.263-10.007,5.301-11.043,10.402c-1.036,5.101,0.842,10.42,3.755,14.734
				c2.913,4.314,6.807,7.852,10.4,11.619c3.46,3.628,6.665,7.497,9.584,11.572c2.418,3.376,4.933,7.121,8.88,8.413
				c2.537,0.831,5.296,0.499,7.925,0.033C282.328,213.46,290.243,204.468,302.781,202.321z"/>
			<g>
				<g>
					<g>
						<g>
							<g>
								<path style="fill:#FEC39D;" d="M260.443,236.255l-5.761-32.763c0,0-14.638,5.02-15.78-6.937
									c-1.017-10.654,10.576-11.457,16.144-6.446c0,0-9.993-37.207,22.202-40.139c32.195-2.931,32.47,41.161,32.585,51.831
									c0.203,18.794-13.292,27.803-23.042,28.73l-0.165,6.96c0,0,0.765,10.086-8.711,10.458
									C265.285,248.446,260.443,236.255,260.443,236.255z"/>
							</g>
						</g>
						<g>
							<path style="fill:#122030;" d="M289.052,204.017c0.066,0.009,0.132,0.009,0.2,0.001c1.391-0.172,2.616-0.887,3.448-2.013
								c0.834-1.126,1.157-2.506,0.914-3.883l-1.434-8.13c-0.075-0.431-0.49-0.721-0.919-0.644
								c-0.433,0.075-0.721,0.488-0.644,0.919l1.434,8.13c0.166,0.946-0.057,1.893-0.627,2.665
								c-0.573,0.772-1.411,1.263-2.365,1.379c-0.437,0.053-0.746,0.451-0.692,0.885
								C288.413,203.693,288.702,203.971,289.052,204.017z"/>
						</g>
						<g>
							<path style="fill:#122030;" d="M303.016,185.471c2.544-2.419-9.456-8.856-8.899-2.639
								C294.275,184.595,301.518,186.895,303.016,185.471z"/>
						</g>
						<g>
							<path style="fill:#122030;" d="M276.141,185.471c-2.544-2.419,9.456-8.856,8.899-2.639
								C284.882,184.595,277.639,186.895,276.141,185.471z"/>
						</g>
						<g>
							<g>
								<path style="fill:#122030;" d="M278.65,193.052c-0.27,1.891,1.044,3.643,2.936,3.913c1.891,0.27,3.643-1.044,3.913-2.936
									c0.27-1.891-1.045-3.643-2.936-3.913C280.672,189.847,278.92,191.161,278.65,193.052z"/>
							</g>
						</g>
						<g>
							<g>
								<path style="fill:#122030;" d="M295.667,192.874c-0.27,1.891,1.044,3.643,2.936,3.913c1.891,0.27,3.643-1.044,3.913-2.936
									c0.27-1.891-1.045-3.643-2.936-3.913C297.689,189.669,295.937,190.983,295.667,192.874z"/>
							</g>
						</g>
						<g>
							<path style="fill:#122030;" d="M290.105,209.649c0.295,0.039,0.592,0.065,0.888,0.083c0.439,0.024,0.815-0.31,0.839-0.747
								c0.024-0.437-0.327-0.834-0.747-0.839c-2.659-0.151-5.297-1.332-7.19-3.236c-0.312-0.31-0.813-0.311-1.124-0.004
								c-0.312,0.31-0.313,0.812-0.004,1.124C284.721,207.997,287.357,209.288,290.105,209.649z"/>
						</g>
						<g>
							<path style="fill:#122030;" d="M252.252,198.445c0.055,0.007,0.112,0.008,0.171,0.004c0.437-0.037,0.76-0.422,0.724-0.858
								c-0.178-2.124-1.433-4.114-3.271-5.196c-1.84-1.082-4.187-1.209-6.131-0.333c-0.399,0.181-0.578,0.652-0.399,1.051
								c0.183,0.4,0.653,0.574,1.051,0.399c1.484-0.671,3.271-0.574,4.674,0.25c1.402,0.827,2.357,2.343,2.494,3.964
								C251.596,198.102,251.889,198.397,252.252,198.445z"/>
						</g>
						<g>
							<path style="fill:#122030;" d="M309.42,189.288c0,0-8.568-10.256-11.652-21.996c0,0-7.579,13.838-33.295,23.692
								c0,0,1.682,12.929-0.501,12.983c-2.184,0.055-5.209-7.111-8.925-13.859c-3.716-6.749-8.975-12.789-8.975-12.789l15.951-27.5
								l10.042-3.558l12.156-0.669l10.855,4.57l8.636,5.521l6.879,12.811l1.829,10.398L309.42,189.288z"/>
						</g>
						<path style="fill:#FEA889;" d="M277.874,205.505c-1.808,2.516-5.512,2.424-7.193-0.18c-0.934-1.447-0.886-3.403,0.119-4.801
							c1.808-2.518,5.515-2.426,7.195,0.18C278.928,202.151,278.879,204.107,277.874,205.505z"/>
						<path style="fill:#FEA889;" d="M306.907,206.46c-1.808,2.516-5.512,2.424-7.193-0.18c-0.934-1.447-0.886-3.403,0.119-4.801
							c1.808-2.518,5.515-2.426,7.195,0.18C307.961,203.106,307.912,205.062,306.907,206.46z"/>
					</g>
				</g>
			</g>
			<path style="fill:#9ED3FF;" d="M295.851,241.764l-2.467-12.95c0,0-3.023,1.98-12.558,1.809
				c-5.701-0.102-10.671-4.433-10.671-4.433s-13.354,1.05-15.577,1.845c-2.223,0.795-1.796,13.085-1.796,13.085
				s13.946,8.173,26.463,9.68C291.762,252.305,295.851,241.764,295.851,241.764z"/>
			<path style="fill:#3A407E;" d="M293.384,228.813l0.079,3.712c-8.533,2.364-19.867-0.924-23.307-6.336
				c0,0,5.721,3.576,11.421,3.678C291.112,230.038,293.384,228.813,293.384,228.813z"/>
			<g>
				<path style="fill:#3A407E;" d="M274.858,247.872c-6.061,0-12.123-1.104-17.796-3.316c-0.257-0.1-0.385-0.39-0.284-0.648
					c0.101-0.258,0.391-0.386,0.647-0.284c11.486,4.479,24.596,4.32,35.968-0.437c0.255-0.105,0.548,0.014,0.654,0.269
					c0.107,0.255-0.014,0.548-0.268,0.654C287.788,246.616,281.323,247.872,274.858,247.872z"/>
			</g>
		</g>
		<g>
			<rect x="358.721" y="314.614" style="fill:#FFC100;" width="140.523" height="111.208"/>
			
				<rect x="499.244" y="314.614" transform="matrix(-1 -1.224647e-16 1.224647e-16 -1 1046.873 740.437)" style="fill:#B57F27;" width="48.385" height="111.208"/>
			<polygon style="fill:#C2984C;" points="528.356,388.185 528.356,314.614 518.516,314.614 518.516,388.185 521.639,386.64 
				523.058,388.648 524.929,386.575 526.219,388.962 			"/>
			<path style="fill:#F7EDC9;" d="M436.713,361.412h47.805c2.001,0,3.623-1.622,3.623-3.623v-28.004
				c0-2.001-1.622-3.623-3.623-3.623h-47.805c-2.001,0-3.623,1.622-3.623,3.623v28.004
				C433.09,359.79,434.712,361.412,436.713,361.412z"/>
			<rect x="437.921" y="330.992" style="fill:#EDD27B;" width="45.39" height="6.098"/>
			
				<ellipse transform="matrix(0.7071 -0.7071 0.7071 0.7071 -156.7763 392.5946)" style="fill:#F75244;" cx="395.515" cy="385.543" rx="22.995" ry="22.995"/>
			<path style="fill:#C2984C;" d="M547.629,392.477c-6.339,0.815-11.241,6.219-11.241,12.779c0,6.561,4.902,11.965,11.241,12.779
				V392.477z"/>
		</g>
		<g>
			<path style="fill:#257B98;" d="M532.032,307.681L532.032,307.681c1.614,0,2.922-1.308,2.922-2.922v-22.739
				c0-1.614-1.308-2.922-2.922-2.922l0,0l-45.302-5.488l-36.482,14.652l-7.042,0.53c-8.371,0.63-14.902,7.504-15.102,15.897v0
				c-0.039,1.64,1.28,2.991,2.921,2.991h0.319H532.032z"/>
			<path style="fill:#FFFFFF;" d="M450.248,288.263l-7.042,0.53c-8.371,0.63-14.902,7.504-15.101,15.897
				c-0.039,1.64,1.28,2.991,2.921,2.991h27.716C458.741,307.681,460.093,295.09,450.248,288.263z"/>
			<path style="fill:#FFC83A;" d="M486.73,273.612l-36.482,14.652c1.867,1.294,3.33,2.797,4.477,4.38
				c8.302-2.356,30.813-8.838,35.588-11.193c2.87-1.416,4.491-4.234,5.403-6.75L486.73,273.612z"/>
			<path style="fill:#FFFFFF;" d="M471.838,287.653c0,0,4.402,15.444,19.63,15.444c15.228,0,40.564-23.998,40.564-23.998
				l-3.931-0.476c0,0-20.076,18.089-32.935,16.638c-7.481-0.844-10.934-11.509-10.934-11.509L471.838,287.653z"/>
			<path style="fill:#FFC83A;" d="M531.343,290.201c-7.123,0-12.896,5.774-12.896,12.897c0,1.617,0.31,3.158,0.854,4.584h12.731
				c1.614,0,2.922-1.308,2.922-2.922v-14.037C533.807,290.389,532.598,290.201,531.343,290.201z"/>
			<path style="fill:#016587;" d="M486.73,273.612l1.433-14.156c0.159-1.575,1.544-2.736,3.122-2.619l42.164,3.119
				c1.61,0.119,2.818,1.521,2.698,3.131l-0.992,13.309c-0.114,1.525-1.384,2.705-2.914,2.705h-0.21L486.73,273.612z"/>
			<g>
				
					<rect x="511.436" y="239.677" transform="matrix(0.0786 -0.9969 0.9969 0.0786 208.757 753.3978)" style="fill:#257B98;" width="0.999" height="48.186"/>
			</g>
			<g>
				
					<rect x="510.999" y="243.866" transform="matrix(0.1032 -0.9947 0.9947 0.1032 192.3365 748.9406)" style="fill:#257B98;" width="1" height="47.885"/>
			</g>
			<g>
				
					<rect x="510.721" y="247.872" transform="matrix(0.1322 -0.9912 0.9912 0.1322 173.9219 742.8593)" style="fill:#257B98;" width="1.001" height="48.455"/>
			</g>
			<g>
				<g>
					<path style="fill:#FFFFFF;" d="M482.557,279.897c-0.531,0-1.046-0.282-1.318-0.782l-1.992-3.654
						c-0.397-0.728-0.128-1.639,0.6-2.035c0.726-0.393,1.639-0.129,2.035,0.6l1.992,3.654c0.397,0.728,0.128,1.639-0.6,2.035
						C483.046,279.838,482.8,279.897,482.557,279.897z"/>
				</g>
				<g>
					<path style="fill:#FFFFFF;" d="M476.343,282.454c-0.531,0-1.046-0.283-1.318-0.782l-1.991-3.654
						c-0.396-0.728-0.128-1.639,0.6-2.035c0.725-0.395,1.639-0.127,2.035,0.6l1.991,3.654c0.397,0.728,0.128,1.639-0.6,2.035
						C476.832,282.396,476.586,282.454,476.343,282.454z"/>
				</g>
				<g>
					<path style="fill:#FFFFFF;" d="M469.921,284.628c-0.531,0-1.046-0.282-1.318-0.782l-1.783-3.271
						c-0.396-0.728-0.128-1.638,0.6-2.035c0.725-0.395,1.639-0.129,2.035,0.6l1.783,3.271c0.397,0.728,0.128,1.638-0.6,2.035
						C470.41,284.569,470.164,284.628,469.921,284.628z"/>
				</g>
				<g>
					<path style="fill:#FFFFFF;" d="M463.363,286.554c-0.531,0-1.046-0.282-1.318-0.782l-1.439-2.639
						c-0.396-0.728-0.128-1.639,0.6-2.035c0.725-0.394,1.638-0.129,2.035,0.6l1.439,2.639c0.397,0.728,0.128,1.639-0.6,2.035
						C463.852,286.495,463.606,286.554,463.363,286.554z"/>
				</g>
			</g>
			<path style="fill:#257B98;" d="M486.68,259.259l31.781,2.647c0.675,0.056,1.172,0.657,1.101,1.331l-0.92,8.694
				c-0.07,0.659-0.657,1.138-1.316,1.075l-31.779-3.044c-0.671-0.064-1.159-0.665-1.085-1.335l0.918-8.297
				C485.452,259.679,486.028,259.204,486.68,259.259z"/>
			<rect x="428.033" y="307.566" style="fill:#FEFCF5;" width="106.92" height="7.048"/>
		</g>
		<g>
			<g>
				<path style="fill:#FAFAFC;" d="M538.081,205.173c0,10.313,2.786,12.978,9.548,12.978c-6.762,0-9.548,2.665-9.548,12.978
					c0-10.313-2.786-12.978-9.548-12.978C535.295,218.151,538.081,215.486,538.081,205.173z"/>
			</g>
			<g>
				<path style="fill:#FAFAFC;" d="M403.798,246.637c0,10.313,2.786,12.978,9.548,12.978c-6.762,0-9.548,2.665-9.548,12.978
					c0-10.313-2.786-12.978-9.548-12.978C401.011,259.615,403.798,256.95,403.798,246.637z"/>
			</g>
			<g>
				<path style="fill:#FAFAFC;" d="M562.585,294.704c0,10.313,2.786,12.978,9.548,12.978c-6.762,0-9.548,2.665-9.548,12.978
					c0-10.313-2.786-12.978-9.548-12.978C559.798,307.681,562.585,305.016,562.585,294.704z"/>
			</g>
			<g>
				<path style="fill:#FAFAFC;" d="M552.178,230.643c0,5.788,1.564,7.284,5.359,7.284c-3.795,0-5.359,1.496-5.359,7.284
					c0-5.788-1.564-7.284-5.359-7.284C550.615,237.926,552.178,236.431,552.178,230.643z"/>
			</g>
		</g>
		<g>
			<path style="fill:#9ED3FF;" d="M332.975,73.668c-15.286-0.203-27.843,12.024-28.045,27.31c-0.083,6.286,1.96,12.092,5.429,16.785
				l-3.351,9.813l8.306-4.65c4.646,3.729,10.508,6.011,16.927,6.097c15.286,0.203,27.842-12.024,28.045-27.311
				C360.488,86.427,348.261,73.871,332.975,73.668z"/>
			<path style="fill:#FFFFFF;" d="M336.625,101.399c-0.03,2.219-1.852,3.994-4.072,3.965c-2.219-0.029-3.994-1.852-3.965-4.072
				c0.029-2.219,1.852-3.994,4.072-3.965C334.88,97.357,336.655,99.18,336.625,101.399z M318.581,97.141
				c-2.219-0.03-4.042,1.746-4.072,3.965c-0.029,2.219,1.746,4.042,3.965,4.072c2.219,0.029,4.042-1.746,4.072-3.965
				C322.576,98.993,320.8,97.17,318.581,97.141z M346.633,105.551c2.219,0.029,4.042-1.746,4.072-3.965
				c0.029-2.219-1.746-4.042-3.965-4.072c-2.219-0.029-4.042,1.746-4.072,3.965C342.639,103.699,344.414,105.521,346.633,105.551z"
				/>
		</g>
		<rect x="72.249" y="423.188" style="fill:#122030;" width="600.617" height="3.289"/>
		<g>
			<path style="fill:#257B98;" d="M587.082,131.441H426.954c-13.34,0-24.154-10.814-24.154-24.154v-9.763
				c0-13.34,10.814-24.154,24.154-24.154h160.128c13.34,0,24.154,10.814,24.154,24.154v9.763
				C611.236,120.627,600.422,131.441,587.082,131.441z"/>
			<g>
				<polygon style="fill:#FFC100;" points="444.117,87.836 448.852,97.428 459.438,98.966 451.777,106.433 453.586,116.976 
					444.117,111.998 434.649,116.976 436.457,106.433 428.797,98.966 439.383,97.428 				"/>
				<polygon style="fill:#FFC100;" points="486.051,87.836 490.785,97.428 501.371,98.966 493.711,106.433 495.52,116.976 
					486.051,111.998 476.583,116.976 478.391,106.433 470.731,98.966 481.317,97.428 				"/>
				<polygon style="fill:#FFC100;" points="527.985,87.836 532.719,97.428 543.305,98.966 535.645,106.433 537.453,116.976 
					527.985,111.998 518.517,116.976 520.325,106.433 512.665,98.966 523.251,97.428 				"/>
				<polygon style="fill:#FFC100;" points="569.919,87.836 574.653,97.428 585.239,98.966 577.579,106.433 579.387,116.976 
					569.919,111.998 560.451,116.976 562.259,106.433 554.599,98.966 565.185,97.428 				"/>
			</g>
		</g>
		<g>
			<g>
				<g>
					<path style="fill:#9ED3FF;" d="M596.128,232.015h-25.437c-9.757,0-17.667-7.91-17.667-17.667l0,0
						c0-9.757,7.91-17.667,17.667-17.667h25.437c9.757,0,17.667,7.91,17.667,17.667l0,0
						C613.794,224.106,605.885,232.015,596.128,232.015z"/>
				</g>
				<g>
					<path style="fill:#FFFFFF;" d="M597.24,209.79c2.518,0,4.558,2.041,4.558,4.558s-2.041,4.558-4.558,4.558
						c-2.517,0-4.558-2.041-4.558-4.558S594.722,209.79,597.24,209.79z M578.851,214.349c0,2.518,2.041,4.558,4.558,4.558
						c2.517,0,4.558-2.041,4.558-4.558s-2.041-4.558-4.558-4.558C580.892,209.79,578.851,211.831,578.851,214.349z M569.579,209.79
						c-2.518,0-4.558,2.041-4.558,4.558s2.041,4.558,4.558,4.558s4.558-2.041,4.558-4.558S572.096,209.79,569.579,209.79z"/>
				</g>
			</g>
			<g>
				<polygon style="fill:#9ED3FF;" points="571.595,229.736 571.595,238 580.69,228.905 				"/>
			</g>
		</g>
		<g>
			<path style="fill:#122030;" d="M596.128,196.682h-7.083v2.173c0,3.335,2.703,6.038,6.038,6.038h15.951
				C607.9,199.963,602.403,196.682,596.128,196.682z"/>
			<path style="fill:#7FC89B;" d="M651.099,202.27h-53.392c-3.335,0-6.038-2.704-6.038-6.038v-42.238
				c0-3.335,2.704-6.038,6.038-6.038h53.392c3.335,0,6.039,2.703,6.039,6.038v42.238C657.137,199.566,654.434,202.27,651.099,202.27
				z"/>
			<g>
				<path style="fill:#FFFFFF;" d="M644.448,172.787L644.448,172.787c-0.001-1.05-0.854-1.9-1.904-1.899l-5.69,0.007l-5.516-11.645
					c-0.456-0.964-1.608-1.375-2.572-0.918c-0.964,0.457-1.375,1.608-0.918,2.571l4.736,9.997l-16.366,0.021l4.71-10.009
					c0.454-0.965,0.04-2.115-0.925-2.569c-0.965-0.454-2.115-0.04-2.569,0.925l-5.486,11.659l-5.69,0.007
					c-1.05,0.001-1.9,0.854-1.899,1.904c0.001,1.05,0.854,1.9,1.904,1.899l1.307-0.002l4.106,15.831
					c0.231,0.892,1.037,1.514,1.958,1.513l21.589-0.028c0.922-0.001,1.725-0.626,1.954-1.518l4.065-15.842l1.307-0.002
					C643.599,174.689,644.449,173.837,644.448,172.787z M619.095,188.596l-0.314,0.071c-0.494,0.112-0.985-0.199-1.097-0.693
					l-1.991-8.819c-0.112-0.494,0.198-0.985,0.693-1.097l0.314-0.071c0.494-0.112,0.985,0.199,1.097,0.693l1.991,8.819
					C619.899,187.994,619.589,188.485,619.095,188.596z M624.584,188.757l-0.322,0c-0.507,0.001-0.918-0.41-0.918-0.916
					l-0.012-9.041c-0.001-0.507,0.409-0.918,0.916-0.918l0.322-0.001c0.507-0.001,0.918,0.41,0.918,0.916l0.012,9.041
					C625.501,188.345,625.091,188.756,624.584,188.757z M631.161,187.957c-0.11,0.494-0.6,0.806-1.095,0.695l-0.314-0.07
					c-0.494-0.11-0.806-0.601-0.696-1.095l1.968-8.824c0.11-0.494,0.601-0.806,1.095-0.696l0.314,0.07
					c0.495,0.11,0.806,0.601,0.695,1.095L631.161,187.957z"/>
			</g>
		</g>
		<g>
			<path style="fill:#FFC100;" d="M193.769,129.658h-44.028c-5.475,0-9.913,4.438-9.913,9.913v27.739
				c0,5.475,4.438,9.913,9.913,9.913h13.168l8.85,8.851l8.851-8.851h13.16c5.474,0,9.913-4.438,9.913-9.913v-27.739
				C203.682,134.096,199.244,129.658,193.769,129.658z"/>
			<path style="fill:#FFFFFF;" d="M175.178,160.963l-3.42,2.214l-3.42-2.211c-8.551-5.528-8.551-9.477-8.551-10.962
				c0-3.479,2.817-6.299,6.299-6.299c2.492,0,4.645,1.449,5.672,3.549c1.021-2.1,3.174-3.549,5.665-3.549
				c3.482,0,6.299,2.82,6.299,6.299C183.722,151.489,183.722,155.435,175.178,160.963z"/>
		</g>
		<g>
			<path style="fill:#EDD27B;" d="M198.636,423.188H87.044v-11.615h111.592c3.207,0,5.807,2.6,5.807,5.807l0,0
				C204.443,420.588,201.843,423.188,198.636,423.188z"/>
			<path style="fill:#FAFAFC;" d="M139.592,420.753H87.044v-6.745h52.548c1.863,0,3.373,1.51,3.373,3.373l0,0
				C142.964,419.243,141.454,420.753,139.592,420.753z"/>
		</g>
		<g>
			<path style="fill:#F75244;" d="M192.676,411.573H81.084v-11.615h111.592c3.207,0,5.807,2.6,5.807,5.807l0,0
				C198.483,408.973,195.883,411.573,192.676,411.573z"/>
			<path style="fill:#FAFAFC;" d="M133.632,409.138H81.084v-6.745h52.548c1.863,0,3.373,1.51,3.373,3.373l0,0
				C137.005,407.628,135.495,409.138,133.632,409.138z"/>
		</g>
		<g>
			<path style="fill:#BDD8F3;" d="M532.899,194.336c-3.117,0-6.225-0.59-9.077-1.803c-5.725-2.436-10.353-7.354-12.702-13.137
				c-3.174,0.456-6.506,0.154-9.594-0.989c-6.438-2.384-11.683-8.066-14.032-15.197c-2.059-6.248-1.919-13.627,0.394-20.778
				c0.17-0.525,0.73-0.812,1.259-0.644c0.525,0.17,0.814,0.734,0.644,1.259c-2.183,6.75-2.323,13.688-0.396,19.537
				c2.16,6.559,6.955,11.773,12.827,13.948c2.646,0.98,5.489,1.274,8.214,0.947c-0.451-1.462-0.758-2.967-0.901-4.488
				c-0.394-4.154,0.543-7.763,2.636-10.162c2.396-2.743,7.22-3.981,10.317-1.372c1.357,1.143,2.129,2.768,2.234,4.698
				c0.149,2.725-1.095,5.892-3.168,8.068c-2.231,2.342-5.198,3.968-8.437,4.78c2.191,5.148,6.358,9.507,11.488,11.689
				c7.1,3.023,15.925,1.823,21.96-2.981c0.434-0.346,1.062-0.271,1.405,0.16c0.344,0.432,0.272,1.061-0.159,1.405
				C543.644,192.593,538.257,194.336,532.899,194.336z M518.374,162.019c-1.743,0-3.578,0.843-4.696,2.125
				c-2.333,2.673-2.351,6.572-2.153,8.659c0.139,1.468,0.443,2.917,0.894,4.323c2.957-0.702,5.667-2.16,7.688-4.282
				c1.711-1.797,2.738-4.379,2.618-6.58c-0.076-1.385-0.589-2.488-1.526-3.278C520.4,162.314,519.403,162.019,518.374,162.019z"/>
		</g>
		<path style="fill:#FFFFFF;" d="M143.023,377.456H89.695c-5.523,0-10-4.477-10-10V240.187c0-5.523,4.477-10,10-10h53.328
			c5.523,0,10,4.477,10,10v127.269C153.023,372.979,148.546,377.456,143.023,377.456z"/>
		<g>
			<g>
				
					<ellipse transform="matrix(0.9706 -0.2408 0.2408 0.9706 -58.8759 37.4019)" style="fill:#FFC100;" cx="123.604" cy="259.611" rx="15.558" ry="15.558"/>
				<path style="fill:#FAFAFC;" d="M121.725,257.482c0,1.789-0.86,3.24-1.921,3.24s-1.921-1.451-1.921-3.24
					c0-1.79,0.86-3.24,1.921-3.24S121.725,255.693,121.725,257.482z"/>
				<path style="fill:#FAFAFC;" d="M125.482,257.482c0,1.789,0.86,3.24,1.921,3.24c1.061,0,1.921-1.451,1.921-3.24
					c0-1.79-0.86-3.24-1.921-3.24C126.342,254.242,125.482,255.693,125.482,257.482z"/>
				<g>
					<path style="fill:#FAFAFC;" d="M123.603,270.131c-3.946,0-7.535-2.484-8.932-6.183c-0.195-0.517,0.065-1.094,0.582-1.289
						c0.517-0.195,1.093,0.065,1.289,0.582c1.105,2.925,3.942,4.89,7.061,4.89c3.119,0,5.957-1.965,7.062-4.89
						c0.196-0.517,0.772-0.777,1.289-0.582c0.517,0.195,0.777,0.772,0.582,1.289C131.139,267.647,127.549,270.131,123.603,270.131z"
						/>
				</g>
			</g>
			<g>
				<circle style="fill:#FFC100;" cx="123.604" cy="303.822" r="15.558"/>
				<ellipse style="fill:#FAFAFC;" cx="119.805" cy="301.693" rx="1.921" ry="3.24"/>
				<ellipse style="fill:#FAFAFC;" cx="127.403" cy="301.693" rx="1.921" ry="3.24"/>
				<g>
					<path style="fill:#FAFAFC;" d="M131.601,309.661h-15.994c-0.552,0-1-0.447-1-1c0-0.553,0.448-1,1-1h15.994c0.552,0,1,0.447,1,1
						C132.601,309.214,132.153,309.661,131.601,309.661z"/>
				</g>
			</g>
			<g>
				<circle style="fill:#FFC100;" cx="123.604" cy="348.033" r="15.558"/>
				<ellipse style="fill:#FAFAFC;" cx="119.805" cy="345.048" rx="1.921" ry="3.24"/>
				<ellipse style="fill:#FAFAFC;" cx="127.403" cy="345.048" rx="1.921" ry="3.24"/>
				<g>
					<path style="fill:#FAFAFC;" d="M131.601,356.658c-0.404,0-0.784-0.246-0.936-0.647c-1.104-2.926-3.942-4.891-7.061-4.891
						c-3.119,0-5.957,1.965-7.062,4.891c-0.196,0.518-0.772,0.776-1.289,0.582c-0.517-0.195-0.777-0.773-0.582-1.289
						c1.397-3.698,4.987-6.184,8.933-6.184s7.535,2.485,8.932,6.184c0.195,0.517-0.065,1.094-0.582,1.289
						C131.837,356.638,131.718,356.658,131.601,356.658z"/>
				</g>
			</g>
			<rect x="93.556" y="302.146" style="fill:#F7EDC9;" width="5.575" height="5.575"/>
			<rect x="93.556" y="257.935" style="fill:#F7EDC9;" width="5.575" height="5.575"/>
			<rect x="93.556" y="346.107" style="fill:#F7EDC9;" width="5.575" height="5.575"/>
		</g>
		<path style="fill:#7FC89B;" d="M92.64,260.908c5.709-18.643,16.243-35.919,30.245-49.488c3.711,3.583,7.021,7.617,10.147,11.721
			c-17.843,8.475-32.979,24.003-39.712,42.573c-4.821-6.199-13.734-10.058-20.847-13.388c0.865-3.618,1.848-7.702,3.485-11.043
			C82.358,246.268,89.54,253.411,92.64,260.908z"/>
		<g>
			<g>
				<g>
					<polygon style="fill:#257B98;" points="90.23,134.747 90.23,146.962 103.674,133.518 					"/>
				</g>
				<path style="fill:#122030;" d="M173.773,129.658h-24.032c-5.475,0-9.913,3.438-9.913,8.912v3.012h25.914
					c4.436,0,8.032-3.596,8.032-8.032V129.658z"/>
				<g>
					<path style="fill:#257B98;" d="M169.621,138.704c4.436,0,8.032-3.596,8.032-8.032V95.247c0-4.436-3.596-8.032-8.032-8.032
						H85.072c-4.436,0-8.032,3.596-8.032,8.032v35.425c0,4.436,3.596,8.032,8.032,8.032H169.621z"/>
				</g>
				<g>
					<g>
						<path style="fill:#FFFFFF;" d="M112.851,124.563H93.246c-1.934,0-3.502-1.568-3.502-3.502s1.568-3.502,3.502-3.502h19.605
							c1.934,0,3.502,1.568,3.502,3.502S114.784,124.563,112.851,124.563z"/>
					</g>
					<g>
						<path style="fill:#FFFFFF;" d="M161.446,108.36h-68.2c-1.934,0-3.502-1.568-3.502-3.502s1.568-3.501,3.502-3.501h68.2
							c1.934,0,3.501,1.568,3.501,3.501S163.38,108.36,161.446,108.36z"/>
					</g>
				</g>
			</g>
		</g>
	</g>
</g>
</svg>
