<svg xmlns="http://www.w3.org/2000/svg" version="1.0" preserveAspectRatio="xMidYMid meet" viewBox="0 23.16 540 130.84">

<g transform="translate(0.000000,175.000000) scale(0.100000,-0.100000)" fill="#fd990e" stroke="none">
<path d="M3010 1502 c0 -29 -8 -31 -50 -11 -58 28 -65 23 -21 -16 44 -40 59 -91 32 -112 -12 -9 -13 -15 -4 -21 9 -6 6 -105 -12 -432 -14 -234 -25 -440 -25 -457 0 -26 -4 -33 -20 -33 -14 0 -22 10 -28 32 -4 18 -18 38 -29 43 -12 6 -28 17 -38 25 -15 12 -15 14 0 23 15 8 15 11 -2 29 -10 11 -16 21 -14 22 2 0 1 11 -3 22 -4 13 -18 24 -34 27 -30 6 -37 2 -47 -30 -5 -18 -2 -23 12 -23 15 0 14 -2 -5 -16 -13 -9 -26 -13 -29 -10 -7 7 -53 -33 -53 -46 0 -16 19 -7 25 12 3 11 10 20 15 20 5 0 2 -12 -6 -27 -13 -26 -12 -29 7 -46 12 -10 25 -15 28 -11 3 3 -2 11 -12 18 -19 14 -23 36 -7 36 6 0 19 -9 30 -20 11 -11 27 -20 35 -20 9 0 12 -6 9 -15 -4 -8 -2 -21 4 -28 7 -8 4 -20 -13 -39 -20 -23 -32 -28 -70 -28 l-45 0 0 40 c0 23 -5 40 -11 40 -8 0 -9 15 -5 45 l7 45 -90 0 c-50 0 -91 4 -91 9 0 15 -56 32 -83 26 -14 -4 -31 -13 -38 -21 -9 -11 -44 -14 -153 -14 -129 0 -143 -2 -159 -20 -9 -11 -17 -25 -17 -31 0 -6 -19 -9 -47 -7 l-48 3 -3 89 c-2 55 2 101 9 119 11 25 10 31 -3 41 -9 7 -19 29 -23 49 -9 47 -21 47 -30 0 -4 -20 -13 -42 -21 -48 -12 -8 -13 -16 -5 -38 6 -16 11 -68 11 -117 0 -78 -2 -91 -19 -100 -11 -5 -22 -10 -24 -10 -5 0 -21 262 -22 353 l0 67 -57 0 c-65 0 -62 -4 -58 98 1 36 -1 42 -19 42 -18 0 -21 6 -21 40 0 29 -4 40 -15 40 -11 0 -12 5 -5 26 13 33 -5 73 -42 94 -25 13 -31 13 -55 0 -38 -21 -56 -61 -43 -94 7 -21 6 -26 -5 -26 -11 0 -15 -11 -15 -40 0 -28 -4 -40 -15 -40 -18 0 -19 -87 -1 -109 8 -11 8 -13 -1 -8 -9 5 -13 -8 -15 -45 -3 -47 -6 -53 -26 -56 -35 -5 -61 23 -55 59 4 27 2 29 -26 29 -29 0 -43 -14 -21 -22 6 -2 3 -18 -7 -40 -19 -41 -47 -50 -56 -18 -5 20 -25 25 -89 20 -22 -1 -28 3 -28 18 0 17 -5 19 -45 14 l-45 -5 0 39 c0 22 -4 34 -8 28 -9 -12 -92 -13 -92 0 0 5 -3 6 -7 2 -4 -4 -6 -23 -4 -42 2 -32 1 -35 -18 -29 -17 5 -21 2 -21 -14 0 -17 -6 -21 -35 -21 -32 0 -35 -2 -25 -19 13 -25 13 -54 0 -46 -6 4 -10 -5 -10 -19 0 -23 -4 -26 -35 -26 -28 0 -35 -4 -35 -20 0 -14 -7 -20 -24 -20 l-24 0 -4 198 c-3 191 -4 199 -31 257 -28 60 -53 95 -69 95 -4 0 -8 -31 -8 -70 l0 -70 -40 0 c-39 0 -40 -1 -41 -37 -1 -21 -6 20 -10 92 -5 71 -11 135 -13 142 -3 7 -21 13 -41 13 -26 0 -35 -4 -36 -17 0 -15 -2 -15 -9 2 -5 11 -9 62 -9 113 -1 50 -5 92 -10 92 -19 0 -81 -81 -98 -129 -10 -28 -23 -51 -30 -51 -10 0 -13 -80 -13 -380 l0 -380 -40 0 c-22 0 -40 -4 -40 -10 0 -5 -21 -10 -47 -10 l-48 -1 28 -24 c25 -22 27 -30 27 -92 -1 -82 -14 -104 -59 -99 l-31 3 0 -53 0 -54 2700 0 2700 0 0 49 c0 44 -3 50 -22 53 l-23 3 -3 315 c-2 307 -3 315 -24 337 -46 49 -166 51 -243 3 -18 -11 -41 -20 -52 -20 -32 0 -43 -21 -43 -82 0 -45 -3 -58 -15 -58 -12 0 -15 15 -15 74 0 41 -4 78 -10 81 -5 3 -10 19 -10 36 l0 29 -70 0 -70 0 0 -35 c0 -24 -5 -35 -15 -35 -12 0 -15 -15 -15 -76 l0 -76 -37 4 -38 3 -3 -92 c-2 -74 -6 -93 -17 -93 -13 0 -15 54 -15 385 0 272 -3 385 -11 385 -6 0 -13 -9 -16 -20 -5 -18 -14 -20 -99 -20 -87 0 -94 1 -94 20 0 11 -4 20 -10 20 -6 0 -10 -113 -10 -320 l0 -320 -26 0 -27 0 5 110 c4 87 2 110 -9 110 -8 0 -13 12 -13 30 0 22 -16 53 -55 104 -48 64 -55 78 -55 119 0 26 -4 47 -10 47 -5 0 -10 -22 -10 -49 0 -44 -6 -56 -55 -120 -38 -50 -55 -80 -55 -101 0 -18 -5 -30 -13 -30 -11 0 -13 -23 -9 -110 l5 -110 -32 0 c-21 0 -31 -5 -31 -15 0 -8 -7 -15 -15 -15 -11 0 -15 -11 -15 -40 0 -56 -25 -54 -34 3 -4 23 -11 56 -17 74 -9 28 -15 32 -52 35 -23 2 -63 1 -89 0 -43 -4 -48 -7 -48 -27 0 -13 -4 -27 -10 -30 -5 -3 -10 -21 -10 -40 0 -53 -8 -65 -46 -65 l-34 0 5 45 c4 43 3 45 -30 61 -19 9 -35 23 -35 31 0 11 -7 14 -25 11 -14 -3 -28 -1 -31 3 -8 13 -57 10 -77 -5 -26 -20 -134 23 -216 85 l-66 51 68 -64 c70 -65 78 -78 51 -78 -10 0 -2 -15 25 -48 23 -27 41 -56 41 -65 0 -9 5 -17 10 -17 26 0 50 -84 50 -177 0 -88 -1 -93 -22 -98 -44 -9 -108 -13 -108 -6 0 4 -13 6 -28 3 -23 -3 -30 1 -41 24 -10 22 -10 29 1 35 19 12 28 11 28 -5 0 -7 7 -19 15 -26 10 -9 15 -9 15 -1 0 6 -5 11 -11 11 -7 0 -8 7 -4 18 4 9 7 25 7 34 0 10 4 18 10 18 7 0 22 10 35 22 27 25 43 16 24 -13 -16 -27 -10 -33 15 -15 17 13 18 18 7 48 l-13 33 20 -25 c14 -18 20 -20 20 -10 0 20 -19 40 -39 40 -9 0 -27 9 -41 20 -24 19 -24 19 -2 13 26 -6 27 -1 7 31 -25 37 -85 16 -85 -30 0 -12 -5 -26 -10 -29 -8 -5 -7 -11 0 -20 15 -18 7 -29 -29 -44 -20 -9 -31 -22 -35 -42 -5 -27 -30 -48 -42 -36 -8 8 -56 868 -50 906 4 25 1 38 -12 47 -10 8 -12 13 -4 14 6 0 12 12 12 26 0 18 13 38 37 62 33 30 34 34 13 27 -14 -4 -35 -13 -47 -21 -30 -19 -35 -18 -31 8 2 15 -3 24 -14 26 -12 2 -18 -3 -18 -16z m1301 -435 c9 -16 8 -18 -7 -15 -9 1 -26 23 -36 48 l-19 45 26 -30 c14 -16 30 -38 36 -48z m-121 23 c-18 -35 -40 -53 -40 -33 0 8 49 73 56 73 2 0 -5 -18 -16 -40z m74 -17 c6 -17 3 -23 -8 -23 -12 0 -16 10 -16 38 1 38 10 32 24 -15z m-44 7 c0 -20 -5 -30 -15 -30 -18 0 -18 2 -3 35 15 32 18 32 18 -5z m-83 -92 c-3 -7 -5 -2 -5 12 0 14 2 19 5 13 2 -7 2 -19 0 -25z m43 12 c0 -11 -4 -20 -10 -20 -5 0 -10 9 -10 20 0 11 5 20 10 20 6 0 10 -9 10 -20z m40 0 c0 -11 -4 -20 -10 -20 -5 0 -10 9 -10 20 0 11 5 20 10 20 6 0 10 -9 10 -20z m40 0 c0 -11 -4 -20 -10 -20 -5 0 -10 9 -10 20 0 11 5 20 10 20 6 0 10 -9 10 -20z m40 0 c0 -11 -4 -20 -10 -20 -5 0 -10 9 -10 20 0 11 5 20 10 20 6 0 10 -9 10 -20z m27 -12 c-3 -7 -5 -2 -5 12 0 14 2 19 5 13 2 -7 2 -19 0 -25z m593 7 c0 -14 -14 -17 -65 -17 -30 0 -35 2 -35 17 0 11 12 15 50 15 38 0 50 -4 50 -15z m293 -12 c3 -5 -5 -8 -18 -8 -13 0 -21 3 -18 8 2 4 10 7 18 7 8 0 16 -3 18 -7z m-3546 -150 c-3 -10 -5 -4 -5 12 0 17 2 24 5 18 2 -7 2 -21 0 -30z m20 -50 c-2 -16 -4 -5 -4 22 0 28 2 40 4 28 2 -13 2 -35 0 -50z m38 14 c-6 -49 -15 -43 -15 9 0 33 3 44 9 35 5 -8 8 -28 6 -44z m35 21 c0 -18 -5 -40 -10 -48 -7 -11 -10 -2 -10 33 0 26 5 47 10 47 6 0 10 -15 10 -32z m-909 -41 c-13 -13 -15 1 -4 30 7 17 8 17 11 -1 2 -10 -1 -23 -7 -29z m-24 1 c-3 -8 -6 -5 -6 6 -1 11 2 17 5 13 3 -3 4 -12 1 -19z m3013 -9 c0 -5 -4 -7 -10 -4 -5 3 -10 0 -11 -7 0 -10 -2 -10 -6 0 -2 6 -9 10 -14 6 -5 -3 -9 0 -9 5 0 6 11 11 25 11 14 0 25 -5 25 -11z m80 3 c0 -11 -39 -12 -45 -1 -4 5 5 9 19 9 14 0 26 -4 26 -8z m-2044 -29 c-10 -10 -19 5 -10 18 6 11 8 11 12 0 2 -7 1 -15 -2 -18z m1694 -313 c0 -38 -4 -70 -8 -70 -5 0 -24 7 -41 16 -26 13 -32 21 -27 38 3 11 6 29 6 38 0 22 27 48 51 48 17 0 19 -8 19 -70z m-3450 -14 c0 -41 -5 -78 -10 -81 -6 -4 -10 23 -10 74 0 47 4 81 10 81 6 0 10 -31 10 -74z m2761 -23 c33 -9 21 -23 -20 -23 l-40 0 9 31 c5 18 7 36 4 41 -3 5 -2 17 2 26 5 12 9 5 16 -27 7 -29 16 -45 29 -48z m336 26 l1 -49 -34 0 c-36 0 -46 14 -15 23 12 3 20 18 25 47 8 54 20 43 23 -21z m-2393 23 c2 -4 -4 -8 -15 -8 -10 0 -19 4 -19 8 0 4 6 8 14 8 8 0 17 -4 20 -8z m1988 -47 c-7 -15 -20 -25 -32 -25 -24 0 -26 13 -5 30 8 7 15 22 15 33 0 20 1 20 17 5 14 -14 15 -22 5 -43z m-735 13 c2 -17 0 -19 -7 -8 -5 8 -6 18 -4 22 8 12 10 10 11 -14z"/>
<path d="M3850 893 c0 -22 5 -28 23 -29 12 -1 32 -5 43 -9 19 -6 22 -3 20 19 -1 20 -6 26 -23 26 -12 0 -25 5 -28 10 -13 21 -35 10 -35 -17z"/>
</g>
</svg>