<svg xmlns="http://www.w3.org/2000/svg" xmlns:xlink="http://www.w3.org/1999/xlink" overflow="hidden" viewBox="0 0 1280 720"><g><rect x="0" y="0" width="1280" height="720" fill="#FFFFFF00"/><path d="M18.1312 328.877 131.888 462.454C141.336 473.548 158.856 472.2 166.496 459.793L300.729 241.768C311.273 224.642 294.578 203.724 275.541 210.208L27.5513 294.655C13.2089 299.537 8.30833 317.343 18.1312 328.877Z" fill="#FD990E" fill-rule="evenodd" fill-opacity="0.8"/><path d="M342.682 242.267 450.469 380.445C459.421 391.921 454.538 408.762 440.825 413.709L199.872 500.655C180.945 507.485 163.838 486.94 174.062 469.658L307.228 244.534C314.929 231.516 333.374 230.336 342.682 242.267Z" fill="#FD990E" fill-rule="evenodd" fill-opacity="0.501961"/><path d="M335.485 330.5 344.326 246.43C346.637 223.347 325.686 203.5 299.004 203.5L162.996 203.5C136.316 203.5 115.363 223.347 117.674 246.43L126.004 330.5" stroke="#0E4D2F" stroke-width="3" stroke-miterlimit="8" fill="none" fill-rule="evenodd"/><path d="M144 517.5 144 517.5C140.471 517.5 137.494 514.874 137.061 511.375L131.5 466.5 156.5 466.5 150.939 511.375C150.506 514.874 147.53 517.5 144 517.5Z" stroke="#0E4D2F" stroke-width="3" stroke-miterlimit="8" fill="none" fill-rule="evenodd"/><path d="M316.5 517.5 316.5 517.5C313.112 517.5 310.254 514.874 309.839 511.375L304.5 466.5 328.5 466.5 323.161 511.375C322.746 514.874 319.888 517.5 316.5 517.5Z" stroke="#0E4D2F" stroke-width="3" stroke-miterlimit="8" fill="none" fill-rule="evenodd"/><path d="M346.872 328.5 333.942 328.5C304.312 328.5 279.668 351.345 277.354 380.955L277.013 385.328C276.535 391.438 271.451 396.151 265.337 396.151L231.754 396.151 230.245 396.151 196.663 396.151C190.549 396.151 185.465 391.438 184.988 385.328L184.646 380.955C182.334 351.346 157.688 328.5 128.058 328.5L115.128 328.5C104.85 328.5 96.753 337.277 97.5549 347.549L105.651 437.21C106.369 446.405 114.022 453.5 123.224 453.5L191.405 453.5 230.246 453.5 231.755 453.5 270.595 453.5 338.776 453.5C347.978 453.5 355.631 446.405 356.349 437.21L364.445 347.549C365.247 337.277 357.148 328.5 346.872 328.5Z" stroke="#0E4D2F" stroke-width="3" stroke-miterlimit="8" fill="none" fill-rule="evenodd"/><path d="M333.046 466.5 128.955 466.5C125.389 466.5 122.5 463.795 122.5 460.456L122.5 453.5 339.5 453.5 339.5 460.456C339.5 463.795 336.611 466.5 333.046 466.5Z" stroke="#0E4D2F" stroke-width="3" stroke-miterlimit="8" fill="none" fill-rule="evenodd"/><path d="M167.5 344.5C167.5 344.5 222.665 322 292.5 344.5" stroke="#0E4D2F" stroke-width="3" stroke-miterlimit="8" fill="none" fill-rule="evenodd"/><path d="M122.5 437.5 339.5 437.5" stroke="#0E4D2F" stroke-width="3" stroke-miterlimit="8" fill="none" fill-rule="evenodd"/><path d="M716.906 286.529 716.906 338.31C716.957 341.971 717.554 344.358 718.695 345.47 719.836 346.583 721.213 347.109 722.825 347.048L727.237 347.048C732.787 346.984 737.794 345.626 742.256 342.973 746.718 340.32 750.265 336.756 752.898 332.281 755.531 327.806 756.878 322.804 756.94 317.274L756.94 316.195C756.881 310.741 755.576 305.804 753.026 301.384 750.475 296.965 747.034 293.426 742.702 290.768 738.37 288.111 733.502 286.698 728.098 286.529ZM820.542 273.26 802.57 335.613C803.887 335.252 806.276 333.913 809.737 331.598 813.198 329.282 816.719 325.571 820.299 320.462 823.88 315.354 826.508 308.43 828.183 299.69ZM722.502 257.942C721.044 257.935 719.762 258.65 718.655 260.086 717.547 261.522 716.964 263.72 716.906 266.68L716.906 284.48 725.408 284.48C729.161 284.385 732.282 283.091 734.77 280.596 737.259 278.101 738.551 274.973 738.645 271.211 738.559 267.543 737.331 264.441 734.959 261.906 732.587 259.371 729.582 258.05 725.946 257.942ZM539.55 257.942C538.093 257.834 536.811 258.346 535.703 259.479 534.596 260.612 534.013 263.012 533.954 266.68L533.954 338.31C533.972 341.169 534.248 343.219 534.783 344.459 535.319 345.7 536.01 346.455 536.856 346.725 537.702 346.994 538.6 347.102 539.55 347.048L544.608 347.048C549.796 347.024 554.475 345.778 558.647 343.308 562.818 340.839 566.134 337.507 568.595 333.312 571.057 329.117 572.316 324.418 572.374 319.216L572.374 285.774C572.316 280.608 571.057 275.933 568.595 271.75 566.134 267.567 562.818 264.235 558.647 261.753 554.475 259.272 549.796 258.002 544.608 257.942ZM883.284 256 916 256 916 257.942C915.224 257.888 913.991 257.996 912.301 258.265 910.612 258.535 909.036 259.29 907.574 260.531 906.112 261.771 905.333 263.821 905.238 266.68L905.238 338.31C905.333 341.169 906.112 343.219 907.574 344.459 909.036 345.7 910.612 346.455 912.301 346.725 913.991 346.994 915.224 347.102 916 347.048L916 348.99 883.284 348.99 883.284 347.048C884.062 347.102 885.304 346.994 887.011 346.725 888.717 346.455 890.31 345.7 891.79 344.459 893.269 343.219 894.057 341.169 894.153 338.31L894.153 266.68C894.057 263.821 893.269 261.771 891.79 260.531 890.31 259.29 888.717 258.535 887.011 258.265 885.304 257.996 884.062 257.888 883.284 257.942ZM823.448 256 826.569 256 850.676 338.31C851.556 340.999 852.964 342.969 854.901 344.219 856.837 345.47 858.756 346.265 860.656 346.605 862.557 346.944 863.893 347.092 864.666 347.048L864.666 348.99 829.367 348.99 829.367 347.048C830.174 347.064 831.502 346.805 833.353 346.269 835.204 345.734 836.827 344.827 838.224 343.548 839.62 342.27 840.04 340.524 839.483 338.31L828.937 302.279C828.039 309.26 826.182 315.081 823.366 319.742 820.549 324.403 817.478 328.093 814.152 330.813 810.827 333.532 807.951 335.469 805.525 336.625 803.098 337.78 801.827 338.342 801.709 338.31 801.039 341.506 801.761 343.771 803.875 345.106 805.989 346.441 808.675 347.089 811.933 347.048L811.933 348.99 785.889 348.99 785.889 347.048C787.31 347.072 788.964 346.844 790.852 346.365 792.739 345.886 794.513 345.011 796.173 343.74 797.833 342.469 799.033 340.659 799.772 338.31ZM694.952 256 735.308 256C739.506 256.108 743.003 257.564 745.801 260.369 748.599 263.174 750.052 266.68 750.16 270.887L750.16 271.642C750.124 274.532 749.389 277.112 747.954 279.382 746.519 281.652 744.599 283.423 742.196 284.695 749.741 285.677 755.96 288.891 760.854 294.337 765.749 299.782 768.282 306.421 768.455 314.254L768.455 319.324C768.393 324.852 767.047 329.845 764.417 334.303 761.788 338.76 758.25 342.307 753.803 344.943 749.356 347.578 744.375 348.927 738.86 348.99L694.952 348.99C694.952 349.03 694.952 348.949 694.952 348.747 694.952 348.545 694.952 347.979 694.952 347.048 695.729 347.102 696.972 346.994 698.678 346.725 700.385 346.455 701.978 345.7 703.457 344.459 704.937 343.219 705.725 341.169 705.821 338.31L705.821 266.68C705.725 263.821 704.937 261.771 703.457 260.531 701.978 259.29 700.385 258.535 698.678 258.265 696.972 257.996 695.729 257.888 694.952 257.942ZM604.821 256 637.537 256 637.537 257.942C636.761 257.888 635.528 257.996 633.838 258.265 632.149 258.535 630.573 259.29 629.111 260.531 627.649 261.771 626.87 263.821 626.775 266.68L626.775 331.838C626.616 336.105 627.526 339.679 629.506 342.558 631.486 345.437 635.49 346.934 641.519 347.048L643.026 347.048C647.924 346.925 651.956 345.257 655.119 342.045 658.283 338.834 659.919 334.82 660.029 330.004L660.029 266.68C659.934 263.821 659.156 261.771 657.694 260.531 656.231 259.29 654.656 258.535 652.966 258.265 651.277 257.996 650.044 257.888 649.267 257.942L649.267 256 672.836 256 672.836 257.942C672.058 257.888 670.816 257.996 669.109 258.265 667.403 258.535 665.809 259.29 664.33 260.531 662.851 261.771 662.063 263.821 661.966 266.68L661.966 330.219C661.836 335.532 660.025 339.955 656.532 343.488 653.039 347.021 648.644 348.855 643.348 348.99L634.631 348.99C629.228 348.853 624.753 346.996 621.206 343.421 617.659 339.845 615.821 335.373 615.69 330.004L615.69 266.68C615.594 263.821 614.806 261.771 613.327 260.531 611.847 259.29 610.254 258.535 608.548 258.265 606.841 257.996 605.599 257.888 604.821 257.942ZM512 256 552.465 256C558.307 256.067 563.59 257.504 568.312 260.311 573.035 263.119 576.795 266.897 579.592 271.646 582.39 276.395 583.822 281.716 583.889 287.608L583.889 317.49C583.822 323.346 582.39 328.642 579.592 333.376 576.795 338.11 573.035 341.879 568.312 344.683 563.59 347.487 558.307 348.923 552.465 348.99L512 348.99 512 347.048C512.778 347.102 514.02 346.994 515.727 346.725 517.433 346.455 519.026 345.7 520.506 344.459 521.985 343.219 522.773 341.169 522.869 338.31L522.869 266.68C522.773 263.821 521.985 261.771 520.506 260.531 519.026 259.29 517.433 258.535 515.727 258.265 514.02 257.996 512.778 257.888 512 257.942Z" fill="#0E4D2F" fill-rule="evenodd"/><path d="M1175.23 396.148C1174.52 396.108 1173.86 396.187 1173.24 396.386 1172.61 396.585 1172.1 397.142 1171.71 398.057 1171.32 398.972 1171.11 400.483 1171.1 402.591L1171.1 425.023 1180.62 425.023C1184.81 424.948 1188.29 423.626 1191.07 421.055 1193.84 418.485 1195.28 415.114 1195.38 410.943 1195.28 406.742 1193.84 403.252 1191.07 400.473 1188.29 397.694 1184.81 396.252 1180.62 396.148ZM891.43 396.148C890.73 396.108 890.067 396.187 889.443 396.386 888.819 396.585 888.31 397.142 887.915 398.057 887.52 398.972 887.316 400.483 887.304 402.591L887.304 425.023 896.826 425.023C901.017 424.948 904.499 423.626 907.271 421.055 910.044 418.485 911.482 415.114 911.586 410.943 911.482 406.742 910.044 403.252 907.271 400.473 904.499 397.694 901.017 396.252 896.826 396.148ZM697.75 396.148C696.675 396.068 695.73 396.446 694.913 397.281 694.096 398.116 693.667 399.886 693.624 402.591L693.624 455.409C693.636 457.517 693.84 459.028 694.235 459.943 694.63 460.858 695.139 461.415 695.763 461.614 696.387 461.813 697.049 461.892 697.75 461.852L701.48 461.852C705.305 461.835 708.755 460.915 711.831 459.095 714.907 457.274 717.352 454.817 719.167 451.723 720.982 448.63 721.911 445.165 721.953 441.33L721.953 416.67C721.911 412.861 720.982 409.414 719.167 406.33 717.352 403.245 714.907 400.788 711.831 398.958 708.755 397.129 705.305 396.192 701.48 396.148ZM1220.82 394.716 1261.52 394.716 1264.3 408.398 1262.87 408.398C1262.88 408.334 1262.68 407.696 1262.29 406.484 1261.9 405.271 1261.3 403.868 1260.48 402.273 1259.67 400.678 1258.62 399.274 1257.35 398.062 1256.08 396.849 1254.56 396.212 1252.8 396.148L1242.24 396.148C1241.7 396.108 1241.03 396.187 1240.21 396.386 1239.4 396.585 1238.67 397.142 1238.03 398.057 1237.38 398.972 1237.04 400.483 1237 402.591L1237 425.023 1245.18 425.023C1247.92 424.924 1249.98 424.237 1251.37 422.96 1252.76 421.684 1253.68 420.407 1254.14 419.13 1254.6 417.854 1254.82 417.166 1254.78 417.068L1256.05 417.068 1250.57 434.409 1249.38 434.409C1249.48 434.311 1249.72 433.623 1250.11 432.347 1250.49 431.07 1250.42 429.794 1249.9 428.517 1249.38 427.24 1247.8 426.553 1245.18 426.455L1237 426.455 1237 455.409C1237.04 458.109 1237.48 459.869 1238.32 460.689 1239.16 461.509 1240.18 461.897 1241.37 461.852L1255.49 461.852C1257.28 461.745 1258.8 460.676 1260.08 458.646 1261.36 456.615 1262.4 454.263 1263.21 451.591 1264.02 448.919 1264.62 446.567 1265 444.536 1265.38 442.505 1265.57 441.436 1265.57 441.33L1267 441.33 1264.3 463.284 1220.82 463.284 1220.82 461.852C1221.39 461.892 1222.3 461.813 1223.56 461.614 1224.82 461.415 1226 460.858 1227.09 459.943 1228.18 459.028 1228.76 457.517 1228.83 455.409L1228.83 402.591C1228.76 400.483 1228.18 398.972 1227.09 398.057 1226 397.142 1224.82 396.585 1223.56 396.386 1222.3 396.187 1221.39 396.108 1220.82 396.148ZM1154.91 394.716 1187.76 394.716C1192.32 394.834 1196.12 396.408 1199.15 399.439 1202.18 402.47 1203.76 406.252 1203.87 410.784L1203.87 411.023C1203.76 415.525 1202.18 419.188 1199.15 422.01 1196.12 424.832 1192.32 426.287 1187.76 426.375L1186.18 426.375C1192.07 428.033 1196.29 430.612 1198.83 434.115 1201.38 437.616 1202.92 441.322 1203.46 445.23 1204.01 449.139 1204.22 452.532 1204.11 455.409 1204.18 457.517 1204.76 459.028 1205.85 459.943 1206.94 460.858 1208.12 461.415 1209.38 461.614 1210.64 461.813 1211.55 461.892 1212.13 461.852L1212.13 463.284 1188 463.284 1188 461.852C1188.55 461.887 1189.42 461.809 1190.64 461.619 1191.85 461.43 1192.99 460.922 1194.07 460.096 1195.14 459.271 1195.74 457.92 1195.86 456.045 1196.02 453.522 1196.04 450.605 1195.91 447.294 1195.78 443.984 1195.12 440.746 1193.91 437.581 1192.71 434.416 1190.57 431.79 1187.51 429.702 1184.45 427.615 1180.06 426.532 1174.35 426.455L1171.1 426.455 1171.1 455.409C1171.17 457.517 1171.74 459.028 1172.82 459.943 1173.9 460.858 1175.06 461.415 1176.31 461.614 1177.55 461.813 1178.46 461.892 1179.03 461.852L1179.03 463.284 1154.91 463.284 1154.91 461.852C1155.48 461.892 1156.4 461.813 1157.66 461.614 1158.92 461.415 1160.09 460.858 1161.18 459.943 1162.27 459.028 1162.85 457.517 1162.93 455.409L1162.93 402.591C1162.85 400.483 1162.27 398.972 1161.18 398.057 1160.09 397.142 1158.92 396.585 1157.66 396.386 1156.4 396.187 1155.48 396.108 1154.91 396.148ZM1095.73 394.716 1119.85 394.716 1119.85 396.148C1119.28 396.108 1118.37 396.187 1117.13 396.386 1115.88 396.585 1114.72 397.142 1113.64 398.057 1112.56 398.972 1111.99 400.483 1111.92 402.591L1111.92 450.636C1111.8 453.783 1112.47 456.418 1113.93 458.541 1115.39 460.664 1118.34 461.768 1122.79 461.852L1123.9 461.852C1127.51 461.761 1130.49 460.531 1132.82 458.163 1135.15 455.795 1136.36 452.835 1136.44 449.284L1136.44 402.591C1136.37 400.483 1135.8 398.972 1134.72 398.057 1133.64 397.142 1132.48 396.585 1131.23 396.386 1129.99 396.187 1129.08 396.108 1128.5 396.148L1128.5 394.716 1145.88 394.716 1145.88 396.148C1145.31 396.108 1144.39 396.187 1143.13 396.386 1141.88 396.585 1140.7 397.142 1139.61 398.057 1138.52 398.972 1137.94 400.483 1137.87 402.591L1137.87 449.443C1137.77 453.361 1136.44 456.622 1133.86 459.227 1131.28 461.832 1128.04 463.185 1124.14 463.284L1117.71 463.284C1113.73 463.183 1110.43 461.814 1107.81 459.178 1105.2 456.541 1103.84 453.243 1103.75 449.284L1103.75 402.591C1103.67 400.483 1103.09 398.972 1102 398.057 1100.91 397.142 1099.74 396.585 1098.48 396.386 1097.22 396.187 1096.3 396.108 1095.73 396.148ZM1037.9 394.716 1084.48 394.716 1087.18 416.591 1085.75 416.591C1085.76 416.484 1085.56 415.42 1085.17 413.397 1084.78 411.374 1084.18 409.031 1083.36 406.369 1082.55 403.707 1081.5 401.365 1080.23 399.342 1078.96 397.319 1077.44 396.254 1075.68 396.148L1069.72 396.148C1068.54 396.068 1067.52 396.446 1066.68 397.281 1065.84 398.116 1065.4 399.886 1065.36 402.591L1065.36 455.409C1065.43 457.517 1066 459.028 1067.08 459.943 1068.16 460.858 1069.32 461.415 1070.57 461.614 1071.81 461.813 1072.72 461.892 1073.3 461.852L1073.3 463.284 1049.17 463.284 1049.17 461.852C1049.74 461.892 1050.65 461.813 1051.9 461.614 1053.14 461.415 1054.31 460.858 1055.39 459.943 1056.46 459.028 1057.04 457.517 1057.11 455.409L1057.11 402.591C1057.07 399.886 1056.63 398.116 1055.79 397.281 1054.95 396.446 1053.93 396.068 1052.74 396.148L1046.71 396.148C1044.95 396.254 1043.43 397.319 1042.16 399.342 1040.88 401.365 1039.84 403.707 1039.02 406.369 1038.21 409.031 1037.61 411.374 1037.22 413.397 1036.82 415.42 1036.63 416.484 1036.63 416.591L1035.21 416.591ZM1002.93 394.716 1027.05 394.716 1027.05 396.148C1026.48 396.108 1025.57 396.187 1024.32 396.386 1023.08 396.585 1021.91 397.142 1020.84 398.057 1019.76 398.972 1019.18 400.483 1019.11 402.591L1019.11 455.409C1019.18 457.517 1019.76 459.028 1020.84 459.943 1021.91 460.858 1023.08 461.415 1024.32 461.614 1025.57 461.813 1026.48 461.892 1027.05 461.852L1027.05 463.284 1002.93 463.284 1002.93 461.852C1003.5 461.892 1004.41 461.813 1005.67 461.614 1006.93 461.415 1008.11 460.858 1009.2 459.943 1010.29 459.028 1010.87 457.517 1010.94 455.409L1010.94 402.591C1010.87 400.483 1010.29 398.972 1009.2 398.057 1008.11 397.142 1006.93 396.585 1005.67 396.386 1004.41 396.187 1003.5 396.108 1002.93 396.148ZM937.02 394.716 950.987 394.716 984.554 453.898 984.554 402.591C984.483 400.483 983.902 398.972 982.811 398.057 981.72 397.142 980.545 396.585 979.287 396.386 978.029 396.187 977.113 396.108 976.539 396.148L976.539 394.716 993.918 394.716 993.918 396.148C993.345 396.108 992.436 396.187 991.19 396.386 989.945 396.585 988.783 397.142 987.705 398.057 986.626 398.972 986.052 400.483 985.982 402.591L985.982 455.409C986.052 457.517 986.626 459.028 987.705 459.943 988.783 460.858 989.945 461.415 991.19 461.614 992.436 461.813 993.345 461.892 993.918 461.852L993.918 463.284 980.745 463.284 946.384 402.67 946.384 455.409C946.48 457.517 947.073 459.028 948.162 459.943 949.252 460.858 950.421 461.415 951.669 461.614 952.917 461.813 953.827 461.892 954.399 461.852L954.399 463.284 937.02 463.284C937.02 463.314 937.02 463.254 937.02 463.105 937.02 462.956 937.02 462.538 937.02 461.852 937.594 461.892 938.51 461.813 939.768 461.614 941.027 461.415 942.201 460.858 943.292 459.943 944.383 459.028 944.964 457.517 945.035 455.409L944.956 402.511C944.861 400.429 944.275 398.937 943.198 398.033 942.122 397.13 940.965 396.58 939.73 396.383 938.495 396.187 937.591 396.108 937.02 396.148ZM871.115 394.716 903.968 394.716C908.528 394.834 912.324 396.408 915.356 399.439 918.388 402.47 919.962 406.252 920.077 410.784L920.077 411.023C919.962 415.525 918.388 419.188 915.356 422.01 912.324 424.832 908.528 426.287 903.968 426.375L902.381 426.375C908.273 428.033 912.492 430.612 915.037 434.115 917.581 437.616 919.125 441.322 919.669 445.23 920.212 449.139 920.427 452.532 920.315 455.409 920.386 457.517 920.967 459.028 922.058 459.943 923.149 460.858 924.324 461.415 925.582 461.614 926.841 461.813 927.757 461.892 928.33 461.852L928.33 463.284 904.206 463.284 904.206 461.852C904.75 461.887 905.629 461.809 906.843 461.619 908.056 461.43 909.2 460.922 910.273 460.096 911.345 459.271 911.942 457.92 912.062 456.045 912.227 453.522 912.245 450.605 912.117 447.294 911.989 443.984 911.323 440.746 910.118 437.581 908.914 434.416 906.78 431.79 903.715 429.702 900.651 427.615 896.265 426.532 890.557 426.455L887.304 426.455 887.304 455.409C887.374 457.517 887.948 459.028 889.026 459.943 890.104 460.858 891.266 461.415 892.512 461.614 893.757 461.813 894.667 461.892 895.239 461.852L895.239 463.284 871.115 463.284 871.115 461.852C871.689 461.892 872.605 461.813 873.863 461.614 875.122 461.415 876.296 460.858 877.387 459.943 878.478 459.028 879.059 457.517 879.13 455.409L879.13 402.591C879.059 400.483 878.478 398.972 877.387 398.057 876.296 397.142 875.122 396.585 873.863 396.386 872.605 396.187 871.689 396.108 871.115 396.148ZM811.935 394.716 836.059 394.716 836.059 396.148C835.486 396.108 834.577 396.187 833.332 396.386 832.086 396.585 830.924 397.142 829.846 398.057 828.768 398.972 828.194 400.483 828.124 402.591L828.124 450.636C828.006 453.783 828.677 456.418 830.137 458.541 831.597 460.664 834.55 461.768 838.995 461.852L840.106 461.852C843.719 461.761 846.691 460.531 849.024 458.163 851.356 455.795 852.563 452.835 852.644 449.284L852.644 402.591C852.574 400.483 852 398.972 850.922 398.057 849.844 397.142 848.682 396.585 847.436 396.386 846.191 396.187 845.281 396.108 844.709 396.148L844.709 394.716 862.088 394.716 862.088 396.148C861.514 396.108 860.598 396.187 859.339 396.386 858.081 396.585 856.906 397.142 855.816 398.057 854.725 398.972 854.144 400.483 854.073 402.591L854.073 449.443C853.977 453.361 852.641 456.622 850.065 459.227 847.49 461.832 844.249 463.185 840.344 463.284L833.917 463.284C829.932 463.183 826.632 461.814 824.017 459.178 821.402 456.541 820.046 453.243 819.95 449.284L819.95 402.591C819.879 400.483 819.298 398.972 818.207 398.057 817.116 397.142 815.942 396.585 814.683 396.386 813.425 396.187 812.509 396.108 811.935 396.148ZM758.135 394.716 801.622 394.716 804.32 416.591 802.891 416.591C802.895 416.484 802.705 415.42 802.321 413.397 801.938 411.374 801.341 409.031 800.531 406.369 799.721 403.707 798.677 401.365 797.401 399.342 796.125 397.319 794.595 396.254 792.813 396.148L778.688 396.148C777.5 396.103 776.484 396.491 775.643 397.311 774.801 398.131 774.362 399.891 774.324 402.591L774.324 425.023 782.497 425.023C785.239 424.924 787.303 424.237 788.69 422.96 790.077 421.684 791 420.407 791.461 419.13 791.922 417.854 792.135 417.166 792.099 417.068L793.369 417.068 787.893 434.409 786.703 434.409C786.802 434.311 787.044 433.623 787.429 432.347 787.814 431.07 787.744 429.794 787.22 428.517 786.697 427.24 785.122 426.553 782.497 426.455L774.324 426.455 774.324 455.409C774.394 457.517 774.968 459.028 776.046 459.943 777.124 460.858 778.286 461.415 779.532 461.614 780.777 461.813 781.686 461.892 782.259 461.852L782.259 463.284 758.135 463.284C758.135 463.314 758.135 463.254 758.135 463.105 758.135 462.956 758.135 462.538 758.135 461.852 758.709 461.892 759.625 461.813 760.883 461.614 762.142 461.415 763.316 460.858 764.407 459.943 765.498 459.028 766.079 457.517 766.15 455.409L766.15 402.591C766.079 400.483 765.498 398.972 764.407 398.057 763.316 397.142 762.142 396.585 760.883 396.386 759.625 396.187 758.709 396.108 758.135 396.148ZM677.435 394.716 707.273 394.716C711.581 394.765 715.476 395.825 718.958 397.895 722.441 399.965 725.213 402.751 727.276 406.253 729.339 409.755 730.395 413.678 730.444 418.023L730.444 440.057C730.395 444.375 729.339 448.28 727.276 451.771 725.213 455.261 722.441 458.04 718.958 460.108 715.476 462.176 711.581 463.235 707.273 463.284L677.435 463.284 677.435 461.852C678.009 461.892 678.925 461.813 680.183 461.614 681.442 461.415 682.616 460.858 683.707 459.943 684.798 459.028 685.379 457.517 685.45 455.409L685.45 402.591C685.379 400.483 684.798 398.972 683.707 398.057 682.616 397.142 681.442 396.585 680.183 396.386 678.925 396.187 678.009 396.108 677.435 396.148ZM623.635 394.716 664.344 394.716 667.122 408.398 665.693 408.398C665.696 408.334 665.502 407.696 665.112 406.484 664.721 405.271 664.118 403.868 663.303 402.273 662.487 400.678 661.443 399.274 660.169 398.062 658.896 396.849 657.378 396.212 655.615 396.148L645.061 396.148C644.522 396.108 643.846 396.187 643.033 396.386 642.22 396.585 641.491 397.142 640.846 398.057 640.201 398.972 639.86 400.483 639.823 402.591L639.823 425.023 647.997 425.023C650.739 424.924 652.803 424.237 654.19 422.96 655.576 421.684 656.5 420.407 656.961 419.13 657.422 417.854 657.635 417.166 657.599 417.068L658.869 417.068 653.393 434.409 652.203 434.409C652.302 434.311 652.544 433.623 652.929 432.347 653.313 431.07 653.244 429.794 652.72 428.517 652.197 427.24 650.622 426.553 647.997 426.455L639.823 426.455 639.823 455.409C639.862 458.109 640.301 459.869 641.143 460.689 641.984 461.509 642.999 461.897 644.188 461.852L658.313 461.852C660.095 461.745 661.625 460.676 662.901 458.646 664.177 456.615 665.221 454.263 666.031 451.591 666.841 448.919 667.438 446.567 667.821 444.536 668.205 442.505 668.395 441.436 668.391 441.33L669.82 441.33 667.122 463.284 623.635 463.284 623.635 461.852C624.209 461.892 625.125 461.813 626.383 461.614 627.642 461.415 628.816 460.858 629.907 459.943 630.998 459.028 631.579 457.517 631.65 455.409L631.65 402.591C631.579 400.483 630.998 398.972 629.907 398.057 628.816 397.142 627.642 396.585 626.383 396.386 625.125 396.187 624.209 396.108 623.635 396.148ZM512 394.716 536.124 394.716 536.124 396.148C535.551 396.108 534.642 396.187 533.396 396.386 532.151 396.585 530.989 397.142 529.911 398.057 528.833 398.972 528.258 400.483 528.188 402.591L528.188 450.636C528.071 453.783 528.742 456.418 530.202 458.541 531.662 460.664 534.615 461.768 539.06 461.852L540.171 461.852C543.783 461.761 546.756 460.531 549.089 458.163 551.421 455.795 552.628 452.835 552.709 449.284L552.709 402.591C552.639 400.483 552.065 398.972 550.987 398.057 549.909 397.142 548.747 396.585 547.501 396.386 546.255 396.187 545.346 396.108 544.774 396.148L544.774 394.716 562.152 394.716 562.152 396.148C561.579 396.108 560.663 396.187 559.404 396.386 558.146 396.585 556.971 397.142 555.88 398.057 554.79 398.972 554.209 400.483 554.138 402.591L554.138 449.443C554.042 453.361 552.706 456.622 550.13 459.227 547.555 461.832 544.314 463.185 540.409 463.284L533.981 463.284C529.997 463.183 526.697 461.814 524.082 459.178 521.466 456.541 520.111 453.243 520.015 449.284L520.015 402.591C519.944 400.483 519.363 398.972 518.272 398.057 517.181 397.142 516.006 396.585 514.748 396.386 513.49 396.187 512.574 396.108 512 396.148ZM593.082 394C597.017 394.053 600.436 394.822 603.339 396.307 606.242 397.792 608.589 399.674 610.381 401.954 610.542 402.117 610.697 402.249 610.848 402.352 610.998 402.455 611.134 402.508 611.254 402.511 611.616 402.569 611.904 402.036 612.117 400.91 612.331 399.785 612.44 397.72 612.445 394.716L613.952 394.716 613.952 411.5 612.603 411.5C612.335 408.974 611.346 406.496 609.638 404.067 607.929 401.638 605.683 399.62 602.899 398.013 600.114 396.405 596.974 395.572 593.479 395.511L592.685 395.511C588.412 395.621 584.857 397.092 582.022 399.926 579.187 402.76 577.715 406.3 577.608 410.545 577.725 413.569 578.831 416.051 580.926 417.99 583.021 419.93 585.403 421.48 588.071 422.642 590.739 423.804 592.992 424.73 594.828 425.42 598.184 426.778 601.453 428.367 604.633 430.187 607.813 432.007 610.446 434.186 612.533 436.722 614.62 439.258 615.701 442.279 615.778 445.784 615.73 449.44 614.697 452.628 612.68 455.35 610.663 458.072 607.949 460.188 604.539 461.699 601.128 463.21 597.309 463.977 593.082 464 588.929 463.982 585.233 463.282 581.992 461.902 578.752 460.521 576.127 458.569 574.116 456.045 573.956 455.88 573.8 455.734 573.65 455.608 573.5 455.482 573.364 455.416 573.243 455.409 572.881 455.354 572.594 455.901 572.38 457.05 572.167 458.198 572.058 460.276 572.053 463.284L570.545 463.284 570.545 446.5 572.291 446.5C572.379 449.278 573.279 451.88 574.989 454.307 576.7 456.734 579.01 458.706 581.919 460.223 584.829 461.74 588.127 462.522 591.812 462.568 596.109 462.46 599.756 460.985 602.753 458.144 605.751 455.301 607.315 451.738 607.445 447.455 607.345 444.44 606.347 442.019 604.451 440.192 602.554 438.365 600.363 436.923 597.876 435.864 595.389 434.806 593.209 433.923 591.336 433.216 587.98 431.87 584.712 430.364 581.531 428.697 578.351 427.03 575.718 425.005 573.631 422.622 571.544 420.239 570.463 417.3 570.386 413.807 570.434 410.131 571.467 406.805 573.484 403.828 575.502 400.851 578.215 398.48 581.626 396.713 585.036 394.947 588.855 394.043 593.082 394Z" fill="#0E4D2F" fill-rule="evenodd"/></g></svg>