<svg xmlns="http://www.w3.org/2000/svg" xmlns:xlink="http://www.w3.org/1999/xlink" overflow="hidden" viewBox="0 0 1280 720"><g><rect x="0" y="0" width="1280" height="720" fill="#FFFFFF00"/><path d="M24.0783 329.499 136.663 461.541C146.013 472.507 163.353 471.174 170.914 458.91L303.763 243.392C314.198 226.462 297.676 205.785 278.835 212.195L33.4013 295.67C19.2067 300.496 14.3567 318.098 24.0783 329.499Z" fill="#FD990E" fill-rule="evenodd" fill-opacity="0.8"/><path d="M345.264 243.205 451.533 380.352C460.359 391.742 455.545 408.458 442.025 413.368L204.465 499.665C185.805 506.444 168.939 486.052 179.019 468.9L310.309 245.455C317.902 232.534 336.088 231.364 345.264 243.205Z" fill="#FD990E" fill-rule="evenodd" fill-opacity="0.501961"/><path d="M338.565 330.5 347.327 247.754C349.618 225.034 328.851 205.5 302.405 205.5L167.595 205.5C141.15 205.5 120.382 225.034 122.673 247.754L130.929 330.5" stroke="#F2F2F2" stroke-width="3" stroke-miterlimit="8" fill="none" fill-rule="evenodd"/><path d="M148.5 515.5 148.5 515.5C145.112 515.5 142.254 512.925 141.839 509.495L136.5 465.5 160.5 465.5 155.161 509.495C154.746 512.925 151.888 515.5 148.5 515.5Z" stroke="#F2F2F2" stroke-width="3" stroke-miterlimit="8" fill="none" fill-rule="evenodd"/><path d="M319.5 515.5 319.5 515.5C316.112 515.5 313.254 512.925 312.839 509.495L307.5 465.5 331.5 465.5 326.161 509.495C325.746 512.925 322.888 515.5 319.5 515.5Z" stroke="#F2F2F2" stroke-width="3" stroke-miterlimit="8" fill="none" fill-rule="evenodd"/><path d="M349.136 328.5 336.4 328.5C307.213 328.5 282.939 351.162 280.659 380.536L280.323 384.874C279.853 390.934 274.845 395.61 268.823 395.61L235.742 395.61 234.256 395.61 201.177 395.61C195.155 395.61 190.147 390.934 189.677 384.874L189.341 380.536C187.063 351.164 162.787 328.5 133.6 328.5L120.864 328.5C110.74 328.5 102.764 337.207 103.554 347.396L111.529 436.34C112.236 445.462 119.775 452.5 128.839 452.5L195.998 452.5 234.258 452.5 235.744 452.5 274.002 452.5 341.162 452.5C350.225 452.5 357.764 445.462 358.472 436.34L366.446 347.396C367.236 337.207 359.258 328.5 349.136 328.5Z" stroke="#F2F2F2" stroke-width="3" stroke-miterlimit="8" fill="none" fill-rule="evenodd"/><path d="M336.105 465.5 133.895 465.5C130.363 465.5 127.5 462.795 127.5 459.456L127.5 452.5 342.5 452.5 342.5 459.456C342.5 462.795 339.637 465.5 336.105 465.5Z" stroke="#F2F2F2" stroke-width="3" stroke-miterlimit="8" fill="none" fill-rule="evenodd"/><path d="M172.5 344.5C172.5 344.5 227.224 322 296.5 344.5" stroke="#F2F2F2" stroke-width="3" stroke-miterlimit="8" fill="none" fill-rule="evenodd"/><path d="M127.5 437.5 342.5 437.5" stroke="#F2F2F2" stroke-width="3" stroke-miterlimit="8" fill="none" fill-rule="evenodd"/><path d="M715.877 287.201 715.877 338.425C715.928 342.047 716.518 344.408 717.648 345.508 718.778 346.609 720.141 347.129 721.737 347.069L726.106 347.069C731.601 347.006 736.558 345.662 740.976 343.038 745.394 340.413 748.906 336.888 751.513 332.461 754.12 328.034 755.454 323.086 755.515 317.615L755.515 316.548C755.456 311.152 754.164 306.268 751.639 301.896 749.114 297.524 745.707 294.024 741.418 291.395 737.129 288.765 732.309 287.368 726.958 287.201ZM818.487 274.075 800.693 335.757C801.997 335.399 804.362 334.075 807.789 331.785 811.216 329.494 814.702 325.823 818.247 320.769 821.792 315.716 824.394 308.866 826.053 300.22ZM721.418 258.921C719.975 258.914 718.705 259.621 717.609 261.042 716.512 262.463 715.935 264.637 715.877 267.565L715.877 285.173 724.295 285.173C728.011 285.08 731.101 283.799 733.565 281.331 736.029 278.864 737.307 275.769 737.401 272.047 737.316 268.419 736.1 265.351 733.751 262.843 731.403 260.335 728.428 259.028 724.827 258.921ZM540.278 258.921C538.835 258.814 537.565 259.321 536.468 260.442 535.372 261.562 534.795 263.937 534.737 267.565L534.737 338.425C534.754 341.253 535.028 343.281 535.558 344.508 536.088 345.735 536.772 346.482 537.61 346.749 538.448 347.016 539.337 347.122 540.278 347.069L545.286 347.069C550.422 347.045 555.055 345.812 559.185 343.37 563.315 340.927 566.598 337.631 569.035 333.481 571.472 329.33 572.719 324.682 572.776 319.536L572.776 286.454C572.719 281.343 571.472 276.719 569.035 272.581 566.598 268.442 563.315 265.146 559.185 262.692 555.055 260.237 550.422 258.98 545.286 258.921ZM880.608 257 913 257 913 258.921C912.231 258.868 911.01 258.974 909.338 259.241 907.665 259.508 906.105 260.255 904.657 261.482 903.21 262.709 902.439 264.737 902.345 267.565L902.345 338.425C902.439 341.253 903.21 343.281 904.657 344.508 906.105 345.735 907.665 346.482 909.338 346.749 911.01 347.016 912.231 347.122 913 347.069L913 348.99 880.608 348.99 880.608 347.069C881.378 347.122 882.608 347.016 884.298 346.749 885.988 346.482 887.565 345.735 889.03 344.508 890.494 343.281 891.274 341.253 891.37 338.425L891.37 267.565C891.274 264.737 890.494 262.709 889.03 261.482 887.565 260.255 885.988 259.508 884.298 259.241 882.608 258.974 881.378 258.868 880.608 258.921ZM821.364 257 824.454 257 848.322 338.425C849.194 341.085 850.588 343.034 852.506 344.271 854.423 345.508 856.322 346.295 858.204 346.631 860.086 346.966 861.409 347.113 862.174 347.069L862.174 348.99 827.225 348.99 827.225 347.069C828.023 347.085 829.339 346.828 831.171 346.298 833.004 345.769 834.611 344.872 835.994 343.607 837.376 342.342 837.792 340.615 837.241 338.425L826.799 302.782C825.91 309.687 824.071 315.445 821.283 320.056 818.494 324.668 815.454 328.318 812.161 331.008 808.868 333.698 806.021 335.615 803.618 336.758 801.216 337.9 799.957 338.456 799.841 338.425 799.177 341.587 799.892 343.828 801.985 345.148 804.078 346.469 806.738 347.109 809.963 347.069L809.963 348.99 784.177 348.99 784.177 347.069C785.584 347.093 787.222 346.868 789.091 346.393 790.959 345.919 792.715 345.053 794.359 343.797 796.003 342.54 797.191 340.749 797.923 338.425ZM694.14 257 734.098 257C738.253 257.107 741.716 258.547 744.486 261.322 747.257 264.097 748.695 267.565 748.802 271.727L748.802 272.474C748.766 275.333 748.038 277.885 746.617 280.131 745.197 282.376 743.297 284.128 740.917 285.387 748.387 286.358 754.545 289.538 759.391 294.925 764.236 300.312 766.745 306.879 766.916 314.627L766.916 319.643C766.854 325.112 765.521 330.051 762.918 334.461 760.315 338.87 756.812 342.379 752.409 344.986 748.006 347.594 743.074 348.928 737.614 348.99L694.14 348.99C694.14 349.03 694.14 348.95 694.14 348.75 694.14 348.55 694.14 347.99 694.14 347.069 694.91 347.122 696.14 347.016 697.83 346.749 699.52 346.482 701.097 345.735 702.562 344.508 704.027 343.281 704.807 341.253 704.902 338.425L704.902 267.565C704.807 264.737 704.027 262.709 702.562 261.482 701.097 260.255 699.52 259.508 697.83 259.241 696.14 258.974 694.91 258.868 694.14 258.921ZM604.902 257 637.294 257 637.294 258.921C636.525 258.868 635.305 258.974 633.632 259.241 631.959 259.508 630.399 260.255 628.951 261.482 627.504 262.709 626.733 264.737 626.639 267.565L626.639 332.022C626.481 336.244 627.382 339.779 629.343 342.627 631.303 345.475 635.267 346.956 641.237 347.069L642.728 347.069C647.579 346.947 651.57 345.297 654.702 342.12 657.834 338.943 659.455 334.972 659.564 330.208L659.564 267.565C659.47 264.737 658.699 262.709 657.251 261.482 655.803 260.255 654.243 259.508 652.571 259.241 650.898 258.974 649.677 258.868 648.908 258.921L648.908 257 672.243 257 672.243 258.921C671.473 258.868 670.243 258.974 668.554 259.241 666.864 259.508 665.287 260.255 663.822 261.482 662.357 262.709 661.577 264.737 661.482 267.565L661.482 330.421C661.353 335.677 659.559 340.053 656.101 343.547 652.642 347.043 648.291 348.857 643.048 348.99L634.417 348.99C629.067 348.854 624.636 347.018 621.125 343.481 617.613 339.944 615.793 335.519 615.664 330.208L615.664 267.565C615.568 264.737 614.788 262.709 613.324 261.482 611.859 260.255 610.282 259.508 608.592 259.241 606.902 258.974 605.672 258.868 604.902 258.921ZM513 257 553.064 257C558.849 257.066 564.079 258.487 568.755 261.265 573.431 264.042 577.153 267.78 579.923 272.478 582.693 277.176 584.111 282.44 584.177 288.268L584.177 317.829C584.111 323.622 582.693 328.861 579.923 333.544 577.153 338.227 573.431 341.955 568.755 344.729 564.079 347.503 558.849 348.924 553.064 348.99L513 348.99 513 347.069C513.77 347.122 515 347.016 516.69 346.749 518.38 346.482 519.957 345.735 521.422 344.508 522.886 343.281 523.667 341.253 523.762 338.425L523.762 267.565C523.667 264.737 522.886 262.709 521.422 261.482 519.957 260.255 518.38 259.508 516.69 259.241 515 258.974 513.77 258.868 513 258.921Z" fill="#F2F2F2" fill-rule="evenodd"/><path d="M1170.08 396.117C1169.38 396.078 1168.73 396.156 1168.11 396.352 1167.49 396.548 1166.98 397.097 1166.59 397.999 1166.2 398.901 1166 400.39 1165.99 402.468L1165.99 424.579 1175.42 424.579C1179.57 424.506 1183.02 423.202 1185.77 420.669 1188.52 418.135 1189.94 414.813 1190.05 410.701 1189.94 406.56 1188.52 403.12 1185.77 400.381 1183.02 397.641 1179.57 396.22 1175.42 396.117ZM888.912 396.117C888.218 396.078 887.562 396.156 886.944 396.352 886.326 396.548 885.821 397.097 885.43 397.999 885.038 398.901 884.837 400.39 884.824 402.468L884.824 424.579 894.258 424.579C898.411 424.506 901.86 423.202 904.607 420.669 907.353 418.135 908.778 414.813 908.882 410.701 908.778 406.56 907.353 403.12 904.607 400.381 901.86 397.641 898.411 396.22 894.258 396.117ZM697.028 396.117C695.963 396.039 695.026 396.411 694.217 397.234 693.408 398.058 692.982 399.802 692.94 402.468L692.94 454.532C692.952 456.61 693.154 458.099 693.545 459.001 693.936 459.903 694.441 460.452 695.059 460.648 695.678 460.844 696.334 460.922 697.028 460.883L700.723 460.883C704.513 460.866 707.931 459.959 710.978 458.165 714.026 456.37 716.448 453.948 718.246 450.899 720.044 447.85 720.964 444.435 721.007 440.653L721.007 416.347C720.964 412.592 720.044 409.194 718.246 406.153 716.448 403.113 714.026 400.691 710.978 398.888 707.931 397.084 704.513 396.161 700.723 396.117ZM1215.24 394.706 1255.58 394.706 1258.33 408.192 1256.91 408.192C1256.91 408.129 1256.72 407.5 1256.34 406.305 1255.95 405.11 1255.35 403.727 1254.54 402.154 1253.74 400.582 1252.7 399.199 1251.44 398.004 1250.18 396.809 1248.67 396.18 1246.93 396.117L1236.47 396.117C1235.94 396.078 1235.27 396.156 1234.46 396.352 1233.66 396.548 1232.93 397.097 1232.3 397.999 1231.66 398.901 1231.32 400.39 1231.28 402.468L1231.28 424.579 1239.38 424.579C1242.1 424.483 1244.14 423.805 1245.51 422.547 1246.89 421.288 1247.8 420.03 1248.26 418.771 1248.72 417.513 1248.93 416.835 1248.89 416.739L1250.15 416.739 1244.73 433.832 1243.55 433.832C1243.64 433.735 1243.88 433.057 1244.27 431.799 1244.65 430.541 1244.58 429.282 1244.06 428.024 1243.54 426.765 1241.98 426.088 1239.38 425.991L1231.28 425.991 1231.28 454.532C1231.32 457.193 1231.76 458.928 1232.59 459.736 1233.42 460.545 1234.43 460.927 1235.61 460.883L1249.6 460.883C1251.37 460.778 1252.88 459.724 1254.15 457.722 1255.41 455.72 1256.44 453.402 1257.25 450.768 1258.05 448.134 1258.64 445.816 1259.02 443.814 1259.4 441.812 1259.59 440.759 1259.58 440.653L1261 440.653 1258.33 462.294 1215.24 462.294 1215.24 460.883C1215.81 460.922 1216.72 460.844 1217.97 460.648 1219.21 460.452 1220.38 459.903 1221.46 459.001 1222.54 458.099 1223.11 456.61 1223.18 454.532L1223.18 402.468C1223.11 400.39 1222.54 398.901 1221.46 397.999 1220.38 397.097 1219.21 396.548 1217.97 396.352 1216.72 396.156 1215.81 396.078 1215.24 396.117ZM1149.95 394.706 1182.5 394.706C1187.02 394.822 1190.78 396.373 1193.78 399.361 1196.78 402.349 1198.34 406.077 1198.46 410.544L1198.46 410.78C1198.34 415.218 1196.78 418.828 1193.78 421.61 1190.78 424.392 1187.02 425.826 1182.5 425.913L1180.93 425.913C1186.76 427.547 1190.94 430.089 1193.46 433.541 1195.99 436.993 1197.51 440.646 1198.05 444.498 1198.59 448.351 1198.8 451.695 1198.69 454.532 1198.76 456.61 1199.34 458.099 1200.42 459.001 1201.5 459.903 1202.66 460.452 1203.91 460.648 1205.16 460.844 1206.07 460.922 1206.63 460.883L1206.63 462.294 1182.73 462.294 1182.73 460.883C1183.27 460.917 1184.14 460.84 1185.35 460.653 1186.55 460.467 1187.68 459.966 1188.74 459.152 1189.81 458.338 1190.4 457.007 1190.52 455.159 1190.68 452.671 1190.7 449.796 1190.57 446.533 1190.44 443.27 1189.78 440.078 1188.59 436.958 1187.4 433.838 1185.28 431.25 1182.25 429.192 1179.21 427.135 1174.87 426.068 1169.21 425.991L1165.99 425.991 1165.99 454.532C1166.06 456.61 1166.63 458.099 1167.69 459.001 1168.76 459.903 1169.91 460.452 1171.15 460.648 1172.38 460.844 1173.28 460.922 1173.85 460.883L1173.85 462.294 1149.95 462.294 1149.95 460.883C1150.52 460.922 1151.43 460.844 1152.67 460.648 1153.92 460.452 1155.08 459.903 1156.16 459.001 1157.24 458.099 1157.82 456.61 1157.89 454.532L1157.89 402.468C1157.82 400.39 1157.24 398.901 1156.16 397.999 1155.08 397.097 1153.92 396.548 1152.67 396.352 1151.43 396.156 1150.52 396.078 1149.95 396.117ZM1091.32 394.706 1115.22 394.706 1115.22 396.117C1114.65 396.078 1113.75 396.156 1112.52 396.352 1111.28 396.548 1110.13 397.097 1109.06 397.999 1107.99 398.901 1107.43 400.39 1107.36 402.468L1107.36 449.827C1107.24 452.929 1107.91 455.527 1109.35 457.619 1110.8 459.712 1113.72 460.8 1118.13 460.883L1119.23 460.883C1122.81 460.793 1125.75 459.581 1128.06 457.247 1130.37 454.912 1131.57 451.995 1131.65 448.494L1131.65 402.468C1131.58 400.39 1131.01 398.901 1129.94 397.999 1128.88 397.097 1127.72 396.548 1126.49 396.352 1125.26 396.156 1124.36 396.078 1123.79 396.117L1123.79 394.706 1141.01 394.706 1141.01 396.117C1140.44 396.078 1139.53 396.156 1138.28 396.352 1137.04 396.548 1135.87 397.097 1134.79 397.999 1133.71 398.901 1133.14 400.39 1133.07 402.468L1133.07 448.651C1132.97 452.513 1131.65 455.728 1129.09 458.295 1126.54 460.863 1123.33 462.196 1119.46 462.294L1113.1 462.294C1109.15 462.195 1105.88 460.845 1103.29 458.246 1100.7 455.647 1099.35 452.397 1099.26 448.494L1099.26 402.468C1099.19 400.39 1098.61 398.901 1097.53 397.999 1096.45 397.097 1095.29 396.548 1094.04 396.352 1092.79 396.156 1091.89 396.078 1091.32 396.117ZM1034.03 394.706 1080.18 394.706 1082.85 416.268 1081.43 416.268C1081.44 416.163 1081.25 415.114 1080.86 413.12 1080.47 411.125 1079.87 408.816 1079.07 406.193 1078.26 403.569 1077.22 401.26 1075.96 399.266 1074.7 397.272 1073.2 396.222 1071.45 396.117L1065.55 396.117C1064.38 396.039 1063.37 396.411 1062.54 397.234 1061.7 398.058 1061.27 399.802 1061.23 402.468L1061.23 454.532C1061.3 456.61 1061.87 458.099 1062.94 459.001 1064 459.903 1065.16 460.452 1066.39 460.648 1067.62 460.844 1068.52 460.922 1069.09 460.883L1069.09 462.294 1045.19 462.294 1045.19 460.883C1045.76 460.922 1046.66 460.844 1047.89 460.648 1049.13 460.452 1050.28 459.903 1051.35 459.001 1052.42 458.099 1052.98 456.61 1053.05 454.532L1053.05 402.468C1053.02 399.802 1052.58 398.058 1051.75 397.234 1050.91 396.411 1049.91 396.039 1048.73 396.117L1042.75 396.117C1041.01 396.222 1039.5 397.272 1038.24 399.266 1036.98 401.26 1035.95 403.569 1035.14 406.193 1034.33 408.816 1033.73 411.125 1033.35 413.12 1032.96 415.114 1032.77 416.163 1032.77 416.268L1031.35 416.268ZM999.374 394.706 1023.27 394.706 1023.27 396.117C1022.71 396.078 1021.81 396.156 1020.57 396.352 1019.34 396.548 1018.19 397.097 1017.12 397.999 1016.05 398.901 1015.48 400.39 1015.41 402.468L1015.41 454.532C1015.48 456.61 1016.05 458.099 1017.12 459.001 1018.19 459.903 1019.34 460.452 1020.57 460.648 1021.81 460.844 1022.71 460.922 1023.27 460.883L1023.27 462.294 999.374 462.294 999.374 460.883C999.942 460.922 1000.85 460.844 1002.1 460.648 1003.34 460.452 1004.51 459.903 1005.59 459.001 1006.67 458.099 1007.24 456.61 1007.31 454.532L1007.31 402.468C1007.24 400.39 1006.67 398.901 1005.59 397.999 1004.51 397.097 1003.34 396.548 1002.1 396.352 1000.85 396.156 999.942 396.078 999.374 396.117ZM934.08 394.706 947.917 394.706 981.173 453.042 981.173 402.468C981.102 400.39 980.527 398.901 979.446 397.999 978.365 397.097 977.201 396.548 975.955 396.352 974.708 396.156 973.8 396.078 973.232 396.117L973.232 394.706 990.45 394.706 990.45 396.117C989.882 396.078 988.982 396.156 987.748 396.352 986.513 396.548 985.362 397.097 984.294 397.999 983.226 398.901 982.657 400.39 982.588 402.468L982.588 454.532C982.657 456.61 983.226 458.099 984.294 459.001 985.362 459.903 986.513 460.452 987.748 460.648 988.982 460.844 989.882 460.922 990.45 460.883L990.45 462.294 977.399 462.294 943.357 402.547 943.357 454.532C943.452 456.61 944.039 458.099 945.118 459.001 946.198 459.903 947.356 460.452 948.592 460.648 949.829 460.844 950.73 460.922 951.297 460.883L951.297 462.294 934.08 462.294C934.08 462.324 934.08 462.265 934.08 462.118 934.08 461.971 934.08 461.559 934.08 460.883 934.648 460.922 935.555 460.844 936.802 460.648 938.049 460.452 939.213 459.903 940.294 459.001 941.374 458.099 941.95 456.61 942.02 454.532L941.942 402.39C941.848 400.338 941.267 398.866 940.2 397.976 939.134 397.085 937.988 396.543 936.764 396.349 935.541 396.156 934.646 396.078 934.08 396.117ZM868.786 394.706 901.334 394.706C905.851 394.822 909.612 396.373 912.616 399.361 915.62 402.349 917.179 406.077 917.294 410.544L917.294 410.78C917.179 415.218 915.62 418.828 912.616 421.61 909.612 424.392 905.851 425.826 901.334 425.913L899.762 425.913C905.599 427.547 909.779 430.089 912.3 433.541 914.821 436.993 916.351 440.646 916.889 444.498 917.427 448.351 917.641 451.695 917.53 454.532 917.6 456.61 918.176 458.099 919.256 459.001 920.337 459.903 921.501 460.452 922.748 460.648 923.994 460.844 924.902 460.922 925.47 460.883L925.47 462.294 901.57 462.294 901.57 460.883C902.109 460.917 902.979 460.84 904.182 460.653 905.384 460.467 906.517 459.966 907.58 459.152 908.643 458.338 909.234 457.007 909.353 455.159 909.516 452.671 909.534 449.796 909.407 446.533 909.28 443.27 908.62 440.078 907.427 436.958 906.234 433.838 904.119 431.25 901.083 429.192 898.048 427.135 893.702 426.068 888.047 425.991L884.824 425.991 884.824 454.532C884.893 456.61 885.462 458.099 886.53 459.001 887.599 459.903 888.75 460.452 889.984 460.648 891.218 460.844 892.119 460.922 892.686 460.883L892.686 462.294 868.786 462.294 868.786 460.883C869.354 460.922 870.261 460.844 871.508 460.648 872.755 460.452 873.919 459.903 875 459.001 876.08 458.099 876.656 456.61 876.726 454.532L876.726 402.468C876.656 400.39 876.08 398.901 875 397.999 873.919 397.097 872.755 396.548 871.508 396.352 870.261 396.156 869.354 396.078 868.786 396.117ZM810.154 394.706 834.055 394.706 834.055 396.117C833.487 396.078 832.587 396.156 831.352 396.352 830.118 396.548 828.967 397.097 827.899 397.999 826.831 398.901 826.262 400.39 826.193 402.468L826.193 449.827C826.076 452.929 826.741 455.527 828.188 457.619 829.634 459.712 832.559 460.8 836.964 460.883L838.064 460.883C841.643 460.793 844.588 459.581 846.899 457.247 849.21 454.912 850.406 451.995 850.486 448.494L850.486 402.468C850.417 400.39 849.848 398.901 848.78 397.999 847.712 397.097 846.56 396.548 845.326 396.352 844.092 396.156 843.191 396.078 842.624 396.117L842.624 394.706 859.842 394.706 859.842 396.117C859.273 396.078 858.366 396.156 857.119 396.352 855.872 396.548 854.709 397.097 853.628 397.999 852.547 398.901 851.972 400.39 851.901 402.468L851.901 448.651C851.806 452.513 850.483 455.728 847.931 458.295 845.379 460.863 842.169 462.196 838.3 462.294L831.932 462.294C827.985 462.195 824.715 460.845 822.124 458.246 819.533 455.647 818.19 452.397 818.095 448.494L818.095 402.468C818.025 400.39 817.449 398.901 816.368 397.999 815.287 397.097 814.124 396.548 812.877 396.352 811.63 396.156 810.723 396.078 810.154 396.117ZM756.853 394.706 799.936 394.706 802.61 416.268 801.194 416.268C801.198 416.163 801.009 415.114 800.629 413.12 800.249 411.125 799.658 408.816 798.855 406.193 798.053 403.569 797.019 401.26 795.755 399.266 794.49 397.272 792.975 396.222 791.21 396.117L777.216 396.117C776.038 396.073 775.032 396.455 774.198 397.264 773.365 398.072 772.929 399.807 772.891 402.468L772.891 424.579 780.989 424.579C783.705 424.483 785.751 423.805 787.125 422.547 788.498 421.288 789.414 420.03 789.87 418.771 790.327 417.513 790.538 416.835 790.502 416.739L791.76 416.739 786.335 433.832 785.156 433.832C785.255 433.735 785.494 433.057 785.875 431.799 786.256 430.541 786.187 429.282 785.669 428.024 785.15 426.765 783.59 426.088 780.989 425.991L772.891 425.991 772.891 454.532C772.961 456.61 773.53 458.099 774.598 459.001 775.666 459.903 776.817 460.452 778.051 460.648 779.285 460.844 780.186 460.922 780.753 460.883L780.753 462.294 756.853 462.294C756.853 462.324 756.853 462.265 756.853 462.118 756.853 461.971 756.853 461.559 756.853 460.883 757.422 460.922 758.329 460.844 759.576 460.648 760.822 460.452 761.986 459.903 763.067 459.001 764.148 458.099 764.723 456.61 764.794 454.532L764.794 402.468C764.723 400.39 764.148 398.901 763.067 397.999 761.986 397.097 760.822 396.548 759.576 396.352 758.329 396.156 757.422 396.078 756.853 396.117ZM676.901 394.706 706.462 394.706C710.73 394.754 714.59 395.799 718.04 397.839 721.49 399.88 724.236 402.626 726.28 406.078 728.324 409.53 729.37 413.397 729.419 417.679L729.419 439.399C729.37 443.656 728.324 447.504 726.28 450.945 724.236 454.386 721.49 457.126 718.04 459.164 714.59 461.202 710.73 462.245 706.462 462.294L676.901 462.294 676.901 460.883C677.47 460.922 678.377 460.844 679.624 460.648 680.871 460.452 682.034 459.903 683.115 459.001 684.196 458.099 684.771 456.61 684.842 454.532L684.842 402.468C684.771 400.39 684.196 398.901 683.115 397.999 682.034 397.097 680.871 396.548 679.624 396.352 678.377 396.156 677.47 396.078 676.901 396.117ZM623.6 394.706 663.932 394.706 666.684 408.192 665.268 408.192C665.271 408.129 665.079 407.5 664.692 406.305 664.305 405.11 663.708 403.727 662.9 402.154 662.092 400.582 661.057 399.199 659.796 398.004 658.534 396.809 657.03 396.18 655.284 396.117L644.827 396.117C644.293 396.078 643.623 396.156 642.818 396.352 642.013 396.548 641.291 397.097 640.652 397.999 640.013 398.901 639.675 400.39 639.638 402.468L639.638 424.579 647.736 424.579C650.452 424.483 652.498 423.805 653.871 422.547 655.245 421.288 656.161 420.03 656.617 418.771 657.074 417.513 657.285 416.835 657.249 416.739L658.507 416.739 653.082 433.832 651.903 433.832C652.001 433.735 652.241 433.057 652.622 431.799 653.003 430.541 652.934 429.282 652.416 428.024 651.897 426.765 650.337 426.088 647.736 425.991L639.638 425.991 639.638 454.532C639.676 457.193 640.112 458.928 640.945 459.736 641.779 460.545 642.785 460.927 643.963 460.883L657.957 460.883C659.722 460.778 661.237 459.724 662.502 457.722 663.766 455.72 664.8 453.402 665.602 450.768 666.405 448.134 666.996 445.816 667.376 443.814 667.756 441.812 667.945 440.759 667.941 440.653L669.357 440.653 666.684 462.294 623.6 462.294 623.6 460.883C624.168 460.922 625.076 460.844 626.323 460.648 627.569 460.452 628.733 459.903 629.814 459.001 630.895 458.099 631.47 456.61 631.541 454.532L631.541 402.468C631.47 400.39 630.895 398.901 629.814 397.999 628.733 397.097 627.569 396.548 626.323 396.352 625.076 396.156 624.168 396.078 623.6 396.117ZM513 394.706 536.9 394.706 536.9 396.117C536.333 396.078 535.432 396.156 534.198 396.352 532.964 396.548 531.813 397.097 530.745 397.999 529.677 398.901 529.108 400.39 529.038 402.468L529.038 449.827C528.922 452.929 529.587 455.527 531.033 457.619 532.48 459.712 535.405 460.8 539.809 460.883L540.91 460.883C544.489 460.793 547.434 459.581 549.745 457.247 552.056 454.912 553.252 451.995 553.332 448.494L553.332 402.468C553.262 400.39 552.694 398.901 551.625 397.999 550.557 397.097 549.406 396.548 548.172 396.352 546.938 396.156 546.037 396.078 545.47 396.117L545.47 394.706 562.687 394.706 562.687 396.117C562.119 396.078 561.212 396.156 559.965 396.352 558.718 396.548 557.554 397.097 556.474 397.999 555.393 398.901 554.817 400.39 554.747 402.468L554.747 448.651C554.652 452.513 553.328 455.728 550.777 458.295 548.225 460.863 545.014 462.196 541.146 462.294L534.778 462.294C530.83 462.195 527.561 460.845 524.97 458.246 522.379 455.647 521.036 452.397 520.941 448.494L520.941 402.468C520.87 400.39 520.295 398.901 519.214 397.999 518.133 397.097 516.969 396.548 515.723 396.352 514.476 396.156 513.568 396.078 513 396.117ZM593.33 394C597.229 394.052 600.616 394.81 603.492 396.274 606.368 397.737 608.694 399.593 610.469 401.841 610.628 402.001 610.782 402.132 610.931 402.233 611.08 402.334 611.215 402.387 611.334 402.39 611.693 402.447 611.978 401.921 612.189 400.812 612.4 399.703 612.508 397.667 612.513 394.706L614.007 394.706 614.007 411.25 612.671 411.25C612.405 408.76 611.425 406.317 609.733 403.923 608.04 401.529 605.814 399.539 603.056 397.955 600.297 396.371 597.187 395.549 593.723 395.49L592.937 395.49C588.703 395.598 585.182 397.048 582.373 399.841 579.564 402.635 578.106 406.124 578 410.309 578.115 413.29 579.211 415.736 581.287 417.648 583.363 419.559 585.722 421.088 588.366 422.233 591.009 423.378 593.241 424.291 595.06 424.972 598.385 426.31 601.623 427.876 604.774 429.67 607.924 431.464 610.533 433.612 612.601 436.111 614.668 438.611 615.74 441.589 615.815 445.044 615.768 448.648 614.745 451.791 612.746 454.474 610.748 457.157 608.059 459.243 604.681 460.732 601.302 462.221 597.519 462.977 593.33 463 589.216 462.982 585.554 462.293 582.343 460.932 579.133 459.571 576.532 457.647 574.54 455.159 574.381 454.996 574.227 454.852 574.078 454.728 573.929 454.604 573.795 454.538 573.676 454.532 573.317 454.478 573.032 455.017 572.82 456.149 572.609 457.281 572.501 459.329 572.496 462.294L571.003 462.294 571.003 445.75 572.732 445.75C572.819 448.488 573.71 451.053 575.405 453.446 577.1 455.838 579.388 457.782 582.271 459.277 585.154 460.772 588.421 461.543 592.072 461.589 596.329 461.482 599.943 460.029 602.912 457.227 605.882 454.426 607.431 450.914 607.56 446.691 607.461 443.72 606.472 441.333 604.593 439.532 602.715 437.731 600.543 436.309 598.08 435.266 595.616 434.223 593.456 433.353 591.601 432.656 588.275 431.329 585.037 429.844 581.887 428.201 578.736 426.558 576.127 424.562 574.06 422.213 571.992 419.864 570.921 416.967 570.845 413.524 570.893 409.901 571.916 406.622 573.914 403.688 575.913 400.753 578.601 398.416 581.98 396.675 585.359 394.934 589.142 394.042 593.33 394Z" fill="#F2F2F2" fill-rule="evenodd"/></g></svg>